<svg version="1.2" xmlns="http://www.w3.org/2000/svg" viewBox="0 0 3441 2000" width="3441" height="2000">
	<title>404_nothing_found_illustration_concept_vector_-ai</title>
	<style>
		.s0 { fill: #e0efeb } 
		.s1 { fill: #e9f7f3 } 
		.s2 { fill: #5e8c7f } 
		.s3 { fill: #ffffff } 
		.s4 { fill: #427264 } 
		.s5 { fill: #2b5d62 } 
		.s6 { fill: #000000 } 
		.s7 { fill: #ffffff;stroke: #000000;stroke-width: .5 } 
	</style>
	<g id="Layer 1">
		<g id="&lt;Group&gt;">
			<g id="&lt;Group&gt;">
				<g id="&lt;Group&gt;">
					<path id="&lt;Compound Path&gt;" fill-rule="evenodd" class="s0" d="m1211.5 1255.7h-142.8v245.8h-244.9v-245.8h-506.2v-174.4l520-765.7h231.1v745.4h142.8zm-387.7-194.6v-201.2q0-50.3 4-146q4.1-95.7 6.5-111.1h-6.5q-30 66.5-72.2 129.8l-217.3 328.5z" />
				</g>
				<g id="&lt;Group&gt;">
					<path id="&lt;Compound Path&gt;" fill-rule="evenodd" class="s0" d="m2126.4 908.6q0 310.6-101.8 459.9q-101.8 149.2-313.5 149.2q-205.2 0-309.4-154.1q-104.2-154.1-104.2-455q0-313.9 101.4-462.8q101.3-148.8 312.2-148.8q205.2 0 310.3 155.7q105 155.7 105 455.9zm-579.9 0q0 218.2 37.7 312.6q37.7 94.5 126.9 94.5q87.6 0 126.6-95.7q38.9-95.7 38.9-311.4q0-218.2-39.3-313.5q-39.4-95.3-126.2-95.3q-88.4 0-126.5 95.3q-38.1 95.3-38.1 313.5z" />
				</g>
				<g id="&lt;Group&gt;">
					<path id="&lt;Compound Path&gt;" fill-rule="evenodd" class="s0" d="m3107.9 1255.7h-142.8v245.8h-244.9v-245.8h-506.2v-174.4l520-765.7h231.1v745.4h142.8zm-387.7-194.6v-201.2q0-50.3 4-146q4.1-95.7 6.5-111.1h-6.5q-30 66.5-72.2 129.8l-217.3 328.5z" />
				</g>
			</g>
			<g id="&lt;Group&gt;">
				<path id="&lt;Path&gt;" class="s0" d="m3297.4 1922.3l-3163.8-1.2v-241c57.2-21.7 119-34.4 180.8-33.9c33.9 0.3 72.5 3.7 98-9.4c12.6-6.5 19.8-16.3 34-21.6c30.1-11.4 81.5 0.3 99.2-17.8c7.3-7.5 4.2-16.9-0.7-25.1c-24.9-41.3-94.5-72.3-169.9-75.5c51-11.8 111.8-7.9 157.2 9.9c-70.2-40.7-70.8-114.5-1.2-155.6c2.1 35.1 4.6 71.1 28.4 103.3c15.2 20.4 38.4 38.5 56.1 58.3c24.8 27.6 38.6 58.5 40.1 89.7c9.5-35.2 36.8-79.6 98.2-78.9c-18-38.4-51.1-74.4-96-104.4c48.9-0.4 97 16.6 118.6 42c-24.3-28.8-40.9-61.3-30.6-92.8c10.4-31.5 53.9-60.9 109.1-63.3c-57.9 35.9-57.3 91.8-39.7 139.8c17.7 48.1 48.9 96.1 39.8 145c23.2-9.7 42.7-22.3 56.7-36.7q14.4 19.2 28.8 38.4c24.9-24.9 21.4-58.3-8.6-81.2q22.3 2.8 44.5 5.6q-27.2-49-54.4-98c88.4 37.1 145.1 98.4 149.5 161.6c71.6-27.5 183.7 17.2 248.4-15.5c1.2-42.1-50.3-82.8-119.9-94.9c51-2.8 103.7 6.1 144.1 24.4q-61.9-50.3-123.7-100.5c67.5-2.1 120.2 34.8 142.5 71.7c22.3 37 26.9 77.7 59.5 111.9c2.8-22.1 20-43.5 47.5-58.9c6.5 27.8 59.3 42.2 104.8 51.6c53.9 11.2 109.9 22.6 166.8 19.3c51.3-3 98-17.7 147-26.7c49.1-9 107.4-11.5 147.7 7.1c-15.9-69.8 66.2-142.7 182.9-162.5c-43.1 38.4-72.9 81.7-87.4 126.7c43.5-15.3 100.8-2.1 140 16.7c11.8 5.7 25.4 12.3 40.5 10.7c14.7-1.5 23.4-10.1 30.2-17.7c51.1-57.6 102.7-126.6 51.7-184.2c48.3 0.5 65.8 37.2 64.2 65.2c-2.1 38.4-13.1 76.7-32.6 113.4c52-15.5 73.4-52.2 80-85.8c6.7-33.7 3.9-69 27.8-100c38.8 53.8 3.1 114.5-6 172.5c-0.9 6.2-1.2 13 5.7 17.7c6.1 4.1 15.9 5.4 25.1 5.9c77.3 4.7 159.6-24.7 229.7-5.2c17.9 5 38.8 12.9 55.2 6.5c9-3.5 12.5-10.1 14-16.3c8.1-34.7-31.6-71.2-89.2-81.8c37.3-4.8 78.6 3.1 103.7 19.7c-21.5-32.6-36.4-66.7-44.3-101.2c56.9 22.2 84.8 63.3 87.8 103c3 39.7-15.3 78.8-33.4 117.1c49.1-14 112.6-27.1 153.8-6.3c25.9-36.1 21.7-79-11-113.2c50.7 11.8 85.6 43.3 83.2 74.9q2.1-58 4.2-116.1c60.2 35.2 5.9 95 21.3 143.7c1.6 5.3 4.4 10.7 10.4 14.8c24 16 67.9-0.6 91.6-16.8c9.2 15.3 37.7 25.8 65.4 24.3c-15.7-14.4 15.8-28.8 0-43.2z" />
			</g>
			<g id="&lt;Group&gt;">
				<g id="&lt;Group&gt;">
					<path id="&lt;Path&gt;" class="s1" d="m306.9 1727.7q227.5-58.1 346.4-26.4c118.8 31.7 226.4 2.4 346.5 0c120.2-2.5 232.1-31.9 277.3-18.8c45.1 13.1 1070.7-45.4 1332.1 4.3c261.5 49.6 421.1 20.9 509.4 50.5q-419.7 15.2-561.4 50.3c-141.8 35-290.8-13.3-461.6 0c-170.8 13.2-129.3-42.3-374.9 5.9c-245.6 48.2-298.4 65.1-528.4 31.2c-230-34-199.4 20.4-348.8 0c-149.5-20.4-285.3-86.4-360-87.4q-74.7-0.9-176.6-9.6z" />
				</g>
				<g id="&lt;Group&gt;">
					<g id="&lt;Group&gt;">
						<path id="&lt;Path&gt;" class="s2" d="m2387.6 1628.2q-0.5 20.9-1 41.9c-0.5 16.7-0.8 33.7 4.6 49.5c-6.6 2-13 4.2-19.8 5.4c-14.1-28.5 9-73.4-1.6-106.2c-6.6-20.6-19.4-39-28.3-58.9c-29.4-65.4-15.3-141.8 13-210c28.3-68.3 70.1-132.3 98-200.7c-5.4 67.7 22.3 133.9 13.9 201.5c-5.3 43-24.9 84.2-45.7 124c-9 17.1-18.3 34.3-23.6 52.5c-5.5 18.4-6.7 37.3-7.7 56.1c-0.8 14.9-1.4 30-1.8 44.9z" />
					</g>
					<g id="&lt;Group&gt;">
						<path id="&lt;Path&gt;" class="s2" d="m2398.4 1719.7c17.9-11.4 25.8-30 25.6-48.5c-0.1-18.6-6.7-36.2-9.8-54.4c-7-41.5 4.5-85.1 25.4-124c20.9-39 50.7-74.1 81.7-107.7c-26.7 36.6-24.1 82.2-24 124.7c0.1 37.6-2.6 75.7-15.1 112.2c-6.8 19.8-52.5 111.4-83.8 97.7z" />
					</g>
					<g id="&lt;Group&gt;">
						<path id="&lt;Path&gt;" class="s2" d="m2524.8 1658.1c-20 10-28.7 22-44.3 35.3c-9.1 7.7-20 13.5-31.7 17.5c-9 3-27.7 2.1-34.6 6.1c40.7-23.7 83.3-49.3 105.3-87.6c9.4-16.4 14.7-34.8 27.3-49.6c26.5-31 75.1-36.6 116.7-48.4c44.4-12.6 85.5-35.1 118.4-64.9q-17.1 38-35 75.7c-8.1 17-16.8 34.5-32.2 47.2c-12.5 10.3-28.4 16.5-44.3 21.8c-48.2 15.9-100.1 24.3-145.6 46.9z" />
					</g>
					<g id="&lt;Group&gt;">
						<path id="&lt;Path&gt;" class="s2" d="m2507.7 1592.8c-16.1 18.4-37.7 33.6-48.6 54.6c-5.9-8.2-4.3-19.3 0.7-28.3c5-9.1 13-16.6 20.2-24.4c23.8-25.7 40.3-55.7 59.2-84.2c18.6-28.1 40.7-56 72.1-74.3c-18.9 21.7-37.4 42.1-51.7 66.6c-17.4 29.9-28.2 62.9-51.9 90z" />
					</g>
					<g id="&lt;Group&gt;">
						<path id="&lt;Path&gt;" class="s3" d="m2435.1 1314.5c1 20.6 1.3 41.5-4.7 61.8c-5 17.1-14.3 33.2-22.2 49.6c-21 43.4-32.7 89.9-34.3 136.2c-11.2-34.4-9.8-72.3 3.9-107.1c7.8-19.6 19.3-38.1 26.5-57.8c6.2-17 9.1-34.7 11.9-52.2c4.6-28.6 8.9-57.2 13.9-85.7c3.8 17.3 4.1 37 5 55.2z" />
					</g>
					<g id="&lt;Group&gt;">
						<path id="&lt;Path&gt;" class="s2" d="m2443.2 1680c14.8-25.3 9.3-70.9 11.7-98.4c2.9-32.9 6.7-66.1 18.2-98.1c-19.1 65 6.8 133.7-29.9 196.5z" />
					</g>
					<g id="&lt;Group&gt;">
						<path id="&lt;Path&gt;" class="s3" d="m2711.3 1525.3c-7.3 15.1-15 30.8-28.5 42.4c-15.5 13.3-36.8 19.5-56.6 26.8c-31.4 11.5-61.3 26.7-88.5 45.1c32.7-28.5 71.7-51.2 113.9-66.5c8.5-3.1 17.4-5.9 25-10.7c23.4-14.7 33.3-46 61-51.9" />
					</g>
					<g id="&lt;Group&gt;">
						<path id="&lt;Path&gt;" class="s0" d="m2618.3 1436.8c20.9 14.6 24 45.1 6.7 64.4c-1.7 1.9-3.7 3.8-6.1 4.9c-5.2 2.2-11.6 0.3-15.3-3.3c-3.7-3.6-5.2-8.5-6.1-13.4c-2.7-14.8-0.2-30.6 7.1-44.6c-12.2 12-33.4 15.9-49.1 9.1c-3.3-1.4-6.5-3.4-8.1-6.4c-1-2-1.2-4.3-1.1-6.6c0.7-11.9 11.1-23.2 24.2-26.6c13.1-3.4 28 1.5 34.8 11.5c-4-10.8-4.4-22.8-1-34.1c2.2-7.5 6.2-14.8 12.9-20.1c6.6-5.2 16.1-8 24.2-5.8c12.9 3.6 17.7 18.1 13.8 29.8c-3.9 11.7-14 21.1-23.8 30c17.3 0 34 7.9 42.9 20.5c1.1 1.5 2 3.1 2 4.8c-0.1 5.8-9.2 7.5-15.6 6.6c-14.7-2.1-28.6-7.8-39.6-16.3c-1-0.8-2.1-2-1.4-3.1c0.7-1.1 3 0.6 1.6 0.9" />
					</g>
					<g id="&lt;Group&gt;">
						<path id="&lt;Path&gt;" class="s2" d="m2619.1 1448c-7.8-1.9-13.9-8.9-12.2-16c1.6-7.2 12.5-12.1 18.8-7.8c2.4 1.6 3.9 4.1 4.5 6.7c1.6 6-1.4 13.4-8 15.9c-6.6 2.4-15.3-2.9-13.2-9" />
					</g>
				</g>
				<g id="&lt;Group&gt;">
					<g id="&lt;Group&gt;">
						<path id="&lt;Path&gt;" class="s2" d="m1098.1 1609.6c-2.2-21.4-4.5-42.9-11.1-63.3c-6.4-20.1-16.7-38.8-26.8-57.4c-23.2-43.3-45.3-88.2-53.3-136.6c-12.4-76.3 11.2-154.6 1.7-231.3c32.1 75.1 77.8 143.8 110.2 218.7c32.5 75 51.2 160.6 25.8 238.3c-7.7 23.5-19.3 45.8-24.8 70c-8.6 38.5 17.3 87.3 4.9 121.3c-6.8-0.8-13.4-2.6-20.1-4.2c4.5-18.5 3.1-37.9 1.6-56.9q-1.8-23.9-3.6-47.7c-1.2-16.9-2.8-34.1-4.5-50.9z" />
					</g>
					<g id="&lt;Group&gt;">
						<path id="&lt;Path&gt;" class="s2" d="m1007.7 1663.2c-14.8-40.3-19.8-83.5-22-126.4c-2.4-48.4-2.6-100.7-31.5-139.7c33.1 35.2 65 72 88.2 114.3c23.2 42.4 37.5 90.8 33 138.8c-2 21.1-7.5 41.9-6.6 63.1c1 21.1 10 41.6 28.6 52.6c-30.5 18.9-81.7-80.8-89.7-102.7z" />
					</g>
					<g id="&lt;Group&gt;">
						<path id="&lt;Path&gt;" class="s2" d="m818.8 1670.2c-16.2-4.3-32.5-9.8-45.6-20.2c-16.2-12.9-25.9-32-35-50.5q-20.3-41.1-39.7-82.7c34.7 30.5 77.2 52 122.4 61.8c42.3 9.2 91.2 10.5 119.6 43.2c13.5 15.6 19.9 35.9 30.4 53.7c24.2 41.4 68.4 66.2 110.5 89.1c-7.1-3.9-25.8-0.9-34.9-3.5c-12-3.4-23.2-8.8-32.8-16.7c-16.4-13.5-25.9-26.3-46.5-35.6c-46.8-21.1-99.2-25.4-148.4-38.6z" />
					</g>
					<g id="&lt;Group&gt;">
						<path id="&lt;Path&gt;" class="s4" d="m920 1535.6c-15.7-26.5-35.5-47.8-55.7-70.6c32.5 17.6 56.3 47.1 76.6 77.2c20.7 30.6 39 63.1 64.3 90c7.7 8.2 16.1 15.9 21.7 25.7c5.6 9.7 7.8 22.3 2.4 32.2c-12.1-22.9-34.7-37.9-51.9-57.2c-25.3-28.5-38.1-65-57.4-97.3z" />
					</g>
					<g id="&lt;Group&gt;">
						<path id="&lt;Path&gt;" class="s4" d="m1037.7 1244.2c6.7 32.1 12.8 64.2 19.1 96.3c3.9 19.7 7.9 39.6 15.1 58.3c8.4 21.8 21 41.7 30 63.2c15.9 38.2 19.6 81.4 10.4 121.8c-4.4-52.7-18.9-104.5-42.5-151.8c-9-17.9-19.2-35.3-25.3-54.3c-7.1-22.5-8.2-46.4-8.4-69.9c-0.2-20.9-1.1-43.4 1.6-63.6z" />
					</g>
					<g id="&lt;Group&gt;">
						<path id="&lt;Path&gt;" class="s3" d="m1008.3 1504.4c13.5 35.3 19.3 72.7 24.2 110c4.1 31 1.3 83.6 17.6 110.9c-40.4-67.8-18.7-148.8-41.8-220.9z" />
					</g>
					<g id="&lt;Group&gt;">
						<path id="&lt;Path&gt;" class="s3" d="m745.5 1562.3c28 4 39.8 38.6 64.2 53c7.9 4.6 16.9 7 25.6 9.6c43.1 13.1 83.5 35 117.9 64.1c-28.3-18.1-59.1-32.4-91.2-42.3c-20.3-6.3-41.9-11.2-58.3-24.8c-14.2-11.8-22.8-28.8-31-45.4" />
					</g>
					<g id="&lt;Group&gt;">
						<path id="&lt;Path&gt;" class="s4" d="m857.5 1468.9c-1.4-0.2 0.7-2.5 1.5-1.3c0.8 1.2-0.2 2.8-1.2 3.8c-10.5 10.8-24 18.7-38.6 22.6c-6.3 1.7-15.6 0.7-16-5.9c-0.2-2 0.7-3.9 1.6-5.6c8.3-15.3 24.4-26.1 41.7-27.9c-10.3-9.1-21-18.8-25.6-31.7c-4.6-12.9-0.7-30 12-35.4c8-3.4 17.7-1.2 24.6 4.1c6.9 5.3 11.4 13.3 14.1 21.6c4 12.5 4.4 26.2 1.1 38.9c6.2-12 20.7-19.1 34.1-16.7c13.3 2.5 24.3 14.5 25.7 27.9c0.3 2.6 0.3 5.3-0.7 7.7c-1.3 3.5-4.4 6.1-7.6 8.1c-15.3 9.3-36.8 7-49.7-5.3c8.2 15.2 11.6 32.9 9.8 50.1c-0.6 5.6-1.8 11.5-5.3 15.9c-3.5 4.5-9.7 7.3-15 5.3c-2.6-1-4.6-2.9-6.5-4.9c-18.5-20.2-17.1-55.3 2.8-74.1" />
					</g>
					<g id="&lt;Group&gt;">
						<path id="&lt;Path&gt;" class="s2" d="m869.7 1466.3c2.5 6.6-5.9 13.6-12.6 11.5c-6.8-2.1-10.2-10.3-9.1-17.2c0.5-3.1 1.8-6.1 4.1-8.2c6.1-5.5 17.3-1 19.4 7c2 7.9-3.6 16.5-11.3 19.5" />
					</g>
				</g>
				<g id="&lt;Group&gt;">
					<path id="&lt;Path&gt;" class="s5" d="m1298.3 1737.3c74.9-29.9 114.5-30.1 333.2-31.3c218.8-1.2 216.6 14.2 376.2 11.8c159.6-2.3 308.6 0 421.6-13.8q112.9-13.7 139.9 20.5c-79.1-12.8-99.2 28.8-205.8 27.7c-220.7-2.4-512.2-0.3-599.3 15.1c-87.2 15.4-154.9-17.3-300.9-17.3c-146 0-200.4 53.5-318.7 32.8c-118.3-20.6-277.6-0.9-251-12.5c103.3-45.3 329.9-3 404.8-33z" />
				</g>
				<g id="&lt;Group&gt;">
					<g id="&lt;Group&gt;">
						<path id="&lt;Path&gt;" class="s2" d="m2025.7 1734.7c-51.6 6.6-103.4 11.6-155.3 15c-6.7 0.4-13.7 0.8-20.2-1.4c-6.4-2.2-12.2-7.6-12.8-14.4c-0.8-10 9.5-17.3 19-20.6c11.1-3.9 22.8-5.6 33.7-9.7c11-4.1 21.6-11.4 25.6-22.4c8.5-23.5 3.4-35.9 33.1-38.7c15.3-1.5 48.1-8.1 62.1-0.5c18.2 9.9 42 89.3 14.8 92.7z" />
					</g>
					<g id="&lt;Group&gt;">
						<path id="&lt;Compound Path&gt;" fill-rule="evenodd" class="s5" d="m1862.3 1751c-4.1 0-8.3-0.4-12.4-1.8c-6.2-2.1-12.8-7.6-13.5-15.2c-0.9-10.6 9.6-18.1 19.7-21.7c5.2-1.8 10.7-3.2 16-4.5c5.9-1.4 12-2.9 17.7-5.1c7.4-2.8 20.4-9.3 25-21.9c1.9-5.2 3.1-9.9 4.2-14c3.7-14.4 5.9-23.1 29.7-25.3c3-0.3 6.6-0.8 10.8-1.3c17-2.2 40.3-5.3 51.8 1c15 8 31.3 56.7 26.9 80.1c-1.6 8.6-5.9 13.6-12.3 14.4c-51.4 6.6-103.7 11.6-155.4 14.9c-2.6 0.2-5.4 0.4-8.2 0.4zm128.5-111.6c-10.2 0-21.6 1.5-31 2.8c-4.2 0.5-7.9 1-10.9 1.3c-22.4 2.1-24.3 9.3-28 23.8c-1.1 4.2-2.3 8.9-4.3 14.2c-4.8 13.3-18.4 20.2-26.1 23.1c-5.8 2.1-12 3.7-17.9 5.1c-5.3 1.3-10.7 2.7-15.9 4.5c-8.9 3.1-19.1 10.2-18.3 19.7c0.6 6.6 6.5 11.5 12.2 13.5c6.4 2.1 13.5 1.7 19.8 1.3c51.6-3.4 103.9-8.4 155.2-15c5.6-0.7 9.2-5 10.7-12.8c4.5-23.9-12.9-71-25.9-78c-4.8-2.6-11.8-3.5-19.6-3.5z" />
					</g>
				</g>
				<g id="&lt;Group&gt;">
					<path id="&lt;Path&gt;" class="s5" d="m1394.8 1267.6l59.5-213.9l221.8-9.9l41.6 114.9l73.2 354.7l31.8 237.6q-241.7-55.5-495.2 0z" />
				</g>
				<g id="&lt;Group&gt;">
					<path id="&lt;Path&gt;" class="s4" d="m1585 1420.2l192.1 17.8l57.3 313.4l-267.2-24.2l-39.7-255.5z" />
				</g>
				<g id="&lt;Group&gt;">
					<g id="&lt;Group&gt;">
						<path id="&lt;Path&gt;" class="s0" d="m1525.9 1379.3c1.2 1.8 2.8 3.8 5 3.9c2.1 0.1 3.9-1.6 6.1-1.9c6.1-0.7 7.6 10.1 13.7 11.2c3.7 0.7 7.4-2.7 11.1-1.8c2 0.5 3.4 2.1 4.7 3.6q10.3 11.8 20 24.2c-11.9 25.6-38.1 43.9-66.2 46.1c-0.8-7.1-11.2-11.6-9.4-18.6c0.5-1.8 1.9-3.3 2.8-5.1c4.3-8.1-2.4-17.5-8.6-24.2q3-3.7 6-7.4q-28.8-39.6-57.5-79.2c8.6-7.5 15-16.6 22.3-25.1c17.3 24.2 33.3 49.5 50 74.3z" />
					</g>
					<g id="&lt;Group&gt;">
						<path id="&lt;Compound Path&gt;" fill-rule="evenodd" class="s6" d="m1519.4 1465.6l-0.1-0.9c-0.3-2.9-2.6-5.5-4.7-8c-2.8-3.2-5.8-6.6-4.6-10.9c0.3-1.4 1.1-2.5 1.8-3.6q0.6-0.9 1-1.7c3.2-6 0.4-13.6-8.4-23.1l-0.6-0.7l6-7.4l-57.6-79.3l0.7-0.6c6.1-5.4 11.3-11.7 16.2-17.8c2-2.4 4-4.9 6.1-7.3l0.8-0.9l0.7 1c11.2 15.7 22 32.1 32.5 48c5.7 8.6 11.6 17.6 17.5 26.3c1.2 1.8 2.5 3.4 4.2 3.5c0.9 0.1 1.9-0.4 2.9-0.8c0.9-0.5 1.9-0.9 3-1.1c3.9-0.5 6.1 2.7 8.2 5.8c1.7 2.4 3.4 5 5.9 5.4c1.6 0.3 3.2-0.3 4.9-0.9c2-0.7 4.1-1.4 6.2-0.9c2.2 0.6 3.8 2.2 5.3 3.9c6.8 7.9 13.6 16.1 19.9 24.3l0.4 0.5l-0.2 0.6c-12.1 26-38.4 44.3-67 46.6zm-13-49c9 10 11.6 18.1 8.1 24.7c-0.3 0.7-0.7 1.3-1.1 1.8c-0.6 1.1-1.3 2-1.6 3.1c-0.8 3.3 1.6 6.1 4.2 9.1c2.2 2.5 4.4 5 5.1 8.1c27.3-2.5 52.4-20 64.2-44.8c-6.3-8.1-12.9-16-19.6-23.8c-1.3-1.5-2.6-2.8-4.2-3.2c-1.6-0.4-3.3 0.2-5.1 0.8c-1.9 0.7-3.8 1.4-5.9 1c-3.3-0.6-5.3-3.5-7.2-6.2c-1.9-2.9-3.6-5.3-6.3-5c-0.8 0.1-1.6 0.5-2.4 0.9c-1.2 0.5-2.4 1.1-3.8 1c-2.6-0.1-4.3-2.1-5.8-4.3c-5.9-8.8-11.8-17.7-17.5-26.4c-10.2-15.5-20.8-31.5-31.7-46.9q-2.6 3.1-5.2 6.3c-4.8 5.9-9.8 12-15.8 17.4l57.5 79.1z" />
					</g>
				</g>
				<g id="&lt;Group&gt;">
					<path id="&lt;Path&gt;" class="s3" d="m1585.8 1420.5c-3.8 24.7-24.7 45.8-49.4 49.8c-3.1 0.5-6.2 0.4-9.2-0.3c-19.5-4.3 59.8-57.4 58.6-49.5z" />
					<path id="&lt;Compound Path&gt;" fill-rule="evenodd" class="s6" d="m1532.7 1471.6q-2.8 0-5.7-0.6c-4-0.9-4.1-3.5-3.8-5c1.6-8 21.2-22.8 29.6-28.9c13.1-9.4 29-19.1 32.6-18.4c1 0.2 1.5 0.9 1.4 1.9c-3.9 25.3-25.1 46.6-50.3 50.7q-1.8 0.3-3.8 0.3zm52.1-51c-4.8 0.3-37.5 20.6-53.1 36.5c-6.4 6.6-6.8 9.4-6.5 10.5c0.1 0.2 0.3 1 2.2 1.4c3 0.7 6 0.8 8.8 0.4c24.3-4 44.7-24.5 48.6-48.8zm0-0.3l1 0.2l-1-0.2q0 0 0 0z" />
				</g>
				<g id="&lt;Group&gt;">
					<g id="&lt;Group&gt;">
						<path id="&lt;Path&gt;" class="s0" d="m1421.7 1107.1c3.1-16.1-2.2-37.8 19.5-36.4q16.1 1.1 32.3 2.2c-9.5 57.2-24.8 113.5-45.5 167.8c-0.9 2.2-1.8 4.5-3.8 5.8c-2 1.3-4.6 1.2-7.1 1.1q-13.4-0.8-26.7-1.6c-1.7-27.1 8.5-53.4 16.6-79.3c6-19.6 11-39.5 14.7-59.6z" />
					</g>
					<g id="&lt;Group&gt;">
						<path id="&lt;Compound Path&gt;" fill-rule="evenodd" class="s6" d="m1419.3 1248.7q-1.2-0.1-2.2-0.1l-27.7-1.7v-0.8c-1.5-23.4 5.9-46.3 13-68.4q1.9-5.7 3.6-11.3c6.1-19.4 11-39.5 14.8-59.5c0.7-3.7 0.9-7.7 1.2-11.6c0.5-9 1-17.5 6.4-22.2c3-2.6 7.2-3.7 12.9-3.4l33.3 2.3l-0.1 1c-9.5 57.3-24.8 113.8-45.6 168c-0.8 2-1.8 4.8-4.1 6.3c-1.7 1.1-3.7 1.4-5.5 1.4zm-28-3.6l25.9 1.5c2.5 0.1 4.8 0.2 6.5-0.9c1.6-1.1 2.5-3.1 3.4-5.4c20.5-53.7 35.8-109.8 45.2-166.5l-31.1-2.1c-5.1-0.3-8.9 0.6-11.5 2.9c-4.7 4.2-5.2 12.2-5.8 20.8c-0.2 4-0.5 8.1-1.2 11.9c-3.7 20.1-8.7 40.2-14.8 59.7q-1.7 5.6-3.6 11.3c-7 21.6-14.2 44-13 66.8z" />
					</g>
				</g>
				<g id="&lt;Group&gt;">
					<g id="&lt;Group&gt;">
						<path id="&lt;Path&gt;" class="s2" d="m1409.6 1345.9c-5.1 25.3-9.1 62.3-23.2 84.2c-5.1 7.8-5 7.5-15 6.4c-4.6-0.5-9.5-0.7-13.9-2.5c-8-3.4-12.2-8.1-13.3-16.8c-3.3-24.9 10.1-59.4 15.4-83.8q9.4-43.3 20.9-86c0.7-2.5 1.5-5.3 3.7-6.7c1.8-1.2 4.1-1.3 6.3-1.3q14 0 28.1 0c1.7 0 3.5 0 4.9 1c2.5 1.7 2.3 5.4 1.9 8.4c-4.6 32.5-9.2 65-15.8 97.1z" />
					</g>
					<g id="&lt;Group&gt;">
						<path id="&lt;Compound Path&gt;" fill-rule="evenodd" class="s6" d="m1378 1438.1c-1.5 0-3.3-0.2-5.7-0.5l-3.1-0.3c-4-0.4-8.2-0.8-12-2.4c-8.7-3.6-12.9-8.9-14-17.6c-2.4-18.3 4.1-41.7 9.8-62.3c2.2-7.8 4.2-15.2 5.6-21.9c6.3-28.6 13.3-57.5 21-85.9c0.7-2.9 1.7-5.7 4.1-7.4c2.1-1.4 4.7-1.4 6.8-1.4h28.1c1.6 0 3.8 0 5.4 1.2c3 2 2.8 6.1 2.4 9.3c-4.6 31.9-9.2 64.9-15.8 97.2c-1.1 5.1-2 10.7-3.1 16.6c-4.2 23.6-8.9 50.3-20.3 68c-3.8 5.8-5 7.4-9.2 7.4zm40.7-197.7q-0.1 0-0.1 0h-28.1c-1.9 0-4.1 0-5.7 1.1c-1.9 1.2-2.6 3.6-3.3 6.2c-7.6 28.3-14.7 57.2-20.9 85.9c-1.5 6.7-3.5 14.1-5.7 21.9c-5.7 20.5-12.1 43.7-9.8 61.6c1.1 8 4.8 12.6 12.8 16c3.6 1.4 7.6 1.9 11.5 2.2l3.1 0.4c8.5 0.9 8.5 0.9 13-6.1c11.2-17.4 15.9-43.9 20.1-67.2c1-6 2-11.5 3-16.7c6.6-32.2 11.3-65.2 15.8-97c0.4-2.8 0.6-6.1-1.5-7.5c-1.1-0.8-2.6-0.8-4.2-0.8z" />
					</g>
				</g>
				<g id="&lt;Group&gt;">
					<path id="&lt;Path&gt;" class="s2" d="m1486.5 1257.7c2.3-17.4-2.1-35.7-0.5-53.4c2.2-24.9 7.5-49.3 14.5-73.2c7.1-23.8 16.1-47 25.9-69.8c2.8-6.4 26.8-66.8 31.1-66.3c32.3 4.1 64.2 10.5 95.6 18.9c-23.9 81-87.6 144.5-118.8 222.9c-5.3 13.1-9.6 26.8-10.9 40.8c-1.1 11.6-0.1 23.2-0.2 34.7c-0.2 18.1-3.1 36-6 53.8c-8 1.4-13.1-8.9-12.9-17.1c0.2-8.2 2.6-17.2-2-24q-10.9 12.8-21 26.1c-3.5 4.5-7 9.4-7.9 15c-1.7 10.6 5.9 22.2 0.5 31.4c-8-2.8-14.3-10.4-15.5-18.9c-0.5-3-0.4-6.2-1.3-9.1c-1.3-4-4.4-7.1-6-10.9c-1.7-3.8-1.2-9.3 2.7-10.8c-9.6-5.9-10-20.2-4.8-30.2c11.1-21.5 34.1-33.7 37.5-59.9z" />
					<path id="&lt;Compound Path&gt;" fill-rule="evenodd" class="s6" d="m1474.4 1398.7l-0.8-0.2c-8.4-3-14.9-10.9-16.2-19.7c-0.2-1.1-0.3-2.2-0.4-3.3c-0.1-2-0.3-3.9-0.8-5.7c-0.7-2.1-1.9-3.9-3.2-5.9c-1-1.5-2.1-3.1-2.9-4.9c-1.2-2.7-1.3-6.1-0.2-8.6q0.7-1.7 2-2.7c-8.7-6.7-8.9-20.7-3.8-30.5c4.4-8.5 10.5-15.5 16.5-22.3c9.7-11.1 18.8-21.5 20.9-37.3c1.2-9.1 0.6-18.6-0.1-27.9c-0.5-8.4-1.1-17.1-0.4-25.5c2.1-23.4 6.9-47.4 14.6-73.4c6.4-21.5 14.8-44.3 25.9-69.9c0.4-0.9 1.3-3.1 2.5-6c21-51.1 27-61.2 29.7-60.8c32.1 4.1 64.3 10.4 95.6 18.8l1 0.3l-0.3 1c-13.1 44.5-38.7 84.4-63.4 123c-20.3 31.8-41.3 64.6-55.4 100c-6.3 15.7-9.7 28.6-10.8 40.5c-0.7 7.5-0.5 15.1-0.4 22.4c0.1 4 0.2 8.2 0.2 12.2c-0.2 18.2-3.2 36.4-6 53.9l-0.1 0.7l-0.7 0.1c-2.9 0.5-5.6-0.3-7.9-2.3c-3.8-3.2-6.3-9.7-6.2-15.7c0.1-2 0.2-4 0.4-5.9c0.5-5.7 1-11.7-1.6-16.4c-6.9 8.1-13.6 16.5-20.1 25c-3.5 4.7-6.8 9.3-7.7 14.6c-0.6 4.2 0.3 8.8 1.2 13.2c1.3 6.3 2.6 12.9-0.7 18.5zm83-402.7c-2.4 1-11.7 21.1-27.5 59.6c-1.3 3-2.2 5.2-2.6 6.1c-11 25.5-19.4 48.3-25.8 69.7c-7.7 25.8-12.4 49.7-14.5 72.9c-0.7 8.3-0.1 16.9 0.4 25.3c0.7 9.3 1.3 19 0.1 28.2c-2.2 16.4-11.9 27.6-21.4 38.4c-5.9 6.7-12 13.7-16.2 21.9c-5 9.5-4.7 23.2 4.4 28.8l1.7 1.1l-1.9 0.7q-1.6 0.7-2.4 2.5c-0.8 2-0.7 4.7 0.3 7c0.7 1.6 1.6 3.1 2.7 4.6c1.3 2 2.6 4 3.4 6.4c0.6 2 0.8 4.1 0.9 6.1c0.1 1.1 0.2 2.1 0.4 3.2c1.1 7.8 6.8 14.9 14.1 17.8c2.4-4.9 1.3-10.5 0.1-16.4c-1-4.6-1.9-9.3-1.2-13.9c0.9-5.8 4.3-10.6 8.1-15.6c6.7-8.8 13.8-17.6 21-26l0.9-1l0.7 1.1c3.7 5.4 3.1 12.2 2.6 18.7c-0.2 2-0.3 3.9-0.4 5.8c-0.1 5.5 2.1 11.3 5.5 14.2q2.5 2.2 5.6 2c2.8-17.3 5.6-35.1 5.8-52.9c0.1-4 0-8.2-0.1-12.2c-0.2-7.4-0.4-15 0.3-22.6c1.2-12.1 4.6-25.2 11-41.1c14.1-35.5 35.2-68.4 55.6-100.3c24.4-38.2 49.7-77.6 62.8-121.5c-30.9-8.3-62.6-14.5-94.4-18.6z" />
				</g>
				<g id="&lt;Group&gt;">
					<path id="&lt;Path&gt;" class="s3" d="m1552 983.3c-3.1-11.2 0.2-23.4 5.7-33.6c3.8-7.2 11.6-14.8 19-11.5c5.2-18.3 12.8-35.8 20.5-53.3c25.7-58.8 53-119.8 102-161.4q53.3 43.8 106.7 87.6c-57 38.2-94.2 98.7-129.6 157.4c-1.9 3.2-3.9 6.5-4.4 10.2c-0.4 3.5 0.6 6.9 1 10.3c1.6 12.3-3.8 25.2-13.5 32.8c-1.2 0.9-28.4-11.1-32-12.1c-11.3-3-23.2-5.1-34.9-5.6c-16.7-0.7-35-0.8-40.5-20.8z" />
					<path id="&lt;Compound Path&gt;" fill-rule="evenodd" class="s6" d="m1659.2 1022.8c-1.6 0-5.9-1.6-20.6-7.6c-5.2-2.1-10.1-4.2-11.5-4.5c-12.3-3.3-23.9-5.2-34.6-5.6l-1.5-0.1c-16.1-0.6-34.4-1.3-40-21.5c-3.5-12.8 1.2-25.7 5.8-34.3c4.1-7.7 11.8-14.6 19.3-12.3c5.2-18 12.8-35.5 20.2-52.4c24.4-55.8 52.2-119.2 102.3-161.7l0.6-0.6l108.3 89l-1.1 0.7c-57.8 38.8-95.8 101.6-129.3 157.1c-1.7 2.9-3.7 6.3-4.2 9.8c-0.3 2.4 0.1 4.8 0.6 7.3q0.2 1.4 0.4 2.8c1.6 12.6-3.9 25.8-13.9 33.6c-0.2 0.2-0.4 0.3-0.8 0.3zm-86.2-84.4c-5.6 0-11.2 5.6-14.5 11.7c-4.4 8.3-8.9 20.7-5.6 32.9c5.2 18.8 22 19.4 38.2 20.1h1.4c10.9 0.4 22.7 2.3 35.2 5.7c1.4 0.4 6.1 2.3 11.6 4.5c7.1 2.9 17.7 7.3 19.7 7.5c9.4-7.4 14.4-19.8 12.9-31.7q-0.2-1.3-0.4-2.7c-0.4-2.5-0.9-5.1-0.5-7.8c0.4-4 2.6-7.5 4.5-10.6c33.3-55.3 71.2-117.9 128.7-157l-105-86.2c-49.4 42.3-76.8 105.1-101.1 160.5c-7.5 17.2-15.3 34.9-20.4 53.2l-0.3 1.1l-1.1-0.5q-1.6-0.7-3.3-0.7z" />
				</g>
				<g id="&lt;Group&gt;">
					<g id="&lt;Group&gt;">
						<path id="&lt;Path&gt;" class="s0" d="m1332.2 1469.6c3.4-12.9 6-46.4 15.9-55.3c9-8.1 36.6-1.4 47.6-0.9c-3.9 69.5-21.3 138.2-50.7 201.3c-13 2.3-26.6 0.8-38.9-4.1c-2-0.9-4.1-1.8-5.6-3.5c-3.4-3.9-2.3-9.9-0.9-14.9q16.3-61.3 32.6-122.6z" />
					</g>
					<g id="&lt;Group&gt;">
						<path id="&lt;Compound Path&gt;" fill-rule="evenodd" class="s6" d="m1333 1622.7c-9.3 0-18.7-1.8-27.2-5.2c-2-0.8-4.3-1.9-6-3.7c-3.6-4.2-2.7-10.1-1.2-15.9l32.6-122.5c1-3.5 1.8-8.6 2.8-14.4c2.7-15.5 6-34.7 13.4-41.4c7.2-6.4 24.9-4.1 37.9-2.4c4.2 0.6 7.8 1.1 10.5 1.2h1l-0.1 1c-3.9 69.2-21.5 139-50.9 201.7l-0.2 0.5l-0.5 0.1c-3.9 0.7-8 1-12.1 1zm-32.5-24.3c-1.4 5.3-2.2 10.6 0.8 14c1.4 1.6 3.4 2.5 5.2 3.2c11.8 4.8 25.2 6.3 37.8 4.2c28.9-62.1 46.3-131.1 50.4-199.5c-2.6-0.2-5.9-0.6-9.7-1.1c-12.5-1.7-29.8-3.9-36.2 1.9c-7 6.2-10.4 25.9-12.8 40.3c-1 5.8-1.9 10.9-2.9 14.5z" />
					</g>
				</g>
				<g id="&lt;Group&gt;">
					<g id="&lt;Group&gt;">
						<path id="&lt;Path&gt;" class="s2" d="m1281.8 1745.6c-8.5-8.8-3.2-26-2-36.5c1.1-9.4 11.2-110.3 13.1-110.3c19.7-2.7 40-0.3 58.6 6.8c-3.7 48.7-12.2 96.9-25.5 143.9c-11.7 2.3-34.7 6.1-44.2-3.9z" />
					</g>
					<g id="&lt;Group&gt;">
						<path id="&lt;Compound Path&gt;" fill-rule="evenodd" class="s2" d="m1303 1753.2c-10.3 0-17.6-2.3-21.9-6.9c-7.2-7.5-5-20.4-3.3-30.8c0.4-2.4 0.8-4.6 1-6.5c0.3-2 0.9-7.9 1.7-16c10-95.2 10.8-95.2 12.4-95.2c19.8-2.7 40.2-0.3 58.9 6.9l0.7 0.3v0.7c-3.7 48.6-12.3 97.1-25.5 144l-0.2 0.6l-0.6 0.1q-13.5 2.8-23.2 2.8zm-9.5-153.5c-1.8 5.8-8.2 67-11 93.5c-0.8 8.1-1.5 14.1-1.7 16c-0.2 2-0.6 4.2-1 6.6c-1.7 10-3.8 22.3 2.7 29.2c6.5 6.7 20.8 8 42.7 3.6c13.1-46.4 21.5-94.3 25.2-142.3c-18.1-6.8-37.7-9.1-56.9-6.6zm-0.3 0q-0.1 0-0.2 0q0.1 0 0.2 0z" />
					</g>
				</g>
				<g id="&lt;Group&gt;">
					<g id="&lt;Group&gt;">
						<path id="&lt;Path&gt;" class="s0" d="m1741.7 1166.7c8.1 25.9 18.3 52.2 16.6 79.3q-13.3 0.8-26.7 1.6c-2.5 0.1-5.1 0.2-7.1-1.1c-2-1.3-3-3.6-3.8-5.8c-20.7-54.3-36-110.6-45.5-167.8q16.1-1.1 32.3-2.2c21.7-1.4 16.4 20.3 19.4 36.4c3.8 20.1 8.7 40 14.8 59.6z" />
					</g>
					<g id="&lt;Group&gt;">
						<path id="&lt;Compound Path&gt;" fill-rule="evenodd" class="s6" d="m1729.4 1248.7c-1.8 0-3.8-0.3-5.5-1.4c-2.3-1.5-3.4-4.3-4.1-6.3c-20.8-54.2-36.1-110.7-45.6-168l-0.1-1l33.3-2.3c5.7-0.3 9.9 0.8 12.9 3.4c5.3 4.7 5.9 13.2 6.4 22.2c0.3 3.9 0.5 7.9 1.2 11.6c3.8 20 8.7 40.1 14.8 59.5q1.7 5.6 3.6 11.3c7.1 22.1 14.5 45 13 68.4v0.8l-27.7 1.7q-1 0-2.2 0.1zm-53-174.9c9.4 56.7 24.7 112.8 45.2 166.5c0.9 2.3 1.8 4.3 3.4 5.4c1.7 1.1 4 1 6.5 0.9l25.9-1.5c1.2-22.8-6-45.2-13-66.8q-1.9-5.7-3.6-11.3c-6.1-19.5-11.1-39.6-14.8-59.7c-0.7-3.8-1-7.9-1.2-11.9c-0.6-8.6-1.1-16.6-5.8-20.8c-2.6-2.3-6.4-3.2-11.5-2.9z" />
					</g>
				</g>
				<g id="&lt;Group&gt;">
					<g id="&lt;Group&gt;">
						<path id="&lt;Path&gt;" class="s2" d="m1723.3 1248.8c-0.4-3-0.6-6.7 1.9-8.4c1.4-1 3.2-1 4.9-1q14.1 0 28.1 0c2.2 0 4.5 0.1 6.3 1.3c2.2 1.4 3 4.2 3.7 6.7q11.4 42.7 20.9 86c5.3 24.4 18.7 58.9 15.4 83.8c-1.1 8.7-5.4 13.4-13.4 16.8c-4.3 1.8-9.2 2-13.8 2.5c-10 1.1-9.9 1.4-15-6.4c-14.1-21.9-18.1-58.9-23.2-84.2c-6.6-32.1-11.2-64.6-15.8-97.1z" />
					</g>
					<g id="&lt;Group&gt;">
						<path id="&lt;Compound Path&gt;" fill-rule="evenodd" class="s2" d="m1770.7 1438.1c-4.3 0-5.4-1.6-9.2-7.4c-11.4-17.7-16.1-44.4-20.3-68c-1.1-5.9-2-11.5-3.1-16.6c-6.6-32.3-11.2-65.3-15.8-97.2c-0.4-3.2-0.6-7.3 2.3-9.3c1.7-1.2 3.9-1.2 5.5-1.2h28.1c2.1 0 4.7 0 6.8 1.4c2.4 1.7 3.4 4.5 4.1 7.4c7.7 28.4 14.7 57.3 20.9 85.9c1.5 6.7 3.5 14.1 5.7 21.9c5.7 20.6 12.2 44 9.8 62.3c-1.1 8.7-5.3 14-14 17.6c-3.8 1.6-8 2-12.1 2.4l-3 0.3c-2.4 0.3-4.2 0.5-5.7 0.5zm-46.4-189.4c4.5 31.8 9.2 64.8 15.8 97c1 5.2 2 10.8 3 16.7c4.2 23.3 8.9 49.8 20.1 67.2c4.5 7 4.5 7 13 6.1l3.1-0.4c3.9-0.3 7.9-0.8 11.5-2.2c8-3.4 11.7-8 12.8-16c2.3-17.9-4.1-41.1-9.8-61.6c-2.2-7.8-4.2-15.2-5.7-21.9c-6.2-28.7-13.3-57.6-20.9-85.9c-0.7-2.6-1.4-5-3.3-6.2c-1.6-1.1-3.9-1.1-5.7-1.1h-28.1q0 0-0.1 0c-1.7 0-3.1 0-4.2 0.8c-2.1 1.4-1.9 4.7-1.5 7.5z" />
					</g>
				</g>
				<g id="&lt;Group&gt;">
					<g id="&lt;Group&gt;">
						<path id="&lt;Path&gt;" class="s0" d="m1849.1 1598.2c1.4 5 2.5 11-1 14.9c-1.4 1.7-3.5 2.6-5.6 3.5c-12.2 4.9-25.8 6.4-38.8 4.1c-29.4-63.1-46.8-131.8-50.7-201.3c11-0.5 38.6-7.2 47.6 0.9c9.9 8.9 12.5 42.4 15.9 55.3q16.3 61.3 32.6 122.6z" />
					</g>
					<g id="&lt;Group&gt;">
						<path id="&lt;Compound Path&gt;" fill-rule="evenodd" class="s2" d="m1815.8 1622.8q-6.1 0-12.2-1.1l-0.5-0.1l-0.3-0.5c-29.3-62.7-46.9-132.5-50.8-201.7l-0.1-1h1c2.7-0.1 6.3-0.6 10.5-1.2c13-1.7 30.7-4 37.9 2.4c7.4 6.7 10.7 25.9 13.4 41.4c1 5.8 1.8 10.9 2.8 14.4l32.6 122.5c1.4 5.5 2.4 11.7-1.2 15.9c-1.7 1.8-4 2.9-6 3.7c-8.6 3.5-17.8 5.3-27.1 5.3zm-11.4-3c12.6 2.1 26 0.6 37.8-4.2c1.8-0.7 3.8-1.6 5.2-3.2c3-3.4 2.2-8.7 0.8-14l-32.6-122.5c-1-3.6-1.9-8.7-2.9-14.5c-2.4-14.4-5.8-34.1-12.8-40.3c-6.4-5.8-23.7-3.6-36.2-1.9c-3.8 0.5-7.1 0.9-9.7 1.1c4 68.4 21.5 137.4 50.4 199.5z" />
					</g>
				</g>
				<g id="&lt;Group&gt;">
					<g id="&lt;Group&gt;">
						<path id="&lt;Path&gt;" class="s2" d="m1822.7 1749.5c-13.3-47-21.8-95.2-25.5-143.9c18.6-7.1 38.9-9.5 58.6-6.8c1.9 0 12 100.9 13.1 110.3c1.2 10.5 6.5 27.7-2 36.5c-9.5 10-32.5 6.2-44.2 3.9z" />
					</g>
					<g id="&lt;Group&gt;">
						<path id="&lt;Compound Path&gt;" fill-rule="evenodd" class="s2" d="m1845.7 1753.2q-9.7 0-23.2-2.8l-0.6-0.1l-0.2-0.6c-13.2-46.9-21.8-95.4-25.5-144v-0.7l0.7-0.3c18.7-7.2 39.1-9.6 59-6.9c1.5 0 2.3 0 12.3 95.2c0.8 8.1 1.4 14 1.7 16c0.2 1.9 0.6 4.1 1 6.5c1.7 10.4 3.9 23.3-3.3 30.8c-4.3 4.6-11.6 6.9-21.9 6.9zm-22.3-4.6c22 4.4 36.3 3.1 42.8-3.6c6.5-6.9 4.4-19.2 2.7-29.2c-0.4-2.4-0.8-4.6-1-6.6c-0.2-1.9-0.9-7.8-1.7-16c-2.8-26.5-9.2-87.8-11-93.5c-19.3-2.5-38.9-0.2-56.9 6.6c3.6 48 12.1 95.9 25.1 142.3zm32.2-148.9q0.1 0.1 0.2 0.1q-0.1-0.1-0.2-0.1z" />
					</g>
				</g>
				<g id="&lt;Group&gt;">
					<g id="&lt;Group&gt;">
						<path id="&lt;Path&gt;" class="s0" d="m1330.6 965.8c-1.1-7.2 30.6-5.9 46.1-7.6c1.6-0.1 3.2-0.3 4.6 0.5c1.1 0.7 1.8 1.9 2.4 3.1q2.7 5 5.4 10c1 1.8 2 3.6 2.2 5.6c0.2 2.6-0.9 5-1.9 7.4c-2.5 5.4-5.5 11.4-11.1 13.3c-2.6 0.9-5.4 0.7-8.2 0.6c-7.2-0.4-33.8 2.6-39.3-2.1c-3.2-2.7 0.2-30.8-0.2-30.8z" />
					</g>
					<g id="&lt;Group&gt;">
						<path id="&lt;Compound Path&gt;" fill-rule="evenodd" class="s6" d="m1347.7 1000.3c-7.7 0-14.8-0.6-17.5-2.9c-2.3-2-2-11.8-0.8-27.1c0.1-1.9 0.3-3.6 0.3-4.2l-0.1-0.1c-0.1-1 0.1-1.9 0.8-2.6c3.2-4 17.4-4.6 31.2-5.2c5.6-0.3 10.9-0.5 15-0.9c1.8-0.2 3.6-0.3 5.2 0.6c1.4 0.8 2.2 2.3 2.8 3.4l5.4 10c1 1.8 2 3.8 2.2 6.1c0.3 2.8-0.9 5.6-1.9 7.8c-2.7 5.9-5.8 11.8-11.7 13.8c-2.8 1-5.8 0.8-8.5 0.7c-1.9-0.1-5.3 0-9.2 0.2c-4.1 0.2-8.7 0.4-13.2 0.4zm-16.1-34.8c0.1 0.4 0 1.4-0.3 5c-0.4 5.8-1.8 23.7 0.2 25.4c3.7 3.1 19.1 2.5 29.3 2c4-0.1 7.4-0.3 9.4-0.2c2.6 0.1 5.3 0.3 7.7-0.6c5.2-1.7 8.1-7.2 10.6-12.7c0.9-2.1 2-4.5 1.8-6.9c-0.2-1.8-1.2-3.7-2-5.3l-5.4-9.9c-0.6-1-1.2-2.2-2.1-2.7c-1.1-0.6-2.5-0.5-4-0.4c-4.2 0.5-9.5 0.7-15.1 1c-12.1 0.5-27.1 1.1-29.8 4.4q-0.3 0.4-0.3 0.9z" />
					</g>
				</g>
				<g id="&lt;Group&gt;">
					<g id="&lt;Group&gt;">
						<path id="&lt;Path&gt;" class="s2" d="m1336.5 914.8c11.8-9.7 42.1-11.6 49.8 4.3c2.4 5 2 10.9 1.7 16.4q-0.8 12-1.6 23.9c-13.4 3.5-27.4 5.3-41.3 5.1c-3.3 0-6.7-0.2-9.4-1.9c-11.4-7.2-8.9-39.8 0.8-47.8z" />
					</g>
					<g id="&lt;Group&gt;">
						<path id="&lt;Compound Path&gt;" fill-rule="evenodd" class="s2" d="m1346.6 965.5q-0.7 0-1.5 0c-3.4 0-7-0.2-10-2.1c-4.5-2.8-7.3-9.5-7.8-18.7c-0.7-10.9 2.1-25.3 8.6-30.7c7.7-6.4 23.1-9.3 35-6.7c7.9 1.8 13.5 5.7 16.2 11.4c2.6 5.4 2.2 11.7 1.9 16.9l-1.6 24.6l-0.7 0.2c-13.1 3.4-26.6 5.1-40.1 5.1zm-10.4-3.8c2.5 1.6 5.8 1.8 8.9 1.8c13.6 0.2 27.2-1.5 40.4-4.9l1.5-23.2c0.3-5.1 0.7-11-1.6-15.9c-3.1-6.4-9.9-9.1-14.9-10.2c-11.4-2.6-26 0.2-33.4 6.3c-5.1 4.2-8.6 17-7.9 29c0.6 8.4 3.1 14.7 7 17.1z" />
					</g>
				</g>
				<g id="&lt;Group&gt;">
					<g id="&lt;Group&gt;">
						<path id="&lt;Path&gt;" class="s2" d="m1726.3 962.9c0-1 0-2 0.6-2.8c0.8-1.2 2.5-1.4 3.9-1.5q27-1.7 54-3.4c1.4 0 2.9-0.1 4.1 0.7c1.9 1.2 2.1 3.8 2 6.1q-0.4 22.7-0.8 45.4q-15.1 0.6-30.2 1.2c-6.2 0.2-23.1 4-28.3 1c-9.5-5.4-5.3-36.3-5.3-46.7z" />
					</g>
					<g id="&lt;Group&gt;">
						<path id="&lt;Compound Path&gt;" fill-rule="evenodd" class="s2" d="m1738.3 1011.7c-3 0-5.6-0.3-7.2-1.3c-8.1-4.6-6.9-25.5-6.2-39.3c0.2-3.3 0.4-6.2 0.4-8.2c0-1 0-2.3 0.8-3.4c1.2-1.7 3.4-1.8 4.6-1.9l54-3.3c1.4-0.1 3.2-0.2 4.7 0.7c2.3 1.5 2.6 4.4 2.5 7l-0.8 46.4l-31.2 1.2c-1.7 0-4.3 0.4-7.3 0.8c-4.6 0.6-9.9 1.3-14.3 1.3zm-11-48.8c0 2.1-0.2 5-0.4 8.3c-0.7 12.5-1.9 33.5 5.1 37.5c3.5 2 13.2 0.7 20.3-0.3c3.1-0.4 5.7-0.7 7.5-0.8l29.4-1.1l0.7-44.5c0.1-2.1-0.1-4.4-1.5-5.3c-0.9-0.6-2.1-0.6-3.5-0.5l-54.1 3.4c-1.2 0.1-2.5 0.2-3.1 1c-0.4 0.6-0.4 1.4-0.4 2.3z" />
					</g>
				</g>
				<g id="&lt;Group&gt;">
					<g id="&lt;Group&gt;">
						<path id="&lt;Path&gt;" class="s0" d="m1724.5 910.2c6.4-8.5 42.5-1.8 51.9-0.4c2.3 0.4 4.8 1 5.8 3.1c0.5 1.1 0.4 2.4 0.3 3.6c-0.6 7.8 0.4 15.7 2.7 23.1c2.4 7.2 5.7 16 0.5 21.4c-4.2 4.4-11.3 3.5-17.4 2.6c-13.4-2.2-27.1-2.7-40.7-1.6c-0.7-9.8-8.8-44.2-3.1-51.8z" />
					</g>
					<g id="&lt;Group&gt;">
						<path id="&lt;Compound Path&gt;" fill-rule="evenodd" class="s6" d="m1776.1 965.3c-2.8 0-5.6-0.4-7.9-0.8c-13.4-2.1-27-2.6-40.5-1.5h-1l-0.1-1c-0.2-2.5-0.9-7-1.7-12.1c-2.4-14.5-5.7-34.4-1.2-40.3c5.5-7.3 29.6-4.5 50-1.2q1.7 0.3 2.9 0.5c2.4 0.3 5.3 1.1 6.5 3.5c0.6 1.4 0.5 2.8 0.4 4.1c-0.6 7.7 0.4 15.6 2.7 22.8l0.4 1.4c2.3 6.9 5.1 15.5-0.2 21c-2.7 2.9-6.5 3.6-10.3 3.6zm-34.8-4.9c9.1 0 18.2 0.8 27.2 2.2c6.6 1 12.8 1.6 16.5-2.3c4.4-4.6 1.9-12.3-0.3-19l-0.4-1.4c-2.4-7.5-3.4-15.6-2.8-23.4c0.1-1.3 0.2-2.4-0.2-3.2c-0.8-1.6-3-2.2-5-2.5q-1.2-0.2-2.9-0.4c-11.6-1.9-42.6-7-48.2 0.4c-3.9 5.2-0.6 25.4 1.6 38.8c0.8 4.6 1.4 8.6 1.7 11.3q6.4-0.5 12.8-0.5z" />
					</g>
				</g>
				<g id="&lt;Group&gt;">
					<g id="&lt;Group&gt;">
						<path id="&lt;Path&gt;" class="s2" d="m1540.1 962.9c0-1 0-2 0.6-2.8c0.8-1.2 2.5-1.4 3.9-1.5q27-1.7 54-3.4c1.4 0 2.9-0.1 4.1 0.7c1.9 1.2 2.1 3.8 2 6.1q-0.4 22.7-0.8 45.4q-15.1 0.6-30.2 1.2c-6.2 0.2-23.1 4-28.3 1c-9.5-5.4-5.3-36.3-5.3-46.7z" />
					</g>
					<g id="&lt;Group&gt;">
						<path id="&lt;Compound Path&gt;" fill-rule="evenodd" class="s2" d="m1552.1 1011.7c-3 0-5.6-0.3-7.2-1.3c-8.1-4.6-6.9-25.5-6.2-39.3c0.2-3.3 0.4-6.2 0.4-8.2c0-1 0-2.3 0.8-3.4c1.2-1.7 3.4-1.8 4.6-1.9l54-3.3c1.4-0.1 3.2-0.2 4.7 0.7c2.3 1.5 2.6 4.4 2.5 7l-0.8 46.4l-31.2 1.2c-1.7 0-4.3 0.4-7.3 0.8c-4.6 0.6-9.9 1.3-14.3 1.3zm-11-48.8c0 2.1-0.2 5-0.4 8.3c-0.7 12.5-1.9 33.5 5.1 37.5c3.5 2 13.2 0.7 20.3-0.3c3.1-0.4 5.7-0.7 7.5-0.8l29.4-1.1l0.7-44.5c0.1-2.1-0.1-4.4-1.5-5.3c-0.9-0.6-2.1-0.6-3.5-0.5l-54.1 3.4c-1.2 0.1-2.5 0.2-3.1 1c-0.4 0.6-0.4 1.4-0.4 2.3z" />
					</g>
				</g>
				<g id="&lt;Group&gt;">
					<g id="&lt;Group&gt;">
						<path id="&lt;Path&gt;" class="s2" d="m1538.3 910.2c6.4-8.5 42.5-1.8 51.9-0.4c2.3 0.4 4.8 1 5.8 3.1c0.5 1.1 0.4 2.4 0.3 3.6c-0.6 7.8 0.4 15.7 2.7 23.1c2.4 7.2 5.7 16 0.5 21.4c-4.2 4.4-11.3 3.5-17.4 2.6c-13.4-2.2-27.1-2.7-40.7-1.6c-0.7-9.8-8.8-44.2-3.1-51.8z" />
					</g>
					<g id="&lt;Group&gt;">
						<path id="&lt;Compound Path&gt;" fill-rule="evenodd" class="s2" d="m1589.9 965.3c-2.8 0-5.6-0.4-7.9-0.8c-13.4-2.1-27-2.6-40.5-1.5h-1l-0.1-1c-0.2-2.5-0.9-7-1.7-12.1c-2.4-14.5-5.7-34.4-1.2-40.3c5.5-7.3 29.6-4.5 50-1.2q1.7 0.3 2.9 0.5c2.4 0.3 5.3 1.1 6.5 3.5c0.6 1.4 0.5 2.8 0.4 4.1c-0.6 7.7 0.4 15.6 2.7 22.8l0.4 1.4c2.3 6.9 5.1 15.5-0.2 21c-2.7 2.9-6.5 3.6-10.3 3.6zm-34.8-4.9c9.1 0 18.2 0.8 27.2 2.2c6.6 1 12.8 1.6 16.5-2.3c4.4-4.6 1.9-12.3-0.3-19l-0.4-1.4c-2.4-7.5-3.4-15.6-2.8-23.4c0.1-1.3 0.2-2.4-0.2-3.2c-0.8-1.6-3-2.2-5-2.5q-1.2-0.2-2.9-0.4c-11.6-1.9-42.6-7-48.2 0.4c-3.9 5.2-0.6 25.4 1.6 38.8c0.8 4.6 1.4 8.6 1.7 11.3q6.4-0.5 12.8-0.5z" />
					</g>
				</g>
				<g id="&lt;Group&gt;">
					<g id="&lt;Group&gt;">
						<path id="&lt;Path&gt;" class="s2" d="m1324.9 1006.9c0.1-2.8 0.3-5.8 2-8.1c1.7-2.5 4.8-3.8 7.8-4.7c15.7-4.7 32.6-3 49-1.5c59.7 5.6 119.7 7.1 179.7 8.7q29.9 0.8 59.7 1.5c47.4 1.3 95 2.5 142-2.9c10.2-1.2 21.8-2.1 29.1 4.9c6.4 6.1 7 16.2 4.9 24.7c-2.1 8.6 3.9 15.7 1.8 24.2c-2.3 9.4 6.8 24.7 0 31.7c-7.4 7.7-38.9 3.5-49.5 3c-65.3-2.7-117.1 10.7-182.3 6.9c-18-1-45.4-3.3-63.3-5.9c-45.2-6.6-94-3.6-139.6-5.6c-15.2-0.6-40.9 5.9-45-12.2c-4.1-18.6 2.5-45.5 3.7-64.7z" />
					</g>
					<g id="&lt;Group&gt;">
						<path id="&lt;Compound Path&gt;" fill-rule="evenodd" class="s6" d="m1593.1 1097c-7.9 0-15.8-0.2-24-0.7c-18.9-1.1-45.9-3.4-63.5-6c-29.8-4.3-61.5-4.5-92.2-4.7c-15.6 0-31.8-0.1-47.2-0.8c-3.3-0.1-7.1 0.1-11.1 0.3c-14 0.7-31.5 1.7-34.8-13.3c-2.9-12.9-0.6-30 1.4-45.1c0.9-7.1 1.8-13.8 2.2-19.8c0.1-2.7 0.3-6 2.1-8.7c2-2.8 5.4-4.1 8.4-5c15.4-4.7 31.9-3.2 47.9-1.7l1.5 0.2c59.8 5.5 120.7 7.1 179.6 8.6l59.8 1.5c46.6 1.3 94.7 2.5 141.8-2.9c11.6-1.3 22.5-1.9 29.9 5.2c5.8 5.5 7.7 15.1 5.2 25.6c-1 4.1-0.1 7.8 0.9 11.7c1 3.9 2 8 0.9 12.5c-0.9 3.8 0.1 8.7 1.1 13.5c1.4 7 2.9 14.3-1.4 18.7c-6.4 6.6-28.4 4.9-42.9 3.8c-3-0.2-5.5-0.4-7.4-0.5c-31.5-1.3-60.4 1.2-88.3 3.6c-22.4 2-45.4 4-69.9 4zm-229.3-14.2q1.3 0 2.4 0c15.5 0.7 31.6 0.8 47.3 0.9c30.7 0.1 62.5 0.3 92.4 4.7c17.5 2.6 44.4 4.8 63.3 5.9c33.5 2 64.1-0.7 93.7-3.2c27.9-2.5 56.8-5 88.5-3.7c1.9 0.1 4.5 0.3 7.5 0.5c13.2 1.1 35.5 2.8 41.3-3.2c3.6-3.7 2.2-10.1 0.8-16.9c-1-5-2.1-10.2-1.1-14.3c1-4.1 0.1-7.7-0.9-11.6c-0.9-4-2-8.1-0.8-12.6c2.3-9.8 0.6-18.7-4.6-23.8c-6.8-6.5-17.3-5.9-28.3-4.6c-47.3 5.4-95.5 4.1-142.2 2.9l-59.8-1.5c-58.9-1.6-119.9-3.1-179.7-8.7l-1.5-0.1c-15.8-1.5-32.1-3-47.2 1.6c-2.6 0.8-5.6 1.9-7.2 4.3c-1.5 2.1-1.7 5-1.9 7.6c-0.3 6.1-1.2 12.8-2.2 20c-2 14.9-4.2 31.8-1.4 44.4c3 13.3 18.8 12.5 32.8 11.7c3.1-0.1 6.1-0.3 8.8-0.3z" />
					</g>
				</g>
				<g id="&lt;Group&gt;">
					<g id="&lt;Group&gt;">
						<path id="&lt;Path&gt;" class="s2" d="m2112.5 1691.3c13.9-6.1 27.6-18.4 26.2-33.5c25.1-9.5 51.1-16.6 77.5-21.4c2.4-0.4 5-0.8 7.3 0.1c2.7 1.2 4.3 4 5.6 6.6c14.5 28.4 23.2 59.7 25.4 91.5c0.9 13.1-143.3 17-157.3 15.8c-15.8-1.3-38.4-3.3-36.2-24c2.5-22.7 35.1-27.9 51.5-35.1z" />
					</g>
					<g id="&lt;Group&gt;">
						<path id="&lt;Compound Path&gt;" fill-rule="evenodd" class="s6" d="m2107.4 1751.6c-4.9 0-8.5-0.1-10.3-0.2c-11.1-1-26.4-2.2-33.4-10.7c-3.1-3.8-4.3-8.6-3.7-14.4c2-18.5 23.1-25.7 40-31.4c4.5-1.6 8.7-3 12.1-4.5c12.7-5.5 27-17.4 25.6-32.5l-0.1-0.7l0.7-0.3c25.1-9.5 51.3-16.7 77.7-21.5c2.7-0.5 5.4-0.8 7.9 0.2c3 1.3 4.6 4.2 6.1 7c14.5 28.4 23.3 60.2 25.5 92q0.1 1.4-1.1 2.6c-10.7 10.5-112.2 14.4-147 14.4zm32.3-93.1c1 15.8-13.7 28-26.8 33.7c-3.5 1.6-7.8 3-12.2 4.5c-16.4 5.6-36.8 12.6-38.7 29.8c-0.6 5.3 0.5 9.6 3.3 12.9c6.4 7.9 21.2 9.1 32 10c15.4 1.3 144.7-2.8 155.7-13.7q0.6-0.5 0.5-1c-2.1-31.5-10.9-63-25.3-91.2c-1.3-2.5-2.7-5-5.1-6.1c-2-0.8-4.2-0.5-6.8 0c-26 4.7-51.8 11.8-76.6 21.1z" />
					</g>
				</g>
				<g id="&lt;Group&gt;">
					<g id="&lt;Group&gt;">
						<path id="&lt;Path&gt;" class="s2" d="m1540.8 1040.3c5.1-6.8 33.6-1.5 41.1-0.4c1.7 0.3 3.8 0.8 4.5 2.4c0.4 0.9 0.3 2 0.3 2.9c-0.5 6.2 0.2 12.4 2.1 18.3c1.9 5.6 4.5 12.6 0.4 16.9c-3.3 3.5-9 2.7-13.7 2c-10.7-1.7-21.5-2.1-32.2-1.3c-0.6-7.7-7-34.9-2.5-40.8z" />
					</g>
					<g id="&lt;Group&gt;">
						<path id="&lt;Compound Path&gt;" fill-rule="evenodd" class="s5" d="m1581.6 1084c-2.2 0-4.5-0.3-6.3-0.6c-10.5-1.7-21.3-2.1-31.9-1.3l-1 0.1l-0.1-1c-0.1-2-0.7-5.5-1.4-9.5c-2.4-15-4.2-27.7-0.9-32c4.5-6 23.6-3.7 39.8-1.1l2.2 0.4c2 0.3 4.4 0.9 5.3 2.9c0.5 1.1 0.4 2.3 0.3 3.3c-0.4 6.1 0.3 12.3 2.2 18l0.3 1c1.8 5.6 4.1 12.4-0.2 16.9c-2.2 2.3-5.3 2.9-8.3 2.9zm-27.5-4.3c7.2 0 14.4 0.6 21.5 1.7c5.2 0.8 10 1.3 12.9-1.7c3.4-3.6 1.5-9.6-0.3-14.8l-0.3-1.1c-1.9-6-2.7-12.4-2.2-18.6c0-1 0.1-1.8-0.2-2.5c-0.5-1.1-2.2-1.5-3.8-1.8l-2.2-0.3c-8.3-1.4-33.6-5.5-37.9 0.2c-3.1 4.1-0.4 20 1.3 30.5c0.6 3.5 1.1 6.6 1.3 8.8q4.9-0.4 9.9-0.4z" />
					</g>
				</g>
				<g id="&lt;Group&gt;">
					<g id="&lt;Group&gt;">
						<path id="&lt;Path&gt;" class="s2" d="m1746.8 1014.5c5.1-6.8 33.6-1.5 41.1-0.3c1.7 0.3 3.8 0.8 4.5 2.4c0.4 0.9 0.3 1.9 0.3 2.9c-0.5 6.1 0.3 12.4 2.1 18.2c1.9 5.7 4.5 12.6 0.4 16.9c-3.3 3.5-9 2.8-13.7 2c-10.7-1.6-21.5-2.1-32.2-1.2c-0.5-7.8-7-34.9-2.5-40.9z" />
					</g>
					<g id="&lt;Group&gt;">
						<path id="&lt;Compound Path&gt;" fill-rule="evenodd" class="s6" d="m1787.6 1058.3c-2.2 0-4.5-0.4-6.3-0.7c-10.5-1.6-21.3-2.1-31.9-1.2l-1 0.1l-0.1-1c-0.1-2.1-0.7-5.6-1.4-9.6c-2.4-14.9-4.2-27.6-0.9-32c4.5-5.9 23.6-3.7 39.8-1.1l2.2 0.4c2 0.3 4.4 0.9 5.3 3c0.5 1.1 0.4 2.2 0.4 3.3c-0.5 6 0.2 12.2 2.1 17.9l0.3 1.1c1.8 5.5 4.1 12.4-0.2 16.8c-2.2 2.3-5.2 3-8.3 3zm-27.5-4.3c7.2 0 14.4 0.5 21.5 1.7c5.2 0.8 10 1.3 12.9-1.7c3.4-3.7 1.5-9.6-0.3-14.9l-0.3-1.1c-1.9-5.9-2.7-12.4-2.2-18.6c0-1 0.1-1.8-0.2-2.4c-0.5-1.2-2.2-1.6-3.8-1.8l-2.2-0.4c-8.3-1.3-33.6-5.4-37.9 0.3c-3 4-0.4 19.9 1.3 30.5c0.6 3.5 1.1 6.6 1.3 8.7q4.9-0.3 9.9-0.3z" />
					</g>
				</g>
				<g id="&lt;Group&gt;">
					<g id="&lt;Group&gt;">
						<path id="&lt;Path&gt;" class="s0" d="m1416 1024.4c5.1-6.8 33.6-1.5 41.1-0.3c1.7 0.3 3.8 0.8 4.5 2.4c0.4 0.9 0.3 1.9 0.3 2.9c-0.5 6.1 0.3 12.4 2.1 18.2c1.9 5.7 4.5 12.6 0.4 16.9c-3.3 3.5-9 2.8-13.7 2c-10.7-1.6-21.5-2.1-32.2-1.2c-0.5-7.8-7-34.9-2.5-40.9z" />
					</g>
					<g id="&lt;Group&gt;">
						<path id="&lt;Compound Path&gt;" fill-rule="evenodd" class="s6" d="m1456.8 1068.2c-2.2 0-4.5-0.4-6.3-0.7c-10.5-1.6-21.3-2.1-31.9-1.2l-1 0.1l-0.1-1c-0.1-2.1-0.7-5.6-1.4-9.6c-2.4-14.9-4.2-27.6-0.9-32c4.5-5.9 23.6-3.7 39.8-1l2.2 0.3c2 0.3 4.4 0.9 5.3 3c0.5 1.1 0.4 2.2 0.4 3.3c-0.5 6 0.2 12.2 2.1 17.9l0.3 1.1c1.8 5.5 4.1 12.4-0.2 16.8c-2.2 2.3-5.3 3-8.3 3zm-27.5-4.3c7.2 0 14.4 0.5 21.5 1.7c5.2 0.8 10 1.3 12.9-1.7c3.4-3.6 1.5-9.6-0.3-14.9l-0.3-1.1c-1.9-5.9-2.7-12.4-2.2-18.6c0-1 0.1-1.8-0.2-2.4c-0.5-1.2-2.2-1.6-3.8-1.8l-2.2-0.4c-8.3-1.3-33.6-5.4-37.9 0.3c-3 4-0.4 20 1.3 30.5c0.6 3.5 1.1 6.6 1.3 8.7q4.9-0.3 9.9-0.3z" />
					</g>
				</g>
				<g id="&lt;Group&gt;">
					<g id="&lt;Group&gt;">
						<path id="&lt;Path&gt;" class="s0" d="m1362.5 1040.3c5.1-6.8 33.6-1.5 41.1-0.4c1.8 0.3 3.8 0.8 4.5 2.4c0.4 0.9 0.3 2 0.3 2.9c-0.5 6.2 0.3 12.4 2.2 18.3c1.8 5.6 4.4 12.6 0.3 16.9c-3.3 3.5-9 2.7-13.7 2c-10.6-1.7-21.5-2.1-32.2-1.3c-0.5-7.7-7-34.9-2.5-40.8z" />
					</g>
					<g id="&lt;Group&gt;">
						<path id="&lt;Compound Path&gt;" fill-rule="evenodd" class="s6" d="m1403.3 1084c-2.2 0-4.4-0.3-6.3-0.6c-10.5-1.7-21.3-2.1-31.9-1.3l-1 0.1l-0.1-1c-0.1-2-0.7-5.5-1.4-9.5c-2.4-15-4.2-27.7-0.9-32c4.5-6 23.6-3.7 39.8-1.1l2.3 0.4c1.9 0.3 4.3 0.9 5.2 2.9c0.5 1.1 0.4 2.3 0.4 3.3c-0.5 6.1 0.3 12.3 2.1 18l0.3 1c1.8 5.6 4.1 12.4-0.2 16.9c-2.2 2.3-5.2 2.9-8.3 2.9zm-27.5-4.3c7.2 0 14.4 0.6 21.5 1.7c5.2 0.8 10 1.3 12.9-1.7c3.4-3.6 1.5-9.6-0.2-14.8l-0.4-1.1c-1.9-6-2.7-12.4-2.2-18.6c0.1-1 0.1-1.8-0.2-2.5c-0.5-1.1-2.2-1.5-3.8-1.8l-2.2-0.3c-8.3-1.4-33.6-5.5-37.9 0.2c-3 4.1-0.4 20 1.3 30.5c0.6 3.5 1.1 6.6 1.3 8.8q5-0.4 9.9-0.4z" />
					</g>
				</g>
				<g id="&lt;Group&gt;">
					<g id="&lt;Group&gt;">
						<path id="&lt;Path&gt;" class="s0" d="m1697.3 1026.4c5.1-6.8 33.6-1.5 41.1-0.3c1.7 0.2 3.7 0.7 4.5 2.4c0.4 0.9 0.3 1.9 0.2 2.9c-0.4 6.1 0.3 12.3 2.2 18.2c1.8 5.7 4.5 12.6 0.4 16.9c-3.4 3.5-9 2.8-13.8 2c-10.6-1.7-21.4-2.1-32.1-1.2c-0.6-7.8-7-34.9-2.5-40.9z" />
					</g>
					<g id="&lt;Group&gt;">
						<path id="&lt;Compound Path&gt;" fill-rule="evenodd" class="s5" d="m1738.1 1070.1c-2.3 0-4.5-0.3-6.3-0.6c-10.6-1.7-21.3-2.1-32-1.2h-1v-1c-0.2-2-0.7-5.5-1.4-9.5c-2.4-14.9-4.2-27.7-0.9-32c4.5-5.9 23.6-3.7 39.8-1.1l2.2 0.4c2 0.3 4.4 0.9 5.3 2.9c0.5 1.1 0.4 2.3 0.3 3.4c-0.4 6 0.3 12.2 2.2 17.9l0.3 1.1c1.8 5.5 4 12.3-0.2 16.8c-2.2 2.3-5.3 2.9-8.3 2.9zm-27.5-4.2c7.2 0 14.4 0.5 21.5 1.7c5.1 0.8 10 1.2 12.9-1.8c3.4-3.6 1.4-9.5-0.3-14.8l-0.3-1.1c-1.9-5.9-2.7-12.4-2.2-18.6c0-1 0.1-1.8-0.2-2.4c-0.5-1.2-2.2-1.6-3.8-1.8l-2.3-0.4c-8.3-1.4-33.5-5.4-37.8 0.3c-3.1 4-0.5 19.9 1.3 30.5c0.5 3.5 1 6.6 1.3 8.7q4.9-0.3 9.9-0.3z" />
					</g>
				</g>
				<g id="&lt;Group&gt;">
					<path id="&lt;Path&gt;" class="s5" d="m1926 899.5c-21.9 36.7 129.4-20.8 201.3-76.8c196.8 118.2 6.3 153.4-130.2 482.3c28 104.6 29.4 252.4 43.4 358.8q-82.1 0.7-123.1 5.9q-23.6-65.9-50.1-153.5c-14.3-78.5-61.7-165.1-44.4-243.6c35-115.3 87.2-236.4 103.1-373.1z" />
				</g>
				<g id="&lt;Group&gt;">
					<path id="&lt;Path&gt;" class="s5" d="m2249 841.6c51.2 128.5 12.1 268.4-28.6 397.8c-12.7 50.9-33.2 105.1-29.3 143.5c16.9 104.5 67.7 198.2 70.6 303c-49.8 0.9-89.7 0.9-145.1-5.3c-2.2-35.1-71.4-260.6-78.6-315.2c-16.1-122.6 10.5-192.6-7.6-319.6c-30.1-124.7-40.9-180.4 45.2-257.4c83.9-83.4 130.9-16.9 173.4 53.2z" />
				</g>
				<g id="&lt;Group&gt;">
					<path id="&lt;Path&gt;" class="s3" d="m1905.9 974.5c-3-17.5 40.1-58.4 53.5-69.3c26-21.5 43.6 22.5 69.7 1.1c22.6-18.6 45.3-37.3 65.7-58.3c30.7-31.4 56-67.8 77.8-105.9c41.6 13.2 77.3 44.1 96.2 83.4q-32.3 13-64.5 26.1c-4.3 1.7-8.9 3.7-11.1 7.8c-1.6 3-26 44.8-27.8 47.7c-155.1 245.8-257.4 79.7-259.5 67.4z" />
					<path id="&lt;Compound Path&gt;" fill-rule="evenodd" class="s6" d="m2001.8 1041.8q-8.9 0-17.5-1.8c-49.3-9.8-78.2-58.3-79.4-65.4c-3.2-18.6 42.4-60.8 53.8-70.2c13.6-11.1 25-5.3 36 0.4c10.9 5.7 21.2 11 33.8 0.7c22.2-18.3 45.2-37.2 65.6-58.2c28.1-28.8 53.5-63.3 77.7-105.7l0.4-0.7l0.7 0.3c41.6 13.2 77.8 44.5 96.8 83.8l0.5 1l-65.6 26.5c-4.4 1.8-8.5 3.7-10.5 7.3c-1.6 3.1-26.1 45.1-27.9 47.9c-34.1 54-68.3 92.2-101.7 113.6c-21.3 13.6-42.3 20.5-62.7 20.5zm-27.2-141.7c-4.6 0-9.4 1.6-14.6 5.8c-15.2 12.5-56 51.9-53.1 68.4c1.1 6.9 29.4 54.2 77.8 63.8c25.2 5 51.7-1.2 78.7-18.5c33.2-21.2 67.2-59.2 101.1-113c1.8-2.8 26.2-44.7 27.9-47.7c2.2-4.2 6.7-6.3 11.5-8.2l63.6-25.7c-18.8-38.2-54-68.6-94.4-81.7c-24.2 42.2-49.6 76.7-77.6 105.4c-20.5 21-43.5 40-65.8 58.3c-13.5 11.2-24.9 5.3-35.9-0.4c-6.4-3.3-12.6-6.5-19.2-6.5z" />
				</g>
				<g id="&lt;Group&gt;">
					<g id="&lt;Group&gt;">
						<path id="&lt;Path&gt;" class="s4" d="m1646.4 776.4q47.5-204 170.4-231.8c68.3-15.4 118.9 36.7 142 47.3c85.3 38.9 171.6 80.2 239.7 144.7c2.1 2 4.3 4.1 5.6 6.8c2.4 4.9 1.5 10.7 0.5 16c-24.6 121.6-290.6 228.8-298.2 214.1c-37.7-73.7-117.7-113.3-189.9-153.8q-29.4-16.5-70.1-43.3z" />
					</g>
					<g id="&lt;Group&gt;">
						<path id="&lt;Compound Path&gt;" fill-rule="evenodd" class="s6" d="m1910.7 975.8c-2.8 0-4.5-0.6-5.2-1.9c-34.4-67.2-104-105.8-171.3-143.2q-9.1-5.1-18.2-10.1c-29.1-16.3-69.7-43.1-70.1-43.4l-0.6-0.4l0.1-0.6c0.2-0.5 12.3-51.8 39.2-105.7c25-49.9 68.1-112.4 131.9-126.8c53.6-12.1 95.6 16.4 123.3 35.3c7.7 5.2 14.3 9.6 19.4 12c91.9 41.9 173.3 81.8 240 144.8c2.4 2.3 4.5 4.4 5.8 7.1c2.6 5.2 1.6 11.4 0.5 16.7c-12.1 59.9-80.7 113.1-136.1 147.1c-65.1 40-131.5 65.6-154.4 68.8q-2.5 0.3-4.3 0.3zm-263.2-199.8c5.1 3.3 42.3 27.6 69.5 42.9q9 5 18.2 10.1c67.6 37.5 137.4 76.2 172.1 144c0.1 0.1 0.9 1.4 7.4 0.5c22.8-3.1 88.8-28.6 153.6-68.4c55.1-33.9 123.3-86.6 135.3-145.9c1.1-5.3 1.9-10.8-0.4-15.4c-1.2-2.4-3.1-4.4-5.4-6.5c-66.4-62.9-147.7-102.6-239.4-144.5c-5.3-2.4-11.9-7-19.7-12.2c-27.5-18.7-69-46.9-121.7-35c-63.1 14.2-105.8 76.2-130.6 125.7c-25.2 50.4-37.4 98.5-38.9 104.7z" />
					</g>
				</g>
				<g id="&lt;Group&gt;">
					<path id="&lt;Path&gt;" class="s2" d="m1744.3 608.3q26.6-0.7 59.2 36.4q-27.2-3.5-29.7 40.4q-29 4.7-36.4 38.4q-37.4 1.6-46.7-59.3q27.1-55.2 53.6-55.9z" />
				</g>
				<g id="&lt;Group&gt;">
					<path id="&lt;Path&gt;" class="s2" d="m1560.4 561.6c1-11.5 6.9-23.1 17.1-28.5c7.6-4.2 16.8-4.5 25.4-3.8c25.9 2.3 50.8 13.9 69.3 32.2c7.9 7.9 14.7 16.9 22 25.4c15.3 17.7 23.5 23.1 55.2 29c5.7 21.8 9.9 43.6 23.8 69.4c-37.7 11.9-90.2-26.5-106.1-35.1c-1.8-1-3.6-2-5.6-1.8c-3.3 0.2-5.6 3.3-7.5 6.1c-6.6 9.6-16 19.3-27.6 18.6c-9.5-0.6-17-8.1-23.1-15.4c-21-25.2-45.8-61.3-42.9-96.1z" />
					<path id="&lt;Compound Path&gt;" fill-rule="evenodd" class="s6" d="m1757.5 688.6c-29.3 0-62.3-20.2-81.4-31.9c-3.8-2.4-7.1-4.4-9.5-5.7c-1.8-1-3.4-1.7-5-1.7c-2.8 0.2-4.8 2.8-6.8 5.8c-9 13.2-18.6 19.6-28.5 19c-9.9-0.6-17.6-8.3-23.8-15.8c-31.3-37.5-45.4-69.1-43.1-96.7c1.1-12.9 7.8-24.1 17.6-29.4c6.6-3.6 14.9-4.8 26-3.9c26 2.3 51.4 14.1 69.9 32.5c5.3 5.3 10.1 11.1 14.8 16.8c2.4 2.9 4.8 5.8 7.3 8.7c15.3 17.6 23.3 22.8 54.6 28.7l0.6 0.1l0.2 0.6q1.1 4.6 2.3 9.2c4.7 18.6 9.5 37.9 21.3 59.9l0.6 1.1l-1.1 0.3c-5.2 1.6-10.5 2.4-16 2.4zm-95.7-41.2c2.2 0 4.2 1 5.8 1.9c2.4 1.3 5.7 3.3 9.5 5.7c22.2 13.5 63.2 38.7 94.6 29.7c-11.5-21.8-16.3-40.9-20.9-59.3q-1.1-4.3-2.2-8.6c-31.4-5.9-39.6-11.3-55.1-29.2c-2.5-2.9-5-5.9-7.3-8.7c-4.7-5.7-9.5-11.5-14.7-16.7c-18.2-18-43.2-29.6-68.6-31.9c-10.7-0.9-18.7 0.2-25 3.6c-9.2 5-15.5 15.6-16.5 27.8c-2.2 27.1 11.7 58.3 42.6 95.4c5.9 7.1 13.2 14.4 22.4 15c9.2 0.6 18.2-5.5 26.7-18.1c1.8-2.6 4.4-6.4 8.4-6.6q0.2 0 0.3 0z" />
				</g>
				<g id="&lt;Group&gt;">
					<path id="&lt;Path&gt;" class="s5" d="m1518 540.3c17.9-28.9 30.6-50.3 69.4-46.1c3.2 0.4 6.6 0.9 9.3 2.8c4.3 3 7.3 9.4 12.5 8.5c3.1-0.5 4.9-3.6 7.3-5.8c4.7-4.4 12.1-5 18.3-2.9c6.2 2 11.4 6.2 16.2 10.6c19.9 18 37.1 44.5 29.5 70.2c-11.2-18-36.2-26.1-55.9-18c3 6.4 7.1 12.3 12 17.5c-5.6 2.2-8.7 10-14.7 9.5c-2.2-0.1-4-1.5-5.9-2.7c-6.9-4.5-15.2-8-23.2-6c-8 2.1-13.6 9.3-19.9 14.7c-10.5 8.9-25 13.4-38.5 10.5c-34.7-7.3-30.6-39.8-16.4-62.8z" />
				</g>
				<g id="&lt;Group&gt;">
					<path id="&lt;Path&gt;" class="s2" d="m1730.6 454.4c-25.6-0.9-64.8 8-77.5 33.3c-1.2 2.5-2.7 5.4-5.4 5.8c-1.9 0.2-3.6-0.9-5.2-2c-5.8-4.2-11.8-8.5-15.7-14.6c-3.8-6-5.1-14.3-1.2-20.3c-6.4-0.2-11 7.2-10.3 13.6c0.7 6.5 5.1 11.8 9.6 16.5c3.5 3.6 7.3 9.1 4.1 12.9c-2.9 3.5-8.6 1.5-12.2-1.1c-16.1-11.5-25.7-31.5-24.7-51.3c0.2-2.1 0.4-4.3 1.8-6c1.1-1.3 2.7-2 4.3-2.6c13.4-5.2 28.9-7.8 43.2-5.8c28.4 4 58-10 83.4-20c34.8-13.6 70.1-25.8 105.9-36.4c1.2-0.3 2.5-0.6 3.4 0c0.9 0.6 1.1 1.6 1.4 2.6c6.3 26.2 10.9 52.8 13.8 79.6c0.6 6.4-109.4-3.9-118.7-4.2z" />
					<path id="&lt;Compound Path&gt;" fill-rule="evenodd" class="s6" d="m1624.7 502.5c-2.8 0-5.9-1.3-8.5-3.2c-16.3-11.6-26.1-32.1-25.1-52.1c0.2-2.4 0.5-4.8 2-6.6c1.3-1.5 3-2.2 4.7-2.9c14.7-5.7 30.2-7.7 43.8-5.8c24.7 3.4 50.7-7.1 73.6-16.3q4.7-1.9 9.3-3.7c34.6-13.6 70.3-25.9 106-36.4c0.9-0.3 2.7-0.9 4.2 0.1c1.2 0.8 1.5 2.3 1.7 3.2c6.3 26.1 10.9 52.9 13.8 79.7c0.1 0.5-0.1 0.9-0.4 1.3c-3.7 3.8-43.6 1.4-102.4-3.2c-8.7-0.7-14.9-1.2-16.9-1.3c-23.7-0.7-63.7 7.4-76.5 32.9c-1.4 2.7-3 5.8-6.2 6.3c-2.2 0.2-4.1-1-5.8-2.2c-5.6-4-12-8.5-16-14.9c-3.4-5.3-5.3-13.3-2.2-19.7c-1.9 0.5-3.4 1.7-4.4 2.7c-2.3 2.5-3.5 6.3-3.1 9.7c0.7 6.2 5.1 11.5 9.3 15.9c5.6 5.8 7.1 10.8 4.1 14.3c-1.3 1.5-3 2.2-5 2.2zm6.8-69.3c-10.7 0-22 2.1-32.9 6.3c-1.5 0.6-3 1.3-3.9 2.4c-1.2 1.4-1.5 3.4-1.6 5.4c-1 19.3 8.5 39.1 24.3 50.4c3.6 2.6 8.5 4.1 10.8 1.3c3.1-3.6-1.8-9.3-4-11.6c-4.5-4.6-9.1-10.3-9.9-17.1c-0.5-3.9 1-8.3 3.7-11.2c2.1-2.3 4.8-3.6 7.7-3.5h1.8l-1 1.5c-3.9 5.9-2.2 14 1.2 19.3c3.8 6 10 10.4 15.4 14.3c1.5 1 3 2 4.5 1.8c2.1-0.3 3.4-2.8 4.5-5.1c13.3-26.5 54.3-34.8 78.5-34c2 0 8.3 0.5 17 1.2c26.3 2.1 96 7.6 100.6 3.9c-2.8-26.6-7.5-53.3-13.7-79.3c-0.2-0.8-0.4-1.6-0.9-2c-0.6-0.4-1.7-0.1-2.6 0.2c-35.6 10.5-71.2 22.8-105.8 36.3q-4.5 1.8-9.3 3.7c-23.1 9.4-49.4 20-74.6 16.4q-4.8-0.6-9.8-0.6z" />
				</g>
				<g id="&lt;Group&gt;">
					<path id="&lt;Path&gt;" class="s3" d="m1816.6 366.8c11.6-10 28.5-9.9 43.9-9.4c18.8 0.7 25.8 9.2 44.5 5.7c23.8-4.4 45.4-3 69.2 0.9c13.3 2.2 27.4 4.7 37.7 13.5c25.1 21.5 5.5 76.7-6.4 100.2c-17.7 35.1-44.7 64.4-66.4 96.9c-2 2.9-4 5.8-6.5 8.2c-10.6 9.8-97.6-18-121.8-34.2c32.1-33.9 36-35.8 67.2-70.5q-5.9-5.7-11.7-11.3c1.7 1.6-22.7 4.6-27.4 2.2c-8.3-4.3-9.6-8-12.5-16.3c-8.9-25-6.8-59.5-9.8-85.9z" />
					<path id="&lt;Compound Path&gt;" fill-rule="evenodd" class="s6" d="m1923.6 585.8c-26.2 0-92.6-22.5-113.3-36.4l-1-0.6l0.8-0.9c12.8-13.6 21.2-22 28.5-29.5c11-11.1 19.7-20 38-40.3l-10.3-9.9c-4.3 2-23.6 3.9-27.8 1.7c-8.7-4.5-10.1-8.6-13-16.8c-6.1-17.1-7.1-38.2-8.1-58.7c-0.4-9.7-0.8-19-1.8-27.5l-0.1-0.5l0.4-0.3c11.7-10 28.4-10.3 44.6-9.7c8.1 0.3 13.9 2 19.6 3.6c7.6 2.2 14.2 4.1 24.8 2.2c21-4 41.8-3.7 69.4 0.8c12.2 2 27.4 4.5 38.2 13.7c24.9 21.3 6.9 75.7-6.1 101.4c-11.4 22.6-26.8 43.1-41.7 62.9c-8.4 11-17 22.5-24.8 34.1c-2 2.9-4 6-6.7 8.4c-1.6 1.6-5 2.3-9.6 2.3zm-111.3-37.4c27 17.3 110 42.6 119.6 33.7c2.5-2.3 4.4-5.3 6.3-8.1c7.9-11.7 16.5-23.2 24.9-34.2c14.9-19.8 30.2-40.1 41.5-62.6c12.8-25.3 30.5-78.5 6.6-99c-10.3-8.9-25.2-11.3-37.2-13.3c-27.4-4.4-47.9-4.7-68.8-0.8c-11 2.1-18.1 0-25.7-2.2c-5.5-1.6-11.2-3.2-19-3.5c-16.3-0.6-31.8-0.3-42.9 8.8c1 8.5 1.4 17.5 1.8 27.1c1 20.3 2 41.3 7.9 58.1c2.9 8.2 4.1 11.6 12.1 15.7c4.1 2.2 24.6-0.4 26.2-1.7c-0.1 0.1-0.2 0.3-0.2 0.5l0.7 0.1l0.9-0.9q0 0 0 0l12.4 11.9l-0.7 0.7c-18.7 20.9-27.5 29.8-38.6 41.1c-7.2 7.3-15.4 15.5-27.8 28.6zm53.3-82q0 0 0 0q0 0 0 0z" />
				</g>
				<g id="&lt;Group&gt;">
					<path id="&lt;Path&gt;" class="s3" d="m1684 659.5c21.8 13.9 72.1 33.9 89.2 25.8c-6.7 3.1-33.7 3.9-37.2 10.3c-3.5 6.4-1.2 16.4 6 17.9c-14-3-28.2-6.2-40.1-14q-11.4-7.5-17.9-40z" />
					<path id="&lt;Compound Path&gt;" fill-rule="evenodd" class="s6" d="m1741.8 714.5q-0.1 0-0.2 0c-13.2-2.9-28.1-6.2-40.3-14.2c-11.5-7.6-18-39.2-18.2-40.6l-0.5-2.3l2 1.3c18.9 12.1 62.5 30 82.8 27.2c2.3-0.5 4.2-1 5.3-1.5l0.9 1.8q0 0 0 0q-2.4 1.1-5.5 1.6c-2.5 0.4-5.4 0.9-8.5 1.4c-9.2 1.5-20.8 3.3-22.7 6.9c-1.9 3.3-2 8-0.4 11.6c1.2 2.6 3.1 4.3 5.5 4.8q0.1 0 0.2 0.1zm-39.4-15.9c10.2 6.7 22.5 10.1 34 12.7q-1-1.2-1.7-2.8c-1.9-4.2-1.8-9.5 0.4-13.4c2.3-4 11.5-5.9 21.1-7.4c-21.8-2.4-53.5-15.7-70.7-26.1c1.7 7.4 7.8 31 16.9 37z" />
				</g>
				<g id="&lt;Group&gt;">
					<path id="&lt;Path&gt;" class="s3" d="m1717.8 609c14.3-11.1 34.5-15.8 51-8.3c17.4 7.8 26.8 26.6 34.7 44q-13.7-2.3-27.5-4.6c-3.5-0.6-8-0.7-9.6 2.5c-0.6 1.2-0.5 2.6-0.4 4c0.7 13.3 5.9 26.1 7.8 38.5c-14.3-4.6-15.9-18.5-20-30.7c-6.6-19.5-16.3-36.6-36-45.4z" />
					<path id="&lt;Compound Path&gt;" fill-rule="evenodd" class="s6" d="m1775 686.5l-1.5-0.5c-12.5-4-15.7-14.8-18.8-25.3c-0.6-2-1.2-4-1.9-6c-5.3-15.9-14.2-35.3-35.4-44.8l-1.5-0.7l1.3-1c15.9-12.3 36.3-15.6 52-8.5c17.2 7.9 26.5 25.5 35.2 44.5l0.8 1.7l-29.3-4.8c-3.2-0.6-7.3-0.7-8.6 1.9c-0.4 1-0.4 2.2-0.3 3.5c0.4 7.7 2.3 15.3 4.2 22.7c1.4 5.2 2.8 10.5 3.5 15.7zm-55.2-77.7c20.8 10.1 29.6 29.4 35 45.3c0.6 2 1.2 4 1.8 6c3 10 5.8 19.4 16 23.5c-0.8-4.5-2-9.1-3.2-13.9c-1.9-7.5-3.9-15.2-4.4-23c0-1.6-0.1-3.1 0.6-4.5c1.4-3 5-4 10.6-3.1l25.7 4.3c-8.3-18-17.3-34.5-33.4-41.8c-14.6-6.6-33.6-3.8-48.7 7.2z" />
				</g>
				<g id="&lt;Group&gt;">
					<g id="&lt;Group&gt;">
						<path id="&lt;Path&gt;" class="s3" d="m1411.8 1636.1l5.3-6.5q0.2-0.3 0.5-0.5q0.8-0.6 1.7-1.3c-14.5-43.2-26-87.8-34.2-132.7l1.9-0.4c8.1 44.6 19.5 88.9 33.9 131.9c61.2-46.3 128-84.8 198.6-114.6c53.5-22.5 95.3-33.6 135.4-36l0.1 2c-39.9 2.3-81.4 13.4-134.7 35.9c-70.7 29.7-137.5 68.3-198.7 114.7q0.3 0.7 0.5 1.4l0.2 0.5l-0.4 0.5c-0.8 1-2 0.5-2.8 0.2c-0.2-0.1-0.5-0.2-0.6-0.2q0 0-0.1 0z" />
					</g>
					<g id="&lt;Group&gt;">
						<path id="&lt;Path&gt;" class="s3" d="m1332.7 1704.2l3.3-3.6c25.3-27.3 53.7-51.9 84.4-73.1l1.1 1.7c-29.2 20.1-56.3 43.4-80.7 69.2l1.1-0.5l0.8 1.8z" />
					</g>
					<g id="&lt;Group&gt;">
						<path id="&lt;Path&gt;" class="s3" d="m1492.4 1738.3c-1.5 0-3.2-1.3-4.1-2.6l-70.1-110.1l6.3 4.9l-0.5 0.6l66 103.5c0.6 1 1.9 1.8 2.5 1.7c0.1 0 0.1 0 0.2-0.1l1.8 0.7c-0.3 0.9-1 1.4-1.8 1.4q-0.2 0-0.3 0z" />
					</g>
					<g id="&lt;Group&gt;">
						<path id="&lt;Compound Path&gt;" fill-rule="evenodd" class="s3" d="m1574.5 1728.3c-59.1-61.6-137.9-104.3-221.8-120.2c-1.2-0.2-3-0.5-4-1.9c-0.6-0.9-0.7-2.2-0.1-3.2c0.4-0.9 1.2-1.3 2.1-1.3c0.7 0.1 1.3 0.6 1.5 1.4c0.2 0.8-0.1 2-0.9 2.5q-0.1 0-0.2 0c0.6 0.3 1.3 0.5 2 0.6c84.3 16 163.4 58.8 222.8 120.8zm-224.1-124.6q0 0.1-0.1 0.2c-0.1 0.2-0.1 0.4-0.1 0.6l0.7-0.7c-0.1 0-0.2-0.1-0.4-0.1q0 0-0.1 0z" />
					</g>
					<g id="&lt;Group&gt;">
						<path id="&lt;Path&gt;" class="s3" d="m1439.9 1659.2l-1.9-0.5c-14.9-3.9-29.8-8.5-44.4-13.7l-0.5-0.1l-0.1-0.6c-3.9-16.8 2.7-35.3 16.3-45.9l0.4-0.3l0.5 0.1c12.2 3.9 24.8 6.7 37.5 8.6l0.9 0.1v0.9c-0.1 10.7-1.3 21.5-3.6 32l-2-0.4c2.2-10.1 3.4-20.5 3.6-30.8c-12.3-1.8-24.6-4.6-36.5-8.3c-12.6 10.1-18.7 27.3-15.3 43c13.8 4.9 27.9 9.3 42 13.1c-1.3-5.7 0.7-12 5.2-15.7l1.3 1.5c-4.4 3.6-6.1 10-4.1 15.2z" />
					</g>
					<g id="&lt;Group&gt;">
						<path id="&lt;Compound Path&gt;" fill-rule="evenodd" class="s3" d="m1453.2 1683.7l-0.8-0.2c-24.5-9-49.9-16.7-75.3-22.9l-0.8-0.2l0.1-0.9c1.6-18.3 0.3-36.8-3.8-54.8l-0.1-0.5l0.3-0.3c9.8-11.8 18.6-24.6 26.1-38l0.4-0.9l0.9 0.5c23.4 11.9 49.7 18.7 76 19.8l-0.1 2c-0.2-0.1-0.5 0-0.9 0.4c-4.9 4.8-4.9 35.7-4.9 47.3c0 2.6 0 4.5 0 5.4c-0.8 15.5-6.9 25.8-14.5 38.9zm-74.8-24.9c24.9 6.1 49.8 13.7 74 22.4l1.7-3c7.5-12.8 13.4-23 14.2-38c0-0.8 0-2.7 0-5.3c0-20.4 0.6-41.8 4.8-47.9c-25.2-1.4-50.4-8.1-73-19.4c-7.3 13.1-15.9 25.5-25.5 37.1c4.1 17.7 5.4 35.9 3.8 54.1z" />
					</g>
					<g id="&lt;Group&gt;">
						<path id="&lt;Compound Path&gt;" fill-rule="evenodd" class="s3" d="m1469.7 1704.9q0 0 0 0l-0.2-0.1c-35.6-19.7-77.3-26.5-117.4-19.3l-2.5 0.4l1.6-2c9.7-12.9 8.1-29.3 6.5-46.6c-1.4-14.5-2.8-29.5 2.8-42.6c2.4-5.5 6-10.5 9.4-15.2q1.5-2 2.9-4.1c10.2-14.7 17.7-31.6 21.8-49.1q-0.3-0.7-0.4-1.5c-0.1-1.3 0.5-2.5 1.7-3.2l1.9-1.3l-0.4 2.3q-0.4 1.7-0.8 3.4c0.9 1.5 2.7 3.1 4.5 3.9c40.1 16.8 82.5 26.3 126 28l1.6 0.1l-0.7 1.4c-15.9 30.8-24.6 61.8-24.7 87.4c0 3.3 0.2 6 0.4 8.5c0.5 6.2 0.9 11-3 18.5c-0.8 1.3-6.7 7.3-16.4 17c-5.9 6-12.7 12.7-13.2 13.6l-0.7-0.4h-0.2zm-86.2-24.2c30 0 59.8 7.5 86.4 22.1c1.2-1.5 4.4-4.8 13-13.4c6.8-6.8 15.4-15.3 16-16.5c3.7-7 3.3-11.4 2.8-17.4c-0.2-2.5-0.4-5.3-0.4-8.7c0.1-25.5 8.7-56.3 24.2-86.9c-43.2-2-85.3-11.4-125.2-28.2c-1.5-0.6-3.1-1.7-4.3-3.1c-4.2 17.1-11.6 33.6-21.6 48q-1.4 2-2.9 4c-3.4 4.7-6.9 9.6-9.2 14.9c-5.4 12.6-4 27.3-2.6 41.6c1.5 16.1 3.1 32.8-5.6 46.1c9.7-1.7 19.6-2.5 29.4-2.5z" />
					</g>
					<g id="&lt;Group&gt;">
						<path id="&lt;Path&gt;" class="s3" d="m1480 1721.1l-1.6-1.1c9.9-14.2 22.3-26.3 36.7-36l0.7-0.4c2.9-2 6-4.1 7.8-7.1c1.9-3.3 2-7.3 2.1-11.3v-0.3c1.8-57.2 24.8-108.6 61.8-138c-17.9-1.6-36.2-1.5-54-1.5c-16.3 0.1-33.2 0.2-49.7-1c-42.9-3.2-75.9-15.4-98.3-36.5l1.3-1.4c22.1 20.7 54.7 32.8 97.2 35.9c16.4 1.2 33.2 1.1 49.5 1.1c18.6-0.1 37.9-0.2 56.7 1.6l2.5 0.3l-2 1.5c-37.7 28.8-61.2 80.5-63 138.1v0.3c-0.1 4.2-0.3 8.5-2.4 12.2c-2 3.4-5.3 5.6-8.4 7.7l-0.7 0.5c-14.2 9.5-26.4 21.4-36.2 35.4z" />
					</g>
					<g id="&lt;Group&gt;">
						<path id="&lt;Path&gt;" class="s3" d="m1478.8 1724.9c-2.4-5-8.3-7-14.4-8.5c-41.3-9.7-83.5-12.1-125.5-7.2l-0.3-2c42.3-4.9 84.8-2.4 126.2 7.3c6.3 1.5 13 3.8 15.8 9.5z" />
					</g>
					<g id="&lt;Group&gt;">
						<g id="&lt;Group&gt;">
							<path id="&lt;Path&gt;" class="s3" d="m1420.6 1630.8c1.2 3.8 5.6 5.7 9.6 6.2c3.7 0.5 8.1-0.3 9.8-3.7c1.8-3.6-0.9-7.9-3.7-10.8c-1.1-1.2-2.3-2.3-3.8-2.9c-1.5-0.6-3.2-0.7-4.8-0.8c-5.7-0.4-11.5-1.9-16.1-5.2c-4.7-3.4-8-8.9-7.8-14.6c0.2-5.8 4.6-11.4 10.3-12.1c3.9-0.4 7.8 1.3 10.8 3.8c6.4 5.4 9.3 14.6 7.1 22.6c-1.9 7.2-14.3 9.2-11.4 17.5z" />
						</g>
						<g id="&lt;Group&gt;">
							<path id="&lt;Path&gt;" class="s3" d="m1396.7 1659.8l-0.8-2.6c-2.8-9.4-0.2-20.3 6.5-27.8c6.5-7.3 16.4-11.3 26.6-10.8l2.5 0.1l-4.5 3.7l-1.2-1.5l0.4-0.3c-8.5 0.2-16.9 4-22.3 10.1c-5.6 6.3-8.1 15-6.8 23l0.1-0.1l1.8 0.8z" />
						</g>
						<g id="&lt;Group&gt;">
							<path id="&lt;Path&gt;" class="s3" d="m1386.1 1629.4l-1.9-0.7c1.6-4.2 5.4-7.6 11.3-10.2c6.9-3.1 14.7-4.5 22.3-3.8c5 0.4 8.6 1.8 11 4.2l-1.4 1.4c-2.1-2.1-5.3-3.3-9.8-3.6c-7.3-0.6-14.7 0.6-21.3 3.6c-5.4 2.3-8.8 5.4-10.2 9.1z" />
						</g>
						<g id="&lt;Group&gt;">
							<path id="&lt;Compound Path&gt;" fill-rule="evenodd" class="s3" d="m1462.6 1621.2c-0.8 0-1.4-0.4-1.6-1.1l0.6-0.1c-8.9-5.4-20.7-4.2-31-2.6c-0.9 0.1-1.7 0.5-1.9 0.8c-0.1 0.1-0.1 0.2-0.1 0.3l-1.9 0.4c-0.1-0.6 0-1.2 0.3-1.8c0.9-1.2 2.7-1.6 3.3-1.7c11.1-1.7 23.8-3 33.5 3.6l0.5 0.4l-0.1 0.6c-0.2 0.7-0.8 1.2-1.6 1.2q0 0 0 0zm0-1.9q0 0 0 0c-0.1 0-0.3 0.1-0.4 0.3l0.4 0.1l0.3-0.1c-0.1-0.2-0.2-0.3-0.3-0.3z" />
						</g>
						<g id="&lt;Group&gt;">
							<path id="&lt;Path&gt;" class="s3" d="m1481.6 1648.9c-0.6 0-1.1-0.3-1.4-0.8l1.6-1.1c0-0.1-0.2-0.2-0.2-0.1c0.3-0.4 0.1-0.9-0.1-1.4c-3.6-9.6-8.1-16.4-14-20.6c-11.8-8.7-27.9-6.5-36.5-4.3l-0.5-2c8.9-2.2 25.7-4.5 38.2 4.7c6.2 4.5 10.9 11.5 14.7 21.5c0.3 0.9 0.6 1.8 0.2 2.8c-0.3 0.7-1 1.2-1.8 1.3q-0.1 0-0.2 0z" />
						</g>
						<g id="&lt;Group&gt;">
							<path id="&lt;Path&gt;" class="s3" d="m1429.7 1620.9l-1.7-0.9c7.7-15.1 23-26 39.9-28.4l2.7-0.4l-4.2 4.7l-1.5-1.4l0.5-0.4c-15.1 3-28.6 13.1-35.7 26.8z" />
						</g>
						<g id="&lt;Group&gt;">
							<path id="&lt;Path&gt;" class="s3" d="m1431.5 1618.8l-1.2-1.6c5.8-4.7 13.1-10.5 21.6-12c3.6-0.7 7.4-0.5 11-0.3l10.4 0.5c0.3 0 1.1 0.1 1.5 0.8c0.4 0.5 0.3 1.2-0.2 1.7c-0.4 0.4-1.1 0.5-1.5 0.1l1.1-1.6c-0.3-0.2-0.7-0.2-0.9 0.1c-0.3 0.2-0.2 0.5-0.1 0.8c0.1 0.1 0.2 0.1 0.2 0.1c0 0-0.1 0-0.2 0l-10.4-0.5c-3.5-0.2-7.1-0.4-10.6 0.2c-8 1.4-14.7 6.9-20.7 11.7z" />
						</g>
						<g id="&lt;Group&gt;">
							<path id="&lt;Path&gt;" class="s3" d="m1382.9 1652.1l2-6.4c2.8-8.6 8.4-16.1 15.9-21.2c7.5-5.1 16.7-7.5 25.7-6.8l-0.2 2c-8.5-0.7-17.2 1.6-24.4 6.4c-6.1 4.2-10.9 10-13.8 16.8l0.8 0.5z" />
						</g>
						<g id="&lt;Group&gt;">
							<path id="&lt;Path&gt;" class="s3" d="m1431.5 1620.6c-3.7-1.6-7.2-3.6-10.6-5.6c-1.9-1.1-3.8-2.2-5.7-3.2c-6.6-3.5-12-5.1-17-4.9c-4.7 0.1-10.4 2.3-13.2 6.8l0.5 0.8l-4.6 3.1l1.4-3.1c2.4-5.5 8.8-9.4 15.9-9.6c7-0.2 13.6 2.8 18 5.1c1.9 1.1 3.8 2.2 5.7 3.3c3.3 1.9 6.8 3.9 10.4 5.5z" />
						</g>
					</g>
				</g>
				<g id="&lt;Group&gt;">
					<path id="&lt;Path&gt;" class="s7" d="" />
				</g>
				<g id="&lt;Group&gt;">
					<path id="&lt;Path&gt;" class="s3" d="m1564 1439q4.3 7.1-2.8 14.8q-7.1 7.8-13.8-1.9" />
					<path id="&lt;Path&gt;" class="s6" d="m1555.4 1457.8q-0.3 0-0.5 0c-4.8-0.3-8.2-5.2-8.4-5.4l1.7-1.1c0 0 3 4.3 6.8 4.5c1.9 0.2 3.8-0.7 5.5-2.6c6.5-7.1 2.8-13.4 2.7-13.7l1.7-1c0 0 4.6 7.8-2.9 16q-3.1 3.3-6.6 3.3z" />
				</g>
				<g id="&lt;Group&gt;">
					<g id="&lt;Group&gt;">
						<path id="&lt;Path&gt;" class="s2" d="m1764.1 846.1l-34.2 40.2l-83.5-109.9z" />
					</g>
					<g id="&lt;Group&gt;">
						<path id="&lt;Compound Path&gt;" fill-rule="evenodd" class="s6" d="m1729.8 887.8l-87.3-114.8l123.1 72.9zm-79.6-108l79.7 104.8l32.6-38.3z" />
					</g>
				</g>
				<g id="&lt;Group&gt;">
					<g id="&lt;Group&gt;">
						<path id="&lt;Path&gt;" class="s2" d="m1810.8 548.6q78.5 40.4 118.1 33.6l65.4 26.1q-59.5 27.6-183.5-59.7z" />
					</g>
					<g id="&lt;Group&gt;">
						<path id="&lt;Compound Path&gt;" fill-rule="evenodd" class="s6" d="m1967.3 613.4c-5.3 0-11.5-0.3-18.4-1.2c-27.8-3.7-74.4-17.6-138.7-62.8l1.1-1.7c0.7 0.4 78.6 40.2 117.4 33.5h0.3l0.2 0.1l67.6 26.9l-2.1 1c-0.5 0.2-9.4 4.2-27.4 4.2zm-145.1-58.2c101.7 68.2 157.5 56.7 169.3 53l-62.7-25c-30.7 5.1-83.1-17-106.6-28z" />
					</g>
				</g>
			</g>
		</g>
	</g>
</svg>