<svg xmlns="http://www.w3.org/2000/svg" version="1.1" width="600px" height="600px" viewBox="0 0 200 200" style="overflow:hidden!important;"><defs id="SvgjsDefs3072"></defs><g id="svga-group-wrapper"><g id="svga-group-backs-single"><path id="SvgjsPath3520" d="M0 0h200v200H0V0z" fill="#a8c5bd" stroke-width="none" opacity="1" stroke="none"></path></g><g id="svga-group-humanwrap-move" transform="matrix(1,0,0,1,0,0)"><g id="svga-group-humanwrap" transform="matrix(1,0,0,1,0,0)"><g id="svga-group-hair-back-move" transform="matrix(1,0,0,1,0,0)"><g id="svga-group-hair-back" transform="matrix(1,0,0,1,0,0)"></g></g><g id="svga-group-humanbody-back"><path id="SvgjsPath3473" d="M166.5 181.1c-10.9-6.6-27.6-8.4-35-12.1-4.9-2.5-9.1-4.7-8.9-17.8s1.9-42.4 1.9-42.4H75.4s1.6 29.4 1.9 42.4-4.2 15.6-8.9 17.8c-7.4 3.5-24.1 5.4-35 12.1-10.8 6.6-10 18.9-10 18.9v19.7h153.3V200c-.1 0 .7-12.3-10.2-18.9z" fill="#f0c7b1" stroke-width="none" opacity="1" stroke="none"></path></g><g id="svga-group-chinshadow-single"><path id="SvgjsPath3469" d="M124.5 108.9H75.4c.1 1.8 1.6 29.7 1.9 42.3 0 1.8 0 3.4-.1 4.9 6.7 7.3 14.6 11.9 22.8 11.9 8.2 0 16.1-4.6 22.8-11.9-.1-1.4-.2-3.1-.2-4.9.2-12.7 1.8-40.5 1.9-42.3z" fill="#d19271" stroke-width="none" opacity="0.65" stroke="none"></path></g><g id="svga-group-humanbody-front"><path id="SvgjsPath3474" d="M78.7 156.8c.5 4.8 1.7 9.4 3.1 13.9.8 2.3 1.6 4.6 2.6 6.9.8 2 1.7 4.2 3.1 5.9.3.4 1 0 .9-.5-.5-2.2-1.6-4.3-2.4-6.4-.9-2.2-1.7-4.4-2.5-6.6-1.5-4.4-2.8-8.9-4.1-13.3-.2-.4-.8-.3-.7.1zm41.3-1c-1.3 8.2-3.9 16.1-5.4 24.2-.1.4.4.5.6.2 3.1-7.7 4.1-16.1 5.1-24.3-.1-.2-.3-.2-.3-.1zm-25.8 11.9c-.9 3.6 1.9 8.6 6.2 7.6.5-.1.4-.8 0-1-1.4-.5-2.9-.9-3.9-2.1-1.1-1.2-1.5-2.9-1.4-4.5 0-.4-.8-.5-.9 0z" fill="#d19271" stroke-width="none" opacity="1" stroke="none"></path><path id="SvgjsPath3475" d="M177.3 219.7c-.1-6.6-.3-13.1-.3-19.7l-.3-.3c.1 0 .1 0 .2.1s.1.2.1.1v-1.4c0-.5-.1-.9-.1-1.4-.1-.9-.3-1.9-.5-2.8-.5-1.8-1.1-3.6-2-5.3-1.7-3.4-4.4-6.2-7.7-8.1-3.6-2.2-7.6-3.8-11.6-5.1-4-1.3-8.1-2.4-12.1-3.5-4-1.2-8.1-2.2-11.8-4.2-1.9-1-3.6-2.1-4.8-3.6-1.2-1.6-1.9-3.5-2.3-5.5-.8-4-.4-8.2-.3-12.4l.7-12.6 1.5-25.2.1-1.4h-1.4c-8.2 0-16.4 0-24.6.1l-24.6.3h-.9l.1.9c.8 11.9 1.6 23.8 2.1 35.7.1 3 .3 6 .2 8.9-.1 2.9-.4 5.9-1.6 8.6-.6 1.3-1.4 2.5-2.4 3.5s-2.3 1.8-3.6 2.4c-2.6 1.3-5.4 2.2-8.3 3-5.8 1.5-11.6 2.8-17.3 4.7-2.8.9-5.7 2-8.4 3.4-1.3.7-2.7 1.4-4 2.4-1.3.9-2.4 1.9-3.5 3.1-2.1 2.3-3.6 5.2-4.5 8.1-.5 1.5-.8 3-1 4.6-.1.8-.1 1.6-.1 2.4v2.3l-.2 17.9v1.3h1.4l38.3.2c12.8.1 25.5.1 38.3 0 12.8-.1 25.6-.1 38.3-.3 12.8-.2 25.6-.5 38.3-.7h.6v-.5zm-77.2-1.6H61.8l-37 .2-.1-16.6v-2.2c0-.7 0-1.4.1-2.1.1-1.4.4-2.8.8-4.2.8-2.7 2.1-5.3 3.9-7.5.9-1.1 2-2.1 3.1-2.9 1.1-.9 2.4-1.6 3.7-2.3 2.6-1.4 5.3-2.5 8.1-3.5 5.6-2 11.4-3.4 17.1-5.1 2.9-.8 5.8-1.7 8.5-3.1 1.3-.7 2.7-1.5 3.8-2.6 1.1-1.1 2-2.4 2.6-3.9 1.2-2.9 1.5-5.9 1.6-8.9 0-3-.1-6-.2-9l-1.3-34.8 23.5.4c7.7.1 15.4.1 23.1.1-.4 7.9-.8 15.9-1.1 23.8-.2 4.2-.2 8.4-.3 12.6 0 4.2-.2 8.5.8 12.8.5 2.1 1.3 4.2 2.8 6 1.4 1.7 3.4 2.9 5.3 3.8 3.9 1.9 8 2.8 12.1 3.8s8.2 2 12.2 3.3c4 1.3 7.9 2.8 11.5 5 3.2 1.9 5.8 4.7 7.5 8 .9 1.6 1.5 3.4 1.9 5.2.2.9.4 1.8.4 2.7.1.5.1.9.1 1.4V200l-.3 19c-12.6-.2-25.1-.5-37.7-.7-12.7-.1-25.5-.1-38.2-.2z" fill="#c27b55" stroke-width="none" opacity="1" stroke="none"></path></g><g id="svga-group-clothes-single"><path id="SvgjsPath5694" d="M179.3 220.1c0-17.5-1.6-26.7-1.6-26.7-3.2-15.2-21.5-18.1-30.1-20.5-2.8-.8-7.9-2.4-7.9-2.4-4.8 5.3-10.2 17.8-16.2 23.3-7.5 7-14.9 13-21.8 18.1-6.4-4-13.8-9.3-21.4-16.1-7.7-6.9-13.9-20.7-18.6-26.7-3.1.5-6.3 1.8-10 2.6-8.7 1.9-26.5 7.6-29.5 21.6 0 0-1.6 9.2-1.6 26.7h158.7z" fill="#ededed" stroke-width="none" opacity="1"></path><path id="SvgjsPath5695" d="m72.9 159.9.7-8.2-14.3 9-9.1 6.8 2.1 1-27.1 9.9-3.3.8-5 19.8v20.9h59.9L72 175.8l.9-15.9zm105.2 19.5-3.3-.8-27.1-9.9 2.1-1-9.1-6.8-13.8-9.3.2 8.5.8 16.1-4.8 44.1H183v-20.9l-4.9-20z" fill="#2b5d62" stroke-width="none" opacity="1" stroke="none"></path><path id="SvgjsPath5696" d="M148.5 181.7c-2-1.7-4-3.5-6-5.2l-5.9-5.3c-2-1.7-4-3.5-6-5.3 1.7 2 3.6 3.9 5.4 5.9 1.8 1.9 3.7 3.8 5.6 5.7 1.9 1.9 3.8 3.7 5.8 5.5 1.6 1.5 3.3 3 5.1 4.4-2.3 1.6-4.6 3.3-6.8 5-2.6 2-5.1 4-7.6 6.2-1.2 1.1-2.4 2.2-3.5 3.6-.3.3-.5.9-.6 1.3l-.4 1.1-.8 2.3c-1.1 3.1-2.1 6.1-3.1 9.2 1.4-2.9 2.8-5.9 4.1-8.8l1-2.2.5-1.1c.2-.4.3-.6.5-.9.9-1.1 2.2-2.2 3.4-3.2 2.5-2.1 5.1-3.9 7.6-5.9l7.8-5.7.2-.2c.3-.4.2-1.1-.2-1.4-2-1.6-4.1-3.3-6.1-5zm11.6-6.8c-3.6-1.2-7.3-2.3-11-3.2 3.5 1.6 7.1 2.9 10.7 4.1 3.6 1.2 7.3 2.3 11 3.2-3.5-1.6-7-2.9-10.7-4.1zm12.6 7.8c-1 .7-2.1 1.4-2.7 2.8-1.1 2.3-1.7 4.6-2.4 6.9-.6 2.3-1.1 4.7-1.5 7.1-.4 2.4-.7 4.8-.6 7.2.7-2.3 1.5-4.6 2.1-6.9.7-2.3 1.3-4.6 1.9-6.9l.9-3.5c.3-1.1.6-2.3 1-3.4.2-1 1.1-1.8 1.9-2.6.8-.8 1.8-1.5 2.8-2.2-1.2.3-2.3.8-3.4 1.5zm-36.1-22 4.6 3.1c1.4 1 2.8 1.9 4 3.1-.6.4-1.3.7-1.9 1.1-.8.4-1.5.9-2.2 1.3.8-.3 1.6-.7 2.4-1 .8-.3 1.6-.7 2.4-1.1h.1c.1-.1.1-.3 0-.4-1.2-1.5-2.7-2.6-4.2-3.7s-3-2.1-4.6-3.2c-3.1-2.1-6.2-4-9.1-6.3 1.2 1.4 2.6 2.6 4.1 3.8 1.4 1.2 2.9 2.2 4.4 3.3zM72 190.8l-.9-6.3-.9-6.3c-.1-.9 0-2 .1-3.1l.3-3.2c.2-2.1.4-4.2.5-6.4-.6 2.1-1 4.2-1.4 6.2l-.6 3.2c-.2 1.1-.4 2.1-.3 3.3.3 4.4.8 8.5 1.3 12.8.6 4.2 1.2 8.4 1.9 12.6.7 4.2 1.5 8.4 2.5 12.6-.2-4.3-.5-8.5-.9-12.8-.5-4.2-1.1-8.4-1.6-12.6z" fill="#3d6d71" stroke-width="none" opacity="1" stroke="none"></path><path id="SvgjsPath5697" d="M183.4 199.2c0-.1 0-.1 0 0-.8-3.4-1.5-6.7-2.3-10.1l-2.3-10c-.1-.3-.3-.5-.5-.5l-3.2-.9c-4.5-1.7-9-3.4-13.5-5-3.9-1.4-7.9-2.9-11.9-4.2l.4-.2c.4-.2.5-.6.3-1-.1-.1-.1-.2-.2-.3l-5.7-4.1c-1.9-1.4-3.8-2.8-5.8-4-2-1.3-4.1-2.5-6.1-3.8l-5.8-3.7c-1.1-.4-3.3-1-3.3-1s-.3 2.1-.2 4.6c.2 2.6.5 5.7 1.8 8.1.9 1.6 1.4 2.1 1.7 2.2l.3 10.7-1.7 13.7c-.9 1.1-1.8 2.2-2.8 3.2-6.7 6.3-13.7 12.4-21.1 18-4-2.5-7.9-5.1-11.7-7.9-2-1.5-3.9-3-5.8-4.6s-3.8-3.1-5.5-4.9c-1.6-1.7-3-3.5-4.3-5.4L72.8 176l.3-10.7c.2-.2.9-.8 1.6-1.9.9-1.5 2.4-4.5 2.6-6.9.2-2.3.3-5.4.3-6.2 0 0-3.4.5-4.5 1l-5.8 3.7c-2 1.2-4 2.5-6.1 3.8s-3.9 2.7-5.8 4l-5.7 4.1c-.1.1-.2.2-.2.3-.2.4 0 .8.3 1l.4.2c-4 1.4-7.9 2.8-11.9 4.2-4.5 1.6-9 3.3-13.5 5l-3.2.9c-.2.1-.5.3-.5.5l-2.3 10c-.8 3.3-1.5 6.6-2.3 10v.1c0 3.5.1 7 .1 10.5l-.1 10.5c0 .2.2 2.1.4 2.1l166.1-.6c.2 0 .4-1.3.4-1.5l-.1-10.5c.1-3.4.1-6.9.1-10.4zM17.3 219.7l-.1-10.1c0-3.5 0-6.9.1-10.4.9-3.3 1.8-6.6 2.6-9.8l2.5-9.4 2.3-.5c1.4.9 2.8 1.9 4.1 2.9.4.3.7.6 1 .9.2.2.2.3.3.4l.3.6c.3.8.7 1.7 1 2.6.6 1.8 1.1 3.6 1.6 5.4l1.5 5.4.7 2.7c.2.9.4 1.8.5 2.7.3 1.8.6 3.7.9 5.6.5 3.6 1.1 7.2 1.8 10.8l-21.1.2zm29.6-.4-8.2.1c0-3.6-.1-7.3-.3-10.9-.1-1.9-.3-3.8-.5-5.7-.1-.9-.3-2-.5-2.9l-.7-2.8c-1-3.7-2.2-7.3-3.6-10.8-.4-.9-.8-1.8-1.3-2.6l-.4-.6c-.2-.2-.4-.5-.6-.6-.4-.3-.8-.6-1.2-.8-1.4-.8-2.9-1.5-4.4-2.1l.4-.1h.1c4.5-1.6 9.1-3.2 13.6-4.9s9-3.3 13.5-5.1c.2-.1.3-.2.4-.3.8.3 1.6.5 2.4.8 1.5.5 2.9.9 4.4 1.4-1.5 1.3-3 2.6-4.6 3.9l-7 6.1c-1.2 1-2.3 2.1-3.5 3L41 187l-.2.2c-.3.4-.2 1.1.2 1.4l17.7 13.3c.7.6 1.5 1.1 2.2 1.7l.3.2.1.1.2.2.2.3.7 1.2 2.8 4.8c1.7 2.9 3.4 5.8 5.1 8.6-7.9.1-15.6.2-23.4.3zm23.4-.2c-1.4-3.1-2.9-6.1-4.3-9.1l-2.5-5-.6-1.2-.2-.3c0-.1-.1-.2-.2-.4-.1-.1-.2-.3-.3-.4l-.3-.2-2.1-1.8c-2.9-2.4-5.8-4.6-8.7-6.9-2.6-2-5.2-4-7.8-5.9l2.7-2c1.3-1 2.3-2.1 3.5-3.1 2.3-2.1 4.5-4.2 6.8-6.4 2.2-2.1 4.5-4.3 6.7-6.5s4.4-4.4 6.5-6.6c-2.4 1.9-4.8 4-7.1 6-.8.7-1.6 1.4-2.3 2-.6-.4-1.2-.7-1.8-1-.8-.4-1.6-.8-2.4-1.1-1-.4-2.1-.8-3.1-1.1l-.9-.4 4.5-3.5c1.8-1.4 3.7-2.9 5.5-4.1 1.8-1.3 3.7-2.7 5.6-4l5.8-4.1c-.1 2.1-.3 4.1-.4 6.1-.1 1.9-.3 4-.4 6.1L71.4 176v.1l2.1 22.1c.7 7 1.4 13.9 2.2 20.9h-5.4zm29.1-.3c-7.2-.1-14.4-.1-21.7-.1-.7-6.9-1.5-13.8-2.3-20.6l-1-7.9c1 1.4 2.2 2.8 3.3 4.1 1.7 1.9 3.6 3.5 5.5 5.1s3.8 3.2 5.8 4.7c3.9 3.1 8 6 12.1 8.7.3.2.7.2 1 0 7.7-5.6 15.2-11.5 22.2-17.9.2-.1.3-.3.5-.5l-.4 3.7c-.8 7-1.6 14.1-2.3 21.1l-22.7-.4zm24.9.2c.8-6.9 1.5-13.9 2.2-20.9l2.1-22.1v-.1l-.9-12.3c-.2-2.1-.3-4.1-.4-6.1s-.3-4-.4-6.1l5.8 4.1c1.9 1.4 3.7 2.7 5.6 4 1.9 1.2 3.7 2.7 5.5 4.1l4.6 3.5-.9.4c-1 .4-2.1.7-3.1 1.1-.8.3-1.6.7-2.4 1.1-.6.3-1.2.6-1.8 1-.8-.7-1.6-1.4-2.3-2-2.4-2-4.7-4-7.1-6 2.1 2.2 4.4 4.4 6.5 6.6 2.2 2.2 4.4 4.4 6.7 6.5 2.2 2.1 4.5 4.3 6.8 6.4 1.2 1.1 2.2 2.1 3.5 3.1l2.7 2c-2.6 1.9-5.2 3.9-7.8 5.9-2.9 2.3-5.8 4.5-8.7 6.9l-2.1 1.8-.3.2c-.1.1-.2.3-.4.4-.1.2-.2.3-.2.4l-.2.3-.6 1.2-2.4 5c-1.4 3-2.9 6.1-4.3 9.1-2.1.6-3.9.6-5.7.5zm28.8.3c-7.8-.1-15.5-.1-23.2-.2 1.7-2.9 3.4-5.7 5.1-8.6l2.8-4.8.7-1.2.2-.3c.1-.1.1-.2.2-.2s.1 0 .1-.1l.3-.2c.7-.6 1.4-1.1 2.1-1.7l17.7-13.3c.4-.3.5-.9.2-1.4l-.2-.2-3.7-2.8c-1.1-.9-2.3-2-3.5-3l-7-6.1c-1.5-1.3-3-2.6-4.6-3.9 1.5-.5 2.9-.9 4.4-1.4.8-.2 1.6-.5 2.4-.8.1.1.2.3.4.3l13.5 5.1c4.5 1.7 9 3.3 13.6 4.9h.1l.4.1c-1.5.6-2.9 1.3-4.4 2.1-.4.2-.8.5-1.2.8-.2.1-.4.4-.6.6l-.4.6c-.5.9-.9 1.8-1.3 2.6-1.5 3.5-2.6 7.2-3.6 10.8l-.7 2.8c-.2.9-.4 1.9-.5 2.9-.2 1.9-.4 3.8-.5 5.7-.3 3.6-.4 7.3-.4 10.9h-8.4zm29.6.4-21.3-.3c.7-3.6 1.3-7.2 1.8-10.8.3-1.9.5-3.7.9-5.6.2-.9.3-1.8.6-2.7l.7-2.7 1.5-5.4c.5-1.8 1.1-3.6 1.6-5.4.3-.9.6-1.8 1-2.6l.3-.6c.1-.1.1-.3.3-.4.3-.3.7-.6 1-.9 1.3-1 2.7-1.9 4.1-2.9l2.3.5 2.6 9.4c.9 3.3 1.8 6.6 2.6 9.8.1 3.5.1 6.9.1 10.4l-.1 10.2z" fill="#103f43" stroke-width="none" opacity="1" stroke="none"></path></g><g id="svga-group-head" transform="matrix(1,0,0,1,0,0)"><g id="svga-group-ears-left-move" transform="matrix(1,0,0,1,0,0)"><g id="svga-group-ears-left" transform="matrix(1,0,0,1,0,0)"><path id="SvgjsPath3373" d="M62 92.9c-.2-.3-3.3-4.3-5.9-6.7-2.6-2.4-3.4-2.4-4.6-.9-1.3 1.5-2.9 9.1-2.5 12.4.4 3.4 3.6 8.7 5.2 11.7 1.7 3 3.3 6.7 5.1 6.3 1.9-.4 4.4-4.6 5.7-7.7 1.3-3.1.5-10.8-3-15.1z" fill="#f0c7b1" stroke-width="none" opacity="1" stroke="none"></path><path id="SvgjsPath3374" d="M65.8 102c.1.9.2 1.7.2 2.6s0 1.7-.2 2.6c-.1.4-.2.9-.3 1.3-.1.4-.3.7-.4 1.1-.3.7-.6 1.4-1 2.1-.7 1.3-1.5 2.6-2.6 3.6-.5.5-1.1 1-1.8 1.3-.4.1-.9.1-1.3 0-.4-.2-.8-.5-1.1-.8-1.2-1.3-1.9-2.8-2.7-4.3-.7-1.5-1.5-2.9-2.2-4.3-.7-1.5-1.5-2.9-2.1-4.4-.3-.8-.7-1.5-.9-2.3-.3-.8-.5-1.6-.6-2.5-.2-1.7 0-3.4.1-5 .2-1.6.5-3.2.8-4.8.2-.8.4-1.6.8-2.3l.3-.6c.1-.2.3-.4.4-.5.2-.3.5-.6.9-.8.3-.2.8-.3 1.2-.3.4.1.8.3 1.1.5.7.4 1.2 1 1.8 1.5 2.2 2.2 4 4.8 5.9 7.2 1.9 2.4 3.2 5.7 3.7 9.1zM55.7 86.4c-1.1-.9-2.4-1.9-3.1-1.2-.2.1-.4.4-.6.6l-.3.3c-.1.1-.1.3-.2.4-.3.6-.5 1.3-.8 2-.5 1.4-.9 2.9-1.1 4.5-.3 1.5-.5 3.1-.4 4.7.1.8.3 1.6.6 2.3.3.8.6 1.5.9 2.2.7 1.5 1.5 2.8 2.3 4.2.8 1.4 1.7 2.7 2.5 4.1.4.7.8 1.4 1.2 2s.8 1.3 1.3 1.7c.5.4.9.6 1.3.4.5-.2.9-.6 1.4-1.1.9-1 1.6-2.1 2.3-3.4.4-.6.7-1.3 1-1.9.2-.3.3-.7.4-1l.2-.5c0-.2.1-.3.1-.5.3-1.4.4-3 .3-4.6s-.4-3.2-.9-4.8c-.5-1.6-1.2-3-2.2-4.2-1.9-2.1-4-4.3-6.2-6.2z" fill="#e1ac8f" stroke-width="none" opacity="1" stroke="none"></path><path id="SvgjsPath3375" d="M51.2 99.4c-.3-2.3-.5-7.8.8-9.6 2.2-2.9 6 6.4 6.9 9.3 0 .1.1.2.1.3.2.3-.1.7-.4.6-.4-.2-.9-.6-1.3-.8-1.1-.5-1.6.5-1.3 1.8.4 1.8 1.4 2.9 2.2 4.3.1.2 0 .4-.2.3-1.6-.9-3.5-4.5-3.1-6.6.3-2 1.9-1.8 3.1-.8-.7-1.7-1.5-3.3-2.5-4.8-.6-.9-1.2-2-2.2-2.2-1.2-.2-1 .3-1.2 1.8-.8 4.8-.3 10.4 2.5 14.5.1.1 0 .2-.1.1-1.8-2.3-3-4.9-3.3-8.2z" fill="#d19271" stroke-width="none" opacity="1" stroke="none"></path></g></g><g id="svga-group-ears-right-move" transform="matrix(1,0,0,1,0,0)"><g id="svga-group-ears-right" transform="matrix(1,0,0,1,0,0)"><path id="SvgjsPath3376" d="M138 92.9c.2-.3 3.3-4.3 5.9-6.7 2.6-2.4 3.4-2.4 4.6-.9 1.3 1.5 2.9 9.1 2.5 12.4s-3.6 8.7-5.2 11.7c-1.7 3-3.3 6.7-5.1 6.3-1.9-.4-4.4-4.6-5.7-7.7s-.5-10.8 3-15.1z" fill="#f0c7b1" stroke-width="none" opacity="1" stroke="none"></path><path id="SvgjsPath3377" d="M138 92.9c1.9-2.4 3.8-5 5.9-7.2.5-.5 1.1-1.1 1.8-1.5.3-.2.7-.4 1.1-.5.4-.1.9.1 1.2.3.3.2.6.5.9.8.1.1.2.3.4.5l.3.6c.3.7.6 1.5.8 2.3.4 1.6.7 3.2.8 4.8.2 1.6.3 3.3.1 5-.1.9-.4 1.7-.6 2.5-.3.8-.6 1.6-.9 2.3-.7 1.5-1.4 3-2.1 4.4-.8 1.5-1.5 2.9-2.2 4.3-.8 1.4-1.4 3-2.7 4.3-.3.3-.7.6-1.1.8-.4.2-.9.2-1.3 0-.8-.3-1.3-.8-1.8-1.3-1-1.1-1.8-2.3-2.6-3.6-.4-.7-.7-1.4-1-2.1-.2-.4-.3-.7-.4-1.1-.1-.4-.3-.8-.3-1.3-.1-.9-.2-1.7-.2-2.6s.1-1.7.2-2.6c.4-3.4 1.7-6.7 3.7-9.1zm.1.1c-1 1.2-1.7 2.7-2.2 4.2-.5 1.6-.8 3.2-.9 4.8-.1 1.6 0 3.2.3 4.6 0 .2.1.3.1.5l.2.5c.1.3.3.7.4 1 .3.7.6 1.3 1 1.9.7 1.2 1.5 2.4 2.3 3.4.4.5.9.9 1.4 1.1.4.2.8 0 1.3-.4s.9-1 1.3-1.7c.4-.6.8-1.3 1.2-2 .8-1.4 1.7-2.8 2.5-4.1.8-1.4 1.6-2.8 2.3-4.2.4-.7.7-1.5.9-2.2.3-.8.5-1.6.6-2.3.1-1.6-.1-3.2-.4-4.7-.3-1.5-.7-3-1.1-4.5-.2-.7-.5-1.4-.8-2-.1-.1-.1-.3-.2-.4-.1-.1-.1-.2-.3-.3-.2-.2-.4-.5-.6-.6-.7-.6-2 .4-3.1 1.2-2.2 1.5-4.3 3.7-6.2 6.2z" fill="#e1ac8f" stroke-width="none" opacity="1" stroke="none"></path><path id="SvgjsPath3378" d="M148.8 99.4c.3-2.3.5-7.8-.8-9.6-2.2-2.9-6 6.4-6.9 9.3 0 .1-.1.2-.1.3-.2.3.1.7.4.6.4-.2.9-.6 1.3-.8 1.1-.5 1.6.5 1.3 1.8-.4 1.8-1.4 2.9-2.2 4.3-.1.2 0 .4.2.3 1.6-.9 3.5-4.5 3.1-6.6-.3-2-1.9-1.8-3.1-.8.7-1.7 1.5-3.3 2.5-4.8.6-.9 1.2-2 2.2-2.2 1.2-.2 1 .3 1.2 1.8.8 4.8.3 10.4-2.5 14.5-.1.1 0 .2.1.1 1.8-2.3 3-4.9 3.3-8.2z" fill="#d19271" stroke-width="none" opacity="1" stroke="none"></path></g></g><g id="svga-group-faceshape-wrap" transform="matrix(1,0,0,1,0,0)"><g id="svga-group-faceshape-single"><path id="SvgjsPath3455" d="M143.6 82c-1.2-30.1-20.8-46.6-43.6-46.6S57.6 51.9 56.4 82c0 .9-.1 1.9-.1 2.8 0 31.9 20.2 68.9 43.7 68.9s43.7-37 43.7-68.9c0-1 0-1.9-.1-2.8z" fill="#f0c7b1" stroke-width="none" opacity="1" stroke="none"></path><path id="SvgjsPath3456" d="M100 153.7c23.5 0 43.7-37 43.7-68.9 0-1 0-1.9-.1-2.8-1.2-30.1-20.8-46.6-43.6-46.6S57.6 51.9 56.4 82c0 .9-.1 1.9-.1 2.8 0 31.9 20.2 68.9 43.7 68.9zm-33.9-33.2c-1.4-3-2.7-6.1-3.8-9.2s-2-6.3-2.8-9.6c-3.1-12.9-3.4-27 1.8-39.4l1.1-2.2c.4-.7.7-1.5 1.1-2.2l1.3-2.1.7-1.1c.2-.3.5-.7.8-1 1-1.3 2-2.6 3.2-3.8.6-.6 1.1-1.2 1.7-1.8l1.9-1.6c5.1-4.2 11.2-6.8 17.5-8.1 1.6-.4 3.2-.5 4.8-.7.8-.1 1.6-.1 2.4-.1l2.4-.1c3.2.1 6.4.4 9.6 1.1.8.2 1.6.3 2.3.5l2.3.7 1.2.4 1.1.5 2.2.9c.7.3 1.4.8 2.1 1.1.7.4 1.5.7 2.1 1.2 1.3.9 2.8 1.7 4 2.8 5.1 4.1 9.3 9.4 12 15.5s4.1 12.8 4.4 19.6c.3 6.7-.5 13.5-2.2 20-1.6 6.5-4 12.8-7 18.8s-6.6 11.5-10.7 16.5c-2.1 2.5-4.4 4.8-6.8 6.8-2.5 2-5.1 3.7-8 4.9-2.8 1.2-5.8 1.9-8.8 1.9s-6-.7-8.8-1.9c-5.7-2.4-10.6-6.8-14.7-11.9-4.2-4.7-7.6-10.4-10.4-16.4z" fill="#c27b55" stroke-width="none" opacity="1" stroke="none"></path></g></g><g id="svga-group-mouth-single-move" transform="matrix(1,0,0,1,0,0)"><g id="svga-group-mouth-single" transform="matrix(0.8999995000000002,0,0,0.8999995000000002,10.06434055887793,13.179166313592887)"><path id="SvgjsPath4406" d="M100.36 129.39c-.49.05-9.78-2.48-12.1-3.52 0 0 6.49-1.32 8.19-1.56.77-.11 3.58 1.46 3.58 1.46s2.68-1.6 3.45-1.57c1.22.04 9.47.7 9.47.7s-9.34 4.18-12.59 4.49z" fill="#d26d79" stroke-width="none" opacity="1" transform="translate(0 2)" stroke="none"></path><path id="SvgjsPath4407" d="M88.64 126.16s2.22 4.74 3.61 6.45 4.63 2.76 8.5 2.83 6.93-2.13 7.9-3.18 4.11-7.24 4.11-7.24-10.77 4.8-12.51 4.69-8.03-2.3-8.57-2.46-3.04-1.09-3.04-1.09z" fill="#da7c87" stroke-width="none" opacity="1" transform="translate(0 2)" stroke="none"></path><path id="SvgjsPath4408" d="M113.83 124.15c-4.53 1.15-8.14 3.43-13.6 4.82-2.19-.21-4.23-.98-6.26-1.56-2.22-.63-4.39-1.41-6.58-2.13-.26-.09-.42.31-.18.44 2.07 1.14 4.23 2.04 6.46 2.82 2.09.73 4.39 1.64 6.63 1.72.53-.05 1.1-.3 1.27-.35 4.48-1.44 8.35-3.02 12.49-5.23.28-.17.08-.61-.23-.53z" fill="#cb5f6c" stroke-width="none" opacity="1" transform="translate(0 2)" stroke="none"></path></g></g><g id="svga-group-eyes-left-move" transform="matrix(1,0,0,1,0,0)"><g id="svga-group-eyes-left" transform="matrix(1,0,0,1,0,0)"><g id="svga-group-eyesback-left"><path id="SvgjsPath4829" d="M90.2 96.4s-.9.8-3.3 1.1-8.7 1.1-13.3-.2c-4.6-1.3-4.2-1.5-4.3-2.1-.1-.5.7-2.4 5-3.2 4.3-.8 8.5.1 10.6.9 2 .9 5.3 3.5 5.3 3.5z" fill="#ffffff" stroke-width="none" opacity="1"></path></g><g id="svga-group-eyesiriswrapper-left" transform="matrix(1,0,0,1,0,0)"><g id="svga-group-eyesiriscontrol-left" transform="matrix(1,0,0,1,0,0)"><g id="svga-group-eyesiris-left" transform="matrix(1,0,0,1,0,0)"><path id="SvgjsPath3490" d="M80.1 88.4c2.8 0 5.2 2.3 5.2 5.2s-2.3 5.2-5.2 5.2-5.2-2.3-5.2-5.2 2.3-5.2 5.2-5.2z" fill="#7b5c33" stroke-width="none" opacity="1" stroke="none"></path><path id="SvgjsPath3491" d="M80.1 90.8c1.5 0 2.8 1.2 2.8 2.8s-1.2 2.8-2.8 2.8-2.8-1.2-2.8-2.8 1.2-2.8 2.8-2.8z" fill="#000000" stroke-width="none" opacity="1"></path><path id="SvgjsPath3492" d="m79.4 91.3-.6-.6c-.2-.2-.4-.3-.7-.3-.2 0-.5.1-.7.3-.2.2-.3.4-.3.7s.1.5.3.7l.6.6c.2.2.4.3.7.3.2 0 .5-.1.7-.3.3-.5.4-1.1 0-1.4zm2.5 4.7c.9 0 .9-1.4 0-1.4s-.8 1.4 0 1.4z" fill="#ffffff" stroke-width="none" opacity="1"></path></g></g></g><g id="svga-group-eyesfront-left"><path id="SvgjsPath4837" d="M73.6 97.3c4.6 1.3 10.9.5 13.3.2 2.4-.3 3.3-1.1 3.3-1.1s-3.2-2.6-5.3-3.5c-2.1-.9-6.3-1.7-10.6-.9-3.2.6-4.4 1.8-4.8 2.5 0-6.3 4.8-11.5 10.6-11.5 5.9 0 10.6 5.2 10.6 11.5S86 106 80.1 106c-5.5 0-10-4.5-10.6-10.4.3.5 1.2.8 4.1 1.7z" fill="#f0c7b1" stroke-width="none" opacity="1"></path><path id="SvgjsPath4838" d="M90.1 95.9c-1.2-3.3-4.1-5.6-7.5-6.2-3.9-.7-7.5 1-10.7 2.9-.1 0-.2-.1-.1-.1 5.5-4.7 16.4-4.9 18.5 3.5-.1-.1-.2 0-.2-.1z" fill="#e1ac8f" stroke-width="none" opacity="1"></path><path id="SvgjsPath4839" d="M90.2 96.6c-5.3-4.4-12.4-6.2-18.9-3.1-.3.1-.5.3-.8.4-1 1.3-.9 2.1.4 2.2.7.2 1.4.4 2.1.5 1.8.4 3.7.6 5.6.7 3.4.2 6.7-.1 10-.4.2 0 .2.2 0 .3-4.4 1.4-9.2 1.3-13.7.7-1.6-.2-8.7-.9-5.9-4.3 1-1.2 3.2-1.7 4.7-2 2.1-.5 4.2-.6 6.3-.4 3.8.5 7.7 2.3 10.3 5.2.2.1 0 .3-.1.2z" fill="#000000" stroke-width="none" opacity="1"></path></g></g></g><g id="svga-group-eyes-right-move" transform="matrix(1,0,0,1,0,0)"><g id="svga-group-eyes-right" transform="matrix(1,0,0,1,0,0)"><g id="svga-group-eyesback-right"><path id="SvgjsPath4830" d="M109.8 96.4s.9.8 3.3 1.1 8.7 1.1 13.3-.2c4.6-1.3 4.2-1.5 4.3-2.1.1-.5-.7-2.4-5-3.2-4.3-.8-8.5.1-10.6.9-2 .9-5.3 3.5-5.3 3.5z" fill="#ffffff" stroke-width="none" opacity="1"></path></g><g id="svga-group-eyesiriswrapper-right" transform="matrix(1,0,0,1,0,0)"><g id="svga-group-eyesiriscontrol-right" transform="matrix(1,0,0,1,0,0)"><g id="svga-group-eyesiris-right" transform="matrix(1,0,0,1,0,0)"><path id="SvgjsPath3493" d="M119.9 88.4c2.8 0 5.2 2.3 5.2 5.2s-2.3 5.2-5.2 5.2-5.2-2.3-5.2-5.2 2.4-5.2 5.2-5.2z" fill="#7b5c33" stroke-width="none" opacity="1" stroke="none"></path><path id="SvgjsPath3494" d="M119.9 90.8c1.5 0 2.8 1.2 2.8 2.8s-1.2 2.8-2.8 2.8-2.8-1.2-2.8-2.8 1.3-2.8 2.8-2.8z" fill="#000000" stroke-width="none" opacity="1"></path><path id="SvgjsPath3495" d="m119.3 91.3-.6-.6c-.2-.2-.4-.3-.7-.3-.2 0-.5.1-.7.3-.2.2-.3.4-.3.7s.1.5.3.7l.6.6c.2.2.4.3.7.3.2 0 .5-.1.7-.3.3-.5.4-1.1 0-1.4zm2.5 4.7c.9 0 .9-1.4 0-1.4s-.9 1.4 0 1.4z" fill="#ffffff" stroke-width="none" opacity="1"></path></g></g></g><g id="svga-group-eyesfront-right"><path id="SvgjsPath4840" d="M126.4 97.3c-4.6 1.3-10.9.5-13.3.2-2.4-.3-3.3-1.1-3.3-1.1s3.2-2.6 5.3-3.5c2.1-.9 6.3-1.7 10.6-.9 3.2.6 4.4 1.8 4.8 2.5 0-6.3-4.8-11.5-10.6-11.5-5.9 0-10.6 5.2-10.6 11.5S114 106 119.9 106c5.5 0 10-4.5 10.6-10.4-.3.5-1.2.8-4.1 1.7z" fill="#f0c7b1" stroke-width="none" opacity="1"></path><path id="SvgjsPath4843" d="M109.9 95.9c1.2-3.3 4.1-5.6 7.5-6.2 3.9-.7 7.5 1 10.7 2.9.1 0 .2-.1.1-.1-5.5-4.7-16.4-4.9-18.5 3.5.1-.1.2 0 .2-.1z" fill="#e1ac8f" stroke-width="none" opacity="1"></path><path id="SvgjsPath4844" d="M109.8 96.6c5.3-4.4 12.4-6.2 18.9-3.1.3.1.5.3.8.4 1 1.3.9 2.1-.4 2.2-.7.2-1.4.4-2.1.5-1.8.4-3.7.6-5.6.7-3.4.2-6.7-.1-10-.4-.2 0-.2.2 0 .3 4.4 1.4 9.2 1.3 13.7.7 1.6-.2 8.7-.9 5.9-4.3-1-1.2-3.2-1.7-4.7-2-2.1-.5-4.2-.6-6.3-.4-3.8.5-7.7 2.3-10.3 5.2-.2.1 0 .3.1.2z" fill="#000000" stroke-width="none" opacity="1"></path></g></g></g><g id="svga-group-facehighlight-single"></g><g id="svga-group-eyebrows-left-move" transform="matrix(1,0,0,1,0,0)"><g id="svga-group-eyebrows-left-rotate" transform="matrix(1,0,0,1,0,0)"><g id="svga-group-eyebrows-left" transform="matrix(1,0,0,1,0,0)"><path id="SvgjsPath3339" d="M67 82.5c.1-.3.3-.6.5-.8.1-.2.3-.5.5-.7.2-.2.4-.4.7-.6.5-.9 1.7-1.6 2.5-2.1.9-.5 1.8-.9 2.9-.9 1-.2 2.1-.2 2.9.2.4 0 .7.1 1 .3 1.1-.1 2.3.2 3.3.4 1.4.3 2.8.6 4.1 1.2 1.4 0 2.8.1 4.1.5h.2c.1 0 .2.1.2.1h.1c.1 0 .2.1.3.2.1.1 0 .3 0 .4v.1c0 .2 0 .4-.1.6 0 .6-.1 1.1-.5 1.6 0 .1 0 .2-.1.3-.1.5-.2 1.1-.7 1.4-.2.2-.5.3-.8.3-.1 0-.2 0-.3-.1h-.6c-.6.2-1.4 0-1.9-.1-.6-.1-1.2-.3-1.7-.6-1.8-.3-3.5-.8-5.3-1.2-1.6-.4-4-.4-5.4-1.3-.7.1-1.3.2-2 .2-.3 0-.7.1-1.1 0-.2 0-.5 0-.7-.2 0 0-.1 0-.1-.1h-.1l-.4.4c-.3.3-.7.7-1.2.8-.1.2-.3 0-.3-.3z" fill="#2a232b" stroke-width="none" opacity="1"></path><path id="SvgjsPath3340" d="M87.7 83c-.1-.6-.2-1.2-.4-1.7 0-.2.2-.3.3-.1.7 1 .9 2.8.2 3.9-.1.2-.3.1-.3-.1.1-.8.2-1.4.2-2zm-3.4-3.2c1.3.8 2.1 2.6 2.1 4 0 .2-.3.3-.3.1-.2-.7-.4-1.3-.7-1.9-.3-.7-.9-1.2-1.3-1.9-.3-.2 0-.4.2-.3zm-3.3-.7c2.2.8 3.8 3.2 4.2 5.3 0 .2-.2.2-.3.1-.4-1-.9-2-1.7-2.8-.7-.9-1.6-1.4-2.5-2.2-.2-.1.1-.5.3-.4zm-4.9-.8c2.4.6 4.8 2.6 5.8 4.7.1.2-.3.4-.4.2-.8-1-1.6-1.9-2.6-2.7-.9-.7-2-1.2-3-1.8-.2-.1-.1-.4.2-.4zM67.4 82c1.6-1.8 3.8-4.3 6.5-4 .2 0 .2.3 0 .3-2.6.2-4.3 2.5-6.3 3.9-.2.1-.4-.1-.2-.2z" fill="#3a353a" stroke-width="none" opacity="1"></path><path id="SvgjsPath3341" d="M90.9 80.6c-.1-.3-.5-.3-.6 0-.3 1.1-.3 2.4-1.2 3.3-.6.7-1.5.8-2.4.7.3-1.5.2-3.7-.8-4.9-.2-.2-.5-.1-.4.2 0 .8.4 1.6.5 2.4.1.8.2 1.5.2 2.3-.1 0-.2 0-.3-.1-.3-2-1.3-4.1-2.8-5.5 2.3.5 4.6.9 6.9 1.1.1 0 .2-.2.1-.2-2.6-.9-5.3-1.4-8-2-2.4-.5-5.1-1.4-7.6-1.5-2.1-.1-3.6.9-5 2.2-1.5 1.4-3.1 3.1-4.1 4.9l-.2.2c-.1.1-.2.3-.1.4 0 0 0 .1-.1.1-.2.4.3.7.6.4.1 0 .2 0 .3-.1 1.4-.7 2.5-1.4 4.1-1.6 1.3-.2 2.7-.1 4 .1 2.9.4 5.6 1.3 8.3 2.1 2.1.6 4.9 1.7 6.9.2 1.7-1 1.9-3.1 1.7-4.7zm-13.4 1.3c-.5-.1-1.1-.2-1.7-.3.1-1.1-.3-2.3-.8-3.3.7.6 1.4 1.2 2 1.9.6.6.9 1.4 1.5 2-.4-.1-.7-.2-1-.3zM70 79.5c1.2-1.1 2.5-1.7 4-1.9.2.8.6 1.6.7 2.4l.3 1.5c-.3 0-.7-.1-1-.1-.5-.9-1.3-1.8-2.3-2.1-.2-.1-.3.2-.2.4.4.4.9.8 1.3 1.2.1.2.2.3.4.5-1.9-.1-3.8.1-5.4.8.6-1 1.3-1.9 2.2-2.7zm15.2 4.8c-.2-.1-.4-.1-.6-.2-.4-.1-.9-.3-1.3-.4-.8-1.8-2.1-3.6-3.7-4.8-.2-.1-.4.1-.3.2 1.2 1.4 2.2 2.9 3.3 4.4-1.1-.4-2.2-.7-3.2-1.1-.2-1.1-1.2-2.2-1.9-3-.7-.7-1.5-1.4-2.4-1.9.4 0 .8.1 1.3.1 2 .3 4 .8 6 1.2v.1c.7 1.1 1.5 2.2 2.1 3.3.2.7.4 1.4.7 2.1z" fill="#1b141c" stroke-width="none" opacity="1"></path></g></g></g><g id="svga-group-eyebrows-right-move" transform="matrix(1,0,0,1,0,0)"><g id="svga-group-eyebrows-right-rotate" transform="matrix(1,0,0,1,0,0)"><g id="svga-group-eyebrows-right" transform="matrix(1,0,0,1,0,0)"><path id="SvgjsPath3342" d="M133 82.5c-.1-.3-.3-.6-.5-.8-.1-.2-.3-.5-.5-.7-.2-.2-.4-.4-.7-.6-.5-.9-1.7-1.6-2.5-2.1-.9-.5-1.8-.9-2.9-.9-1-.2-2.1-.2-2.9.2-.4 0-.7.1-1 .3-1.1-.1-2.3.2-3.3.4-1.4.3-2.8.6-4.1 1.2-1.4 0-2.8.1-4.1.5h-.2c-.1 0-.2.1-.2.1h-.1c-.1 0-.2.1-.3.2-.1.1 0 .3 0 .4v.1c0 .2 0 .4.1.6 0 .6.1 1.1.5 1.6 0 .1 0 .2.1.3.1.5.2 1.1.7 1.4.2.2.5.3.8.3.1 0 .2 0 .3-.1h.6c.6.2 1.4 0 1.9-.1.6-.1 1.2-.3 1.7-.6 1.8-.3 3.5-.8 5.3-1.2 1.6-.4 4-.4 5.4-1.3.7.1 1.4.2 2 .2.3 0 .7.1 1.1 0 .2 0 .5 0 .7-.2 0 0 .1 0 .1-.1h.1l.4.4c.3.3.7.7 1.2.8.1.2.3 0 .3-.3z" fill="#2a232b" stroke-width="none" opacity="1"></path><path id="SvgjsPath3343" d="M112.3 83c.1-.6.2-1.2.4-1.7 0-.2-.2-.3-.3-.1-.7 1-.9 2.8-.2 3.9.1.2.3.1.3-.1-.1-.8-.2-1.4-.2-2zm3.4-3.2c-1.3.8-2.1 2.6-2.1 4 0 .2.3.3.3.1.2-.7.4-1.3.7-1.9.3-.7.9-1.2 1.3-1.9.3-.2 0-.4-.2-.3zm3.3-.7c-2.2.8-3.8 3.2-4.2 5.3 0 .2.2.2.3.1.4-1 .9-2 1.7-2.8.7-.9 1.6-1.4 2.5-2.2.2-.1-.1-.5-.3-.4zm4.9-.8c-2.4.6-4.8 2.6-5.8 4.7-.1.2.3.4.4.2.8-1 1.6-1.9 2.6-2.7.9-.7 2-1.2 3-1.8.2-.1.1-.4-.2-.4zm8.7 3.7c-1.6-1.8-3.8-4.3-6.5-4-.2 0-.2.3 0 .3 2.6.2 4.3 2.5 6.3 3.9.2.1.4-.1.2-.2z" fill="#3a353a" stroke-width="none" opacity="1"></path><path id="SvgjsPath3344" d="M110.6 85.3c2 1.5 4.8.4 6.9-.2 2.8-.8 5.5-1.8 8.3-2.1 1.3-.2 2.7-.3 4-.1 1.6.2 2.7.9 4.1 1.6.1.1.2.1.3.1.3.3.8 0 .6-.4 0 0 0-.1-.1-.1 0-.1 0-.3-.1-.4l-.2-.2c-1-1.8-2.6-3.5-4.1-4.9-1.4-1.3-2.9-2.3-5-2.2-2.5.1-5.2 1-7.6 1.5-2.7.6-5.4 1.1-8 2-.2.1-.1.2.1.2 2.3-.2 4.6-.6 6.9-1.1-1.5 1.4-2.5 3.5-2.8 5.5-.1 0-.2 0-.3.1.1-.8.1-1.5.2-2.3.1-.8.5-1.6.5-2.4 0-.2-.3-.3-.4-.2-1 1.2-1.1 3.4-.8 4.9-.9.1-1.7 0-2.4-.7-.8-.9-.9-2.2-1.2-3.4-.1-.3-.5-.3-.6 0 0 1.7.2 3.8 1.7 4.8zm10.9-3.2c.5-.6.9-1.4 1.5-2 .6-.7 1.3-1.3 2-1.9-.5 1-.9 2.3-.8 3.3-.6.1-1.2.2-1.7.3-.3.2-.6.3-1 .3zm10.8 0c-1.6-.7-3.6-.9-5.4-.8.1-.2.2-.3.4-.5.4-.5.9-.8 1.3-1.2.1-.1.1-.4-.2-.4-1 .3-1.8 1.2-2.3 2.1-.3 0-.7.1-1 .1l.3-1.5c.2-.8.5-1.6.7-2.4 1.4.2 2.7.8 4 1.9.8.9 1.5 1.8 2.2 2.7zm-16.7.2c.6-1.2 1.4-2.2 2.1-3.3v-.1c2-.4 4-.9 6-1.2.4-.1.9-.1 1.3-.1-.9.5-1.7 1.2-2.4 1.9-.7.8-1.7 1.9-1.9 3-1.1.3-2.2.7-3.2 1.1 1-1.5 2.1-2.9 3.3-4.4.1-.2-.1-.3-.3-.2-1.6 1.2-2.9 3-3.7 4.8-.4.1-.9.3-1.3.4-.2.1-.4.1-.6.2.2-.8.4-1.5.7-2.1z" fill="#1b141c" stroke-width="none" opacity="1"></path></g></g></g><g id="svga-group-beardwrap" transform="matrix(1,0,0,1,0,0)"><g id="svga-group-beard-single-move" transform="matrix(1,0,0,1,0,0)"><g id="svga-group-beard-single" transform="matrix(1,0,0,1,0,0)"></g></g></g><g id="svga-group-mustache-single-move" transform="matrix(1,0,0,1,0,0)"><g id="svga-group-mustache-single" transform="matrix(1,0,0,1,0,0)"></g></g><g id="svga-group-nose-single-move" transform="matrix(1,0,0,1,0,0)"><g id="svga-group-nose-single" transform="matrix(1,0,0,1,0,0)"><path id="SvgjsPath4135" d="M105.29 106.89c.58.27 1.23 1.04 1.94 3.17s1.23 3.69 1.37 4.83c.14 1.14-.99 2.32-1.71 2.46s-1.28-.33-1.56-1.09-.38-1.89-1.23-2.42c0 0-.81 2.27-1.52 2.79s-1.94 1.71-3.65.85c-1.71-.85-1.94-2.08-2.08-2.13-.14-.05-1.28 1.52-1.85 1.89-.57.38-2.37.95-3.13 0-.76-.95-.09-4.59.09-5.73.19-1.14.9-3.74 1.61-4.36.71-.62 1.71-.76 2.37-.33 0 0 .14-3.17.52-4.64.38-1.47 2.37-2.08 4.22-1.89s3.17.71 3.5 1.8c.35 1.1.4 4.46 1.11 4.8z" fill="#f0c7b1" stroke-width="none" opacity="1" transform="translate(0 1)" stroke="none"></path><path id="SvgjsPath4136" d="M96.01 116.09c-.3.22-.45.35-.75.57-.21.16-.43.32-.64.48-.58.5-1.14.44-1.69-.18-1.07-.57-1.09-.69-1.06-1.78.01-.5.08-1.02.14-1.52.17-1.47.94-7.73 3.61-6.8h.02c0 .31 0 .61.01.92.01.27.42.35.48.07.69-2.93.68-6.14.96-9.14.3-3.15.99-6.54.77-9.7-.01-.15-.23-.2-.28-.04-.78 2.89-.76 6.14-1.06 9.11-.28 2.74-.82 5.61-.88 8.4-3.37-1.25-4.22 6.04-4.41 7.99-.13 1.31-.17 3.14 1.35 3.68 1.5.53 2.91-.64 3.66-1.82.1-.14-.09-.34-.23-.24z" fill="#c27b55" stroke-width="none" opacity="1" transform="translate(0 1)" stroke="none"></path><path id="SvgjsPath4137" d="M105.17 115.05c.11.18.15.22.3.33.11.08.26.01.33-.09.03-.04.05-.08.07-.12.07-.16-.01.02.02-.09.03-.15.03-.25-.03-.4-.09-.24-.26-.46-.45-.62-.32-.27-.74-.44-1.16-.4.01-.1.03-.2.03-.29 0-.18-.24-.24-.33-.09-.89 1.4-1.09 3.44-2.94 4.03-2.21.71-3.7-1.7-4.66-3.3.07-.1.08-.25-.02-.33-.86-.72-2.64.33-2.55 1.42.03.3.34.42.57.24.32-.25.51-.6.87-.8.26-.14.54-.23.81-.35.74 2.01 2.24 4.33 4.72 3.96 1.81-.27 3.09-2.13 3.43-3.9.28.08.54.19.75.42.09.11.16.25.24.38z" fill="#c27b55" stroke-width="none" opacity="1" transform="translate(0 1)" stroke="none"></path><path id="SvgjsPath4138" d="M107.09 109.08c-.39-.91-.85-2.69-2.05-2.36.04-1.46-.39-2.97-.53-4.42-.14-1.35-.13-2.72-.32-4.07-.02-.12-.17-.07-.19.03-.22 1.63-.03 3.34.18 4.97.15 1.17.26 2.44.77 3.52-.05.02-.1.03-.15.05-.12.06-.03.22.08.2 1.32-.24 2.37 3.95 2.68 4.9.28.87.64 1.86.66 2.78.03 1.4-1.56 3.39-2.71 1.5-.14-.24-.45-.07-.42.18.14.97 1.15 1.48 2.07 1.24 1.25-.33 1.77-1.73 1.71-2.91-.08-1.88-1.05-3.9-1.78-5.61z" fill="#c27b55" stroke-width="none" opacity="1" transform="translate(0 1)" stroke="none"></path><path id="SvgjsPath4139" d="M103.73 108.8c-.04-1.57-.42-3.09-.82-4.6-.39-1.48-.61-3.13-1.39-4.47-.18-.31-.73-.28-.8.11-.45 2.35.25 5.03.38 7.41.06 1.21.11 2.45-.17 3.63-.26 1.1-.87 2.06-1.2 3.13-.17.55.41 1.19.98.98 2.41-.87 3.07-3.87 3.02-6.19z" fill="#f8d5c3" stroke-width="none" opacity="1" transform="translate(0 1)" stroke="none"></path></g></g><g id="svga-group-hair-front" transform="matrix(1,0,0,1,0,0)"><path id="SvgjsPath5511" d="M61.3 97.9s.9-21.3 1.5-25.4c.5-4.2 2.5-15.6 6.4-18.7s7.1-6 16.9-4 11.4 4 18.5 2.4 11.3-3.1 11.3-3.1 5.6 1.1 9.3 2c3.6.9 6.5 4.5 9.1 10.9 2.5 6.4 5.6 18.9 4.9 27.8-.7 8.9.9 7.6.9 7.6l3.3-7.3s3.1-5.8 1.6-10.5c0 0 .7-4.2.6-6.4s-1.8-5.3-1.8-5.3.7-6.9 0-9.3-1.3-3.3-1.3-3.3.6-4.2-1.3-7.3-5.4-6-5.4-6-4.7-12-8.9-14-6-5.1-11.3-6c-5.3-.9-11.6.5-11.6.5s-2.5-2-8.2-.2c0 0-4-1.6-10.4.9s-8.7 6.4-8.7 6.4-6.4 2.2-8.2 5.3c0 0-8.2 4-10.4 10.9s-.9 10.7-.9 10.7-2.5 5.8-.7 11.5c0 0-3.1 3.3-.9 11.3 0 0-1.8 3.8.5 9.4 2.3 5.7 2.1 9 5.2 9.2z" fill="#2a232b" stroke-width="none" opacity="1"></path><path id="SvgjsPath5512" d="M144.4 67.3c.7-4.2.2-8.7-1.3-12.2 0-.1-.1-.2-.2-.2.1-1.3.1-2.6-.2-4-.8-4.1-3.6-6.7-6.7-9.3-.1 0-.1-.1-.1-.1-1.3-4.4-3.6-8.6-6.6-11.9-6.3-7.1-17.5-11.7-26.2-6-.2.2-.1.6.2.5 9.9-4 19.9-.2 26.2 8.2 5.2 6.9 6.2 14.6 5.6 23-.1.6.9.7 1.1.2 1.1-3.9 1.1-8.1.1-12.1 1.5 1.7 3.3 3.2 4.3 5.2 2.7 5.4.1 11.5-3.1 16-.4.5.5 1 .8.5 1.9-2.6 3.5-5.5 4.2-8.6.6 3.4 1 6.6.4 10.1-.6 3.4-2.2 6.3-3.6 9.5-.2.4.3.9.7.5 1.8-1.9 3-4.4 3.8-7.2.4 2 .7 3.9.4 6-.2 2.2-1.2 4.1-1.5 6.2 0 .3.4.5.6.3.4-.4.8-.9 1.1-1.5 0 3.4-.7 6.4-1.9 9.6-.5 1.3-1.7 4.8-3 6.6.7-10.4-.3-22-3.5-31.8-1.7-5.2-4.7-10.9-9.5-13.5.6 0 1.3-.1 1.9-.2.5-.1.5-.9 0-1-5.9-1.1-11.6-1.8-16.8-5.2-6.8-4.5-11.4-12.8-9.3-21 .1-.5-.6-.7-.8-.2-3.9 9.8 3.3 20 12.6 24.8-2.1.7-4.3 1.3-6.4 1.8-8.5 0-17.6-2.6-20.1-11.9-2.8-10.2 6.4-18 16.1-15.9.4.1.6-.5.2-.6-3-1.2-5.9-1.2-8.6-.3-6.4-.8-13.1 1-17.6 5.7h-.2c-3.6 2.1-7.2 4.2-9.8 7.2-7.6 3.3-14.3 13.7-11.7 21.8-1.1 3.3-1.4 7.2-.8 10.9-1.5 3-2.1 8.1-.8 11.8-1.4 4.4.5 9.3 2.2 13.4 1.2 2.8 1 5.2 4 6.4.2.1.4.1.5-.1.4-.1.7-.3.8-.8.1-11.4.8-22.8 3.6-33.8 1.2-4.8 2.8-10.3 7.4-12.8 5.2-2.9 12-1.2 17.4.2h.1c8 3.5 18.2 2.3 25.6-2.1 2.5 1 5.1 1.7 7.6 1.9 7.9 2.9 10.9 12.9 12.2 20.6 1.6 8.8 2.4 17.4 1.8 26.3-.1.8.9.9 1.3.5 2.6-1.3 2.5-3.6 3.6-6.3 1.8-4.1 3.5-9.1 2.2-13.4 1.8-3.6 1.2-8.7-.3-11.7zM66.2 57c-5.3 12.1-5.6 27-5.7 40-1.4-1.6-2.7-5.5-3.3-7-1.2-3.2-2-6.2-1.9-9.6.3.6.7 1.1 1.1 1.5.2.2.7.1.6-.3-.3-2.1-1.3-4.1-1.5-6.2-.2-2.1 0-4 .5-6 .7 2.7 2 5.3 3.8 7.2.4.4.9-.1.7-.5-1.4-3.2-3-6-3.6-9.5-.5-2.9-.3-5.7.1-8.6.7 1.3 1.7 2.6 3 3.7.4.3 1.1-.1.8-.6-6.4-9-2.3-19 5.9-24.7-.6 1-1.1 2.2-1.4 3.4-1.1 4.2.7 9.5 5 11.1.4.2.7-.4.4-.7-4.3-4.4-5.8-9.6-1.6-15 .2-.2.3-.4.5-.5.1 0 .1-.1.2-.1.1-.1.2-.2.2-.3 1.7-1.7 3.9-2.8 5.9-4.2-3.5 5.8-2.8 13.4 2.9 17.4.3.2.7-.3.4-.5-5-5-5.6-12.1-1.2-17.7 1.5-1.9 3.3-3.3 5.2-4.3-5.4 5.2-4.8 15.3-.2 20.9 1.1 1.4 2.3 2.5 3.7 3.5-8-2.2-16.7-1-20.5 7.6zm21-9.5c-8.1-6.1-8.7-18.1-.3-24 2.2-.6 4.5-1 6.8-1.1-5.1 2.5-8.7 8.2-8.1 14.3.9 8.2 7.6 13.5 15.1 14.9-4.6.2-9.2-.8-13.5-4.1z" fill="#1b141c" stroke-width="none" opacity="1"></path><path id="SvgjsPath5513" d="M127.9 46.8c-5.5 0-10.3-2.4-13.9-6.4-3.4-3.7-8.8-10.4-6.5-15.8.2-.4-.3-.7-.5-.3-2.8 5.2 1.5 11 4.7 15 4 5 9.6 8.8 16.2 8.1.4 0 .4-.6 0-.6zM105 44.4c-4.9-4.8-10.2-10.6-7-18.1.2-.4-.3-.7-.5-.3-3.8 7.3 1.3 14.6 7.2 18.8.2.2.5-.2.3-.4zm-.4 2.1c-6.3-4.2-12.4-9.2-12.3-17.4 0-.3-.5-.3-.5 0-.4 8.2 5.5 14.6 12.6 17.8.2 0 .4-.2.2-.4zm2 .8C100.8 47 95.8 45 92 40.5c-.2-.2-.6.1-.4.4 3.6 4.4 9.2 7.3 14.9 7 .4-.1.4-.5.1-.6zm-17.4-2.1C84 40 81.4 32.7 87 26.6c.3-.4-.2-.9-.5-.5-6.2 5.6-4.3 15.4 2.2 20 .4.2.9-.5.5-.9zM80.6 44c-3-4-3.9-8.9-1.8-13.5.2-.3-.3-.6-.5-.3-2.4 4.6-1.9 10.4 1.9 14.1.2.2.5 0 .4-.3zm-8.7-8.3c.1-.3-.3-.4-.4-.1-.7 2.6-.8 5.6.4 8 .1.3.6.1.5-.2-.7-2.6-1.1-5-.5-7.7zm0 10.2c-.8-1-1.6-1.9-2.1-3.1-.1-.2-.4 0-.3.1.5 1.2 1.2 2.4 2.3 3.2 0 .1.2-.1.1-.2zM63.8 53c-2.1-3.9-2.4-7.4-1.2-11.6.1-.4-.5-.6-.6-.2-1.3 3.8-1.9 9.1 1.3 12.2.2.4.7 0 .5-.4zm-2 3.6c-1.5-2.5-2.4-4.8-2.2-7.7 0-.2-.3-.2-.4 0-.3 2.8.2 5.9 2.2 8 .3.2.6 0 .4-.3zm-2.2 15.1c-1.2-3.3-2-6.4-1.7-10.1 0-.2-.3-.3-.4 0-.5 3.5-.3 7.3 1.5 10.4.2.2.7 0 .6-.3zM56 74.4c-.1-.2-.3 0-.3.1.4 1.1.7 2.2 1.3 3.2.1.2.4.1.3-.1-.2-1.1-.8-2.2-1.3-3.2zM139.8 52c-.2-1.5-.3-4.5-2.2-4.6-.3 0-.4.4-.1.5 1.6.8 1.5 5.2 1.5 6.6-.1 2.1-.6 4-1.3 5.9-.1.3.4.5.6.2 1.3-2.6 1.8-5.6 1.5-8.6zm2.3 9.7c-.1-.4-.6-.2-.6.2.6 3.1-.3 5.8-1.9 8.4-.2.3.2.6.5.4 2.2-2.4 2.8-6 2-9zm1.2 11.7c0-.3-.5-.3-.5 0 .2 1.8-.1 3.5-.5 5.2 0 .2.2.3.3.1.8-1.6.9-3.5.7-5.3zm-22.7-46.8c-.3-.1-.4.3-.1.4 7.2 3 11.4 13.5 13.6 20.3.1.3.5.2.4-.1-1.7-7.2-6.5-17.8-13.9-20.6z" fill="#3a353a" stroke-width="none" opacity="1"></path></g><g id="svga-group-glasses-single-move" transform="matrix(1,0,0,1,0,0)"><g id="svga-group-glasses-single" transform="matrix(1,0,0,1,0,0)"></g></g></g></g></g><rect id="svga-credit-rect" width="200" height="15" x="0" y="185" fill="#ecf0f1" opacity="0.5" style="display: none;"></rect><text id="svga-credit-text" font-family="Avenir Next, Roboto, Helvetica, Arial, sans-serif" font-size="10px" text-anchor="start" font-weight="400" size="10px" anchor="start" weight="400" fill="#333333" x="33.402061462402344" y="182.71133995056152" style="display: none;"><tspan id="SvgjsTspan3125" dy="13" x="33.402061462402344">Created on AvatarMaker.com</tspan></text></g></svg>