<svg xmlns="http://www.w3.org/2000/svg" version="1.1" width="600px" height="600px" viewBox="0 0 200 200" style="overflow:hidden!important;"><g id="svga-group-wrapper"><g id="svga-group-backs-single"><path id="SvgjsPath21957" d="M0 0h200v200H0V0z" fill="#a8c5bd" stroke-width="none" opacity="1"/></g><g id="svga-group-humanwrap-move" transform="matrix(1,0,0,1,0,0)"><g id="svga-group-humanwrap"><g id="svga-group-hair-back-move" transform="matrix(1,-2.856368806070137e-18,2.856368806070137e-18,1,0,0)"><g id="svga-group-hair-back" transform="matrix(0.9799998000000001,0,0,0.9998998000000001,1.9748212311691162,0.011758470611553662)"><path id="SvgjsPath22178" d="M51.7 79.9s-5 26.3-5.9 29c-.8 2.8 4.8 13.1 4.8 13.1s-1.7 8.1-2 10.1 4.8 7.3 4.8 7.3-4.2 8.7-4.2 9.8 3.1 8.7 3.1 8.7l-5.9 7.5 7 10.3s8.4-1.7 9.2-2.2 11.7-10.3 11.4-13.4 8.4-5.9 8.4-5.9 12-10.6 14.5-10.9c2.5-.3 24.3-3.6 26-4.2 1.7-.6 18.4-12.3 18.4-12.3s10.1-31 10.1-32.1c0-1.1-3.1-28.8-3.4-29.9-.3-1.1-84.9-5.3-84.9-5.3L51.7 79.9z" fill="#2a232b" stroke-width="none" opacity="1"/><path id="SvgjsPath22179" d="m152.3 93.4-.2-2.3c-.6-6.2-1.3-12.3-2-18.5l-.5-4.6-.3-2.3c0-.2 0-.4-.1-.6l-.1-.3v-.1c-.1-.2-.3-.5-.4-.6-.1 0-.1-.1-.2-.1-.1-.1-.1-.1-.2-.1h-.1c-.5-.1-.9-.2-1.3-.2-3.1-.4-6.2-.6-9.3-.8-12.4-.9-24.8-1.5-37.2-2.1L81.8 60l-18.6-1h-.3l-.1.3-11.2 20.6-4.6 21.4-1.2 5.3-.3 1.3c-.1.4-.2.8-.3 1.4-.1 1.1.2 2 .4 2.9 1 3.5 2.6 6.7 4.2 9.9l-1.8 9.1-.1.6v.8c.1.5.3.9.5 1.3.4.8.8 1.5 1.3 2.1.8 1.2 1.8 2.2 2.7 3.3-.6 1.3-1.3 2.7-1.9 4-.7 1.5-1.4 3-2 4.7-.1.2-.2.4-.2.8s0 .7.1.9c.1.5.2.9.4 1.3.3.8.5 1.6.8 2.4.5 1.4 1.1 2.8 1.7 4.2l-5.5 7.2-.4.5.3.5 5.4 7.8c.3-.4.7-.8 1.1-1.2-1.6-2.4-3.1-4.7-4.7-7.1l5.5-7 .3-.4-.2-.5c-.6-1.5-1.2-3.1-1.8-4.6l-.8-2.3c-.1-.4-.2-.8-.3-1.1 0-.2-.1-.3 0-.3 0 0 .1-.2.1-.4.5-1.5 1.2-3 1.9-4.5l2.1-4.5.2-.5-.4-.4c-1.1-1.1-2.1-2.3-3-3.6-.5-.6-.9-1.3-1.2-1.9-.2-.3-.3-.6-.3-.9V132.1l.1-.6 1.8-9.3v-.3l-.1-.2c-1.7-3.2-3.3-6.4-4.5-9.8-.2-.8-.5-1.7-.4-2.4 0-.3.2-.8.3-1.3l.3-1.3 1.1-5.4c.7-3.6 1.3-7.2 2-10.8.6-3.6 1.3-7.2 1.9-10.8L63.4 60l36.8 2.3 18.6 1.2 18.6 1.2c3.1.2 6.2.5 9.2.8.2 0 .4.1.5.1v.2l.3 2.3.6 4.6c.7 6.2 1.4 12.3 2.1 18.5l.2 2.3.1 1.1c0 .1-.1.2-.1.3l-.1.5c-.4 1.5-.9 2.9-1.3 4.4l-2.7 8.9-5.5 17.5c-4.5 3.2-8.9 6.3-13.4 9.4-1.2.8-2.3 1.6-3.5 2.3-.6.4-1.1.6-1.7.8l-2 .4c-2.7.5-5.5 1-8.2 1.4s-5.5.9-8.2 1.3l-4.1.6-2.1.3-.5.1-.6.2c-.3.1-.7.3-1 .5-2.4 1.4-4.6 3.2-6.8 5-2.2 1.7-4.3 3.5-6.4 5.3-.4.1-.8.3-1.2.4 0 .3 0 .5-.1.8l1.5-.6h.1l.1-.1 6.3-5.4c2.2-1.7 4.3-3.5 6.7-4.9.3-.1.6-.3.9-.4l.4-.1.5-.1 2.1-.3 4.1-.6 8.2-1.2c2.8-.4 5.5-.8 8.2-1.3l2.1-.4c.2 0 .3-.1.5-.1s.4-.1.6-.2c.4-.2.6-.4 1-.5 1.2-.7 2.4-1.5 3.6-2.2 4.7-3 9.3-6.1 13.9-9.3l.2-.1.1-.2 5.8-17.7 2.8-8.9c.5-1.5.9-3 1.4-4.5l.2-.6c.1-.3.1-.6.1-.8v-1.1z" fill="#0c080c" stroke-width="none" opacity="1"/></g></g><g id="svga-group-humanbody-back"><path id="SvgjsPath22029" d="M77.8 105.9s4.8 37.7 10 55.8c0 0-6.4 8.8-14.5 11.9-28.7 11.2-35 11.2-39.6 15.2-2.4 2.1.2 11.1 1.8 17.2 1.3 5 1.7 13.2 1.7 13.2h132.2s1.6-33-.6-39.8-7.1-2.9-21.9-4.5c-14.8-1.6-28.7-10.3-31-13.2l.3-60-38.4 4.2z" fill="#ecc6ae" stroke-width="none" opacity="1"/></g><g id="svga-group-chinshadow-single"><path id="SvgjsPath22025" d="M85.6 152.8c6.6 3.5 10.7 3.5 10.7 3.5s8 0 19.6-9.5l.2-45.2-38.4 4.2c.1.1 3.6 27.7 7.9 47z" fill="#cd936e" stroke-width="none" opacity="1"/></g><g id="svga-group-humanbody-front"><path id="SvgjsPath22030" d="M72.1 183.1s14.6-.2 20.4 2.6c5.8 2.9 12.7 2.4 16.1-1s21.6-7 21.6-7-19.7 1.9-25 4.6c-5.3 2.7-22.3-2.8-33.1.8z" fill="#cd936e" stroke-width="none" opacity="1"/><path id="SvgjsPath22031" d="M74.2 173.2c6.7-1.3 14.7-6.4 14.7-6.4l6.2 5.5c-4.3-7.9-12.7-41.1-12.7-41.1l-.7.7c1.7 10.5 3.9 21.9 6.1 29.7 0 0-6 8.2-13.6 11.6z" fill="#cd936e" stroke-width="none" opacity="1"/><path id="SvgjsPath22032" d="M170.7 188.5c-.1-2.1-.2-4.1-.4-6.2-.1-1-.3-2.1-.6-3.2-.2-.5-.4-1-.6-1.6-.2-.5-.6-1-1-1.5s-.9-.9-1.5-1.1c-.6-.3-1.1-.4-1.7-.6-1.1-.2-2.2-.2-3.2-.2-2.1 0-4.1.1-6.1.1s-4-.1-6-.2-4-.4-6-.7c-1-.2-2-.4-2.9-.6l-1.5-.4c-.5-.1-1-.3-1.4-.4-3.8-1.1-7.6-2.6-11.2-4.4l-1.3-.7-1.3-.7c-.4-.2-.9-.5-1.3-.8s-.9-.5-1.3-.8-.8-.5-1.3-.8l-1.2-.9-.6-.5-.3-.2-.3-.2c-.2-.2-.4-.3-.5-.5l-.2-.3v-44.6l-.1-15v-.6l-.6.1c-6.4.8-12.9 1.5-19.3 2.3l-19.1 2.3v.5l.1.4.1.9.2 1.8c.1 1.2.3 2.3.4 3.5l.9 7c.6 4.7 1.3 9.4 2.1 14 .8 4.7 1.5 9.3 2.5 14 .9 4.5 1.8 9 3 13.5-1.1 1.4-2.3 2.7-3.6 4-1.3 1.3-2.8 2.6-4.3 3.8-1.5 1.1-3.1 2.2-4.8 3l-1.3.6c-.4.2-.9.3-1.3.5l-2.7 1c-7.2 2.7-14.5 5.3-21.8 7.7l-5.5 1.8c-1.8.6-3.7 1.3-5.5 2.2-.4.2-.9.5-1.3.7-.4.3-.9.5-1.3.9l-.6.5c-.2.2-.5.5-.6.8-.3.5-.4 1.1-.5 1.6-.2 1.1-.1 2.1 0 3.1s.3 2 .4 2.9c.4 1.9.8 3.8 1.3 5.7l.8 2.8c.3.9.5 1.8.7 2.8.4 1.9.7 3.8.9 5.7s.4 3.8.5 5.7v.8h133.4v-.8c.2-4.1.4-8.2.5-12.3s.2-8.2.2-12.3c0-1.8-.1-3.8-.1-5.9zm-67.4 30.3H70.2l-16.5-.1-16-.1c-.1-1.8-.2-3.5-.4-5.3-.2-1.9-.4-3.9-.8-5.8-.2-1-.4-1.9-.7-2.9l-.7-2.8c-.5-1.9-.9-3.7-1.2-5.6-.2-.9-.3-1.9-.4-2.8-.1-.9-.1-1.9 0-2.7.1-.4.2-.8.4-1.1.1-.2.2-.3.3-.4l.5-.4c.3-.3.7-.5 1.1-.8.4-.2.8-.5 1.2-.7 1.7-.8 3.5-1.4 5.3-2l5.5-1.8c7.3-2.4 14.6-5 21.8-7.8l2.7-1c.5-.2.9-.3 1.4-.5l1.4-.6c1.8-.9 3.4-2 5-3.2s3-2.5 4.4-3.9 2.7-2.9 3.8-4.5l.2-.3-.1-.3c-1.3-4.5-2.3-9.1-3.3-13.7s-1.9-9.3-2.7-13.9c-.8-4.6-1.6-9.3-2.4-14l-2.2-13.9 19.3-1.8c6.2-.6 12.3-1.2 18.5-1.8l-.2 14.4-.2 15-.3 30v.4l.2.2.6.7.6.6.3.3.3.2.6.5c.4.3.9.6 1.3.9.4.3.9.6 1.3.9.4.3.9.5 1.3.8s.9.5 1.3.8l1.4.8 1.4.7c.5.2.9.5 1.4.7l1.4.7c1 .4 1.9.8 2.9 1.2s1.9.8 2.9 1.1l1.5.5c.5.2 1 .3 1.5.4.5.1 1 .3 1.5.4l1.5.4c1 .3 2 .4 3 .6 2 .4 4.1.6 6.2.8 2.1.2 4.1.2 6.2.2 2.1 0 4.1-.1 6.1-.1s4 .1 5 1.3c.5.6.9 1.4 1.2 2.3.3.9.4 1.9.6 2.8.3 2 .4 4 .5 6s.1 4.1.2 6.1c.1 7.9-.1 15.8-.4 23.7-10.8.1-21.5.1-32.3.2h-33.1z" fill="#be7d53" stroke-width="none" opacity="1"/><path id="SvgjsPath22033" d="M150.7 219.2 147 198l-.4 21.2z" fill="#cd936e" stroke-width="none" opacity="1"/><path id="SvgjsPath22034" d="M47.3 203.5s2.2 11.5 2.9 15.7h3.5l-6.4-15.7z" fill="#cd936e" stroke-width="none" opacity="1"/></g><g id="svga-group-clothes-single"><path id="SvgjsPath22159" d="M72.29 172.58s2.02 7.56 17.38 13.74 41.96-.02 44.23-15.23c0 0 6.36 1.86 14.04 2.24 7.68.37 15.92-.37 18.16.56 2.25.94 5.62 3.18 4.87 13.3-.75 10.11.19 23.22.19 23.22l-23.03 1.5.52 7.9H52.63l-1.87-5.47-15.73-1.12s-.19-7.12-1.31-9.92c-1.12-2.81-3.18-10.3-2.06-14.04s11.24-6.74 17.98-8.99c6.73-2.26 22.65-7.69 22.65-7.69z" fill="#2b5d62" stroke-width="none" opacity="1"/><path id="SvgjsPath22160" d="M171.11 192.7c.04-1.47.1-2.94.22-4.41.11-1.45.23-2.97.22-4.46-.03-1.5-.14-3.02-.5-4.51-.37-1.48-.95-2.99-2.06-4.18-.54-.6-1.2-1.1-1.9-1.47-.66-.39-1.56-.65-2.31-.73-1.54-.2-3.02-.22-4.51-.24-2.97-.03-5.91.01-8.85-.07-5.85-.05-11.69-.84-17.28-2.38l-.98-.27-.15.99c-.45 2.88-1.86 5.58-3.91 7.73-2.04 2.17-4.6 3.87-7.33 5.2-5.49 2.64-11.64 3.88-17.75 4.09-3.06.09-6.14-.12-9.15-.71-1.5-.3-2.98-.7-4.42-1.21-.72-.25-1.43-.58-2.14-.86-.72-.29-1.43-.59-2.12-.94-2.8-1.29-5.51-2.82-7.94-4.71-1.22-.94-2.37-1.98-3.38-3.14a15.6 15.6 0 0 1-1.42-1.82 12.408 12.408 0 0 1-.86-1.5c-.04-.09-.08-.17-.12-.26-.05-.1-.04-.15-.15-.33l-16.4 5.19-8.28 2.65c-2.74.86-5.49 1.72-8.19 2.76-1.35.52-2.7 1.09-4.01 1.77-1.3.69-2.62 1.44-3.7 2.68-.27.31-.5.68-.69 1.08-.2.45-.24.81-.35 1.2-.12.77-.19 1.54-.18 2.29.01 1.5.19 2.97.44 4.42.26 1.44.59 2.87.99 4.28.2.7.42 1.4.66 2.1.28.75.47 1.27.62 1.95.56 2.67.72 5.57.81 8.37l.03.87.87.07c5.01.41 10.03.75 15.05 1.13l1.65 4.83.24.7h.74c8 0 16 .06 24.01.01l24.01-.11 24.01-.16 24.01-.27.54-.01-.04-.53-.57-7.48c3.7-.29 7.39-.53 11.09-.79l11.51-.79.3-.02-.02-.3c-.36-5.9-.51-11.81-.36-17.7zm-11.49 18.1c-3.84.23-7.68.48-11.52.68l-.41.02.02.42.41 7.37-23.48-.26-24.01-.16-24.01-.11c-7.76-.05-15.51 0-23.27.01L51.72 214l-.22-.64-.67-.05c-4.96-.34-9.92-.71-14.88-1.02-.14-2.62-.35-5.2-.94-7.84-.16-.72-.47-1.55-.71-2.14-.24-.65-.46-1.32-.66-1.99-.41-1.35-.75-2.72-1.01-4.09-.26-1.38-.45-2.77-.48-4.13-.03-.69.03-1.35.12-2 .07-.3.13-.65.23-.87.11-.24.25-.49.46-.73.79-.95 1.99-1.72 3.19-2.39 1.22-.67 2.51-1.26 3.82-1.8 2.62-1.09 5.33-2.02 8.05-2.95 2.73-.94 5.35-1.88 8.03-2.84l16.22-5.86c-.06.01.03.14.04.23.03.1.07.18.11.28.07.19.16.36.24.54.17.36.36.7.56 1.04.41.67.86 1.32 1.36 1.93a23.82 23.82 0 0 0 3.33 3.33c2.41 2.02 5.1 3.68 7.91 5.1.7.37 1.41.69 2.13 1 .72.31 1.42.65 2.17.94 1.48.57 3 1.02 4.55 1.37 3.09.69 6.26.98 9.42.96 6.32-.05 12.65-1.32 18.44-4.01 2.87-1.37 5.62-3.14 7.87-5.49 2.03-2.1 3.61-4.77 4.24-7.7a68.752 68.752 0 0 0 16.8 2.06c2.97.01 5.93-.1 8.87-.14 1.46-.01 2.94-.03 4.34.12.72.08 1.26.21 1.9.55.61.3 1.15.7 1.61 1.18.95.96 1.51 2.28 1.89 3.64.36 1.37.51 2.82.58 4.26.04 1.46-.03 2.9-.11 4.39-.07 1.48-.11 2.96-.15 4.44-.09 5.82.12 11.63.5 17.44l-11.25.68z" fill="#103f43" stroke-width="none" opacity="1"/></g><g id="svga-group-head" transform="matrix(1,-2.856368806070137e-18,2.856368806070137e-18,1,0,0)"><g id="svga-group-ears-left-move" transform="matrix(1,0,0,1,1.5,0)"><g id="svga-group-ears-left"><path id="SvgjsPath21973" d="M65.8 98.48s-4.2-8.27-8.66-11.42c-4.46-3.15-9.84-3.15-9.84-3.15s-3.02 2.1-1.97 12.6c0 0 4.46 10.76 12.47 14.7 0 0 5.77 1.31 8.66.66-.01-.01 2.09-6.18-.66-13.39z" fill="#ecc6ae" stroke-width="none" opacity="1"/><path id="SvgjsPath21974" d="M64.88 101.76s-3.67-7.87-6.04-9.84c-2.36-1.97-7.87-5.12-9.32-3.28-1.44 1.84-1.57 7.61-1.57 7.61s1.57 4.59 6.3 7.09c4.72 2.49 10.37 2.76 10.37 2.76l.26-4.34z" fill="#ddac8d" stroke-width="none" opacity="1"/><path id="SvgjsPath21975" d="M44.99 93.25c.02 1.09.09 2.19.17 3.28v.02l.01.03a39.54 39.54 0 0 0 2.2 4.42c.82 1.43 1.75 2.79 2.75 4.11 1.02 1.3 2.15 2.51 3.38 3.64 1.25 1.1 2.62 2.07 4.12 2.83l.04.02.05.01c1.45.31 2.89.55 4.36.7.73.07 1.47.13 2.22.13.74-.01 1.5-.05 2.25-.23l.19-.05.05-.17c.33-1.14.5-2.27.58-3.42.08-1.15.08-2.3-.01-3.44a23.99 23.99 0 0 0-.52-3.38c-.23-1.12-.59-2.2-.99-3.27-.94-1.86-2.02-3.63-3.13-5.4-1.14-1.74-2.35-3.46-3.85-4.95-.75-.74-1.6-1.4-2.5-1.96-.91-.56-1.88-.98-2.87-1.35-1.99-.73-4.08-1.08-6.19-1.12h-.08l-.04.04c-.89.85-1.22 1.93-1.54 2.98-.29 1.06-.45 2.16-.54 3.25-.09 1.09-.13 2.18-.11 3.28zm.33-3.27c.11-1.08.28-2.15.59-3.19.15-.52.35-1.02.59-1.49.23-.44.53-.89.86-1.18 2.01.12 4.01.6 5.9 1.29 1.9.73 3.7 1.74 5.19 3.13 1.5 1.39 2.82 2.99 4.04 4.67 1.22 1.67 2.29 3.46 3.28 5.28.37 1.07.71 2.15.91 3.27.24 1.11.32 2.24.36 3.37.04 1.13-.04 2.26-.19 3.37-.14 1.04-.35 2.09-.65 3.07-.62.1-1.26.12-1.91.1-.71-.01-1.43-.06-2.14-.14-1.41-.15-2.83-.4-4.21-.7-1.39-.74-2.72-1.62-3.93-2.66-1.2-1.07-2.33-2.24-3.35-3.49a42.391 42.391 0 0 1-2.82-3.96c-.86-1.37-1.66-2.79-2.33-4.25l-.16-1.59c-.05-.54-.06-1.09-.09-1.63-.04-1.1-.03-2.18.06-3.27z" fill="#ddac8d" stroke-width="none" opacity="1"/><path id="SvgjsPath21976" d="M49.2 91.53c.18-.69.39-1.36.67-2.03.07-.16.16-.33.26-.48.11-.15.23-.33.48-.37.45.02.72.22 1.06.37a18.3 18.3 0 0 1 3.48 2.44c.53.48 1.03 1.01 1.42 1.66.18.33.36.69.38 1.14.01.25-.01.36-.01.54l.01.51c.16 2.77.58 5.56.83 8.36l-.07.01c-.34-1.37-.61-2.75-.86-4.13-.26-1.39-.44-2.78-.55-4.2l-.03-.54v-.51c0-.26-.13-.56-.28-.84-.31-.57-.74-1.11-1.21-1.61-.94-1-2.01-1.94-3.22-2.61-.29-.16-.65-.33-.91-.33-.23.06-.41.43-.53.73-.26.63-.39 1.33-.52 2.01-.23 1.37-.39 2.77-.48 4.15-.02.34-.04.7-.02 1.01-.01.17.21.46.41.71.42.52.91 1.02 1.4 1.5.81.79 1.65 1.57 2.5 2.33.09-.91.18-1.82.24-2.74.04-.59.07-1.17.08-1.75.01-.53.01-1.07-.06-1.58-.15-.02-.33-.03-.5-.02a4.1 4.1 0 0 0-.69.1c-.46.1-.91.25-1.35.43l-.03-.07c.41-.25.85-.46 1.32-.62.23-.08.47-.15.72-.19.26-.04.49-.07.79-.01l.11.02.03.13c.15.61.18 1.21.22 1.81.02.6.02 1.19.01 1.79-.03 1.19-.08 2.37-.19 3.56l-.07.75-.58-.49c-1.08-.92-2.11-1.87-3.11-2.88-.49-.51-.98-1.03-1.43-1.61-.11-.15-.22-.3-.32-.47-.05-.09-.1-.18-.14-.29-.05-.11-.07-.28-.07-.37-.01-.39.03-.74.06-1.1.14-1.45.39-2.84.75-4.22z" fill="#be7d53" stroke-width="none" opacity="1"/></g></g><g id="svga-group-ears-right-move" transform="matrix(1,0,0,1,-1.5,0)"><g id="svga-group-ears-right"><path id="SvgjsPath21977" d="M134.2 98.48s4.2-8.27 8.66-11.42c4.46-3.15 9.84-3.15 9.84-3.15s3.02 2.1 1.97 12.6c0 0-4.46 10.76-12.47 14.7 0 0-5.77 1.31-8.66.66.01-.01-2.09-6.18.66-13.39z" fill="#ecc6ae" stroke-width="none" opacity="1"/><path id="SvgjsPath21978" d="M135.12 101.76s3.67-7.87 6.04-9.84c2.36-1.97 7.87-5.12 9.32-3.28 1.44 1.84 1.57 7.61 1.57 7.61s-1.57 4.59-6.3 7.09c-4.72 2.49-10.37 2.76-10.37 2.76l-.26-4.34z" fill="#ddac8d" stroke-width="none" opacity="1"/><path id="SvgjsPath21979" d="M154.91 89.96c-.09-1.09-.25-2.18-.54-3.25-.32-1.05-.65-2.13-1.54-2.98l-.04-.04h-.08c-2.11.04-4.21.39-6.19 1.12-.99.37-1.96.79-2.87 1.35-.9.56-1.75 1.22-2.5 1.96-1.5 1.49-2.71 3.21-3.85 4.95-1.11 1.77-2.18 3.54-3.13 5.4-.39 1.07-.76 2.15-.99 3.27a23.99 23.99 0 0 0-.52 3.38c-.1 1.14-.09 2.29-.01 3.44s.25 2.28.58 3.42l.05.17.19.05c.75.18 1.51.22 2.25.23.75 0 1.48-.05 2.22-.13 1.47-.15 2.91-.39 4.36-.7l.05-.01.04-.02c1.5-.76 2.87-1.73 4.12-2.83 1.23-1.12 2.36-2.34 3.38-3.64 1-1.31 1.93-2.68 2.75-4.11.82-1.43 1.57-2.89 2.2-4.42l.01-.03v-.02c.07-1.09.14-2.18.17-3.28.01-1.09-.03-2.18-.11-3.28zm-.16 3.28c-.03.54-.04 1.09-.09 1.63l-.16 1.59c-.67 1.47-1.47 2.89-2.33 4.25-.87 1.37-1.8 2.7-2.82 3.96a29.855 29.855 0 0 1-3.35 3.49 21.554 21.554 0 0 1-3.93 2.66c-1.38.3-2.8.54-4.21.7-.71.08-1.43.13-2.14.14-.64.01-1.29 0-1.91-.1-.3-.98-.51-2.03-.65-3.07-.15-1.11-.22-2.24-.19-3.37.04-1.13.12-2.26.36-3.37.2-1.12.54-2.2.91-3.27.98-1.82 2.05-3.61 3.28-5.28 1.21-1.67 2.54-3.28 4.04-4.67 1.49-1.39 3.28-2.4 5.19-3.13 1.88-.69 3.89-1.17 5.9-1.29.34.29.63.74.86 1.18.25.47.44.97.59 1.49.3 1.03.48 2.11.59 3.19.08 1.1.09 2.18.06 3.27z" fill="#ddac8d" stroke-width="none" opacity="1"/><path id="SvgjsPath21980" d="M150.8 91.53c-.18-.69-.39-1.36-.67-2.03-.07-.16-.16-.33-.26-.48-.11-.15-.23-.33-.48-.37-.45.02-.72.22-1.06.37a18.3 18.3 0 0 0-3.48 2.44c-.53.48-1.03 1.01-1.42 1.66-.18.33-.36.69-.38 1.14-.01.25.01.36.01.54l-.01.51c-.16 2.77-.58 5.56-.83 8.36l.07.01c.34-1.37.61-2.75.86-4.13.26-1.39.44-2.78.55-4.2l.03-.54v-.51c0-.26.13-.56.28-.84.31-.57.74-1.11 1.21-1.61.94-1 2.01-1.94 3.22-2.61.29-.16.65-.33.91-.33.23.06.41.43.53.73.26.63.39 1.33.52 2.01.23 1.37.39 2.77.48 4.15.02.34.04.7.02 1.01.01.17-.21.46-.41.71-.42.52-.91 1.02-1.4 1.5-.81.79-1.65 1.57-2.5 2.33-.09-.91-.18-1.82-.24-2.74-.04-.59-.07-1.17-.08-1.75-.01-.53-.01-1.07.06-1.58.15-.02.33-.03.5-.02.23.01.46.05.69.1.46.1.91.25 1.35.43l.03-.07c-.41-.25-.85-.46-1.32-.62a4.23 4.23 0 0 0-.72-.19c-.26-.04-.49-.07-.79-.01l-.11.02-.03.13c-.15.61-.18 1.21-.22 1.81-.02.6-.02 1.19-.01 1.79.03 1.19.08 2.37.19 3.56l.07.75.58-.49c1.08-.92 2.11-1.87 3.11-2.88.49-.51.98-1.03 1.43-1.61.11-.15.22-.3.32-.47.05-.09.1-.18.14-.29.05-.11.07-.28.07-.37.01-.39-.03-.74-.06-1.1a26.8 26.8 0 0 0-.75-4.22z" fill="#be7d53" stroke-width="none" opacity="1"/></g></g><g id="svga-group-faceshape-wrap" transform="matrix(0.9799998000000001,0,0,0.9998998000000001,2.0020199894821076,0.009043049999988284)"><g id="svga-group-faceshape-single"><path id="SvgjsPath22011" d="M135.9 49.8c-6.7-7.4-11.3-13.2-28.8-17.3-1.8-.4-12.3-.4-14.1 0-17.5 4.1-22.1 9.9-28.8 17.3-7.1 7.8-9.5 29-9.5 29 0 9.6 1.3 32.3 13.3 47.2 17.8 22.2 32.1 22.3 32.1 22.3s14.2 0 32.1-22.3c12-14.9 13.3-37.6 13.3-47.2-.1 0-2.5-21.2-9.6-29z" fill="#ecc6ae" stroke-width="none" opacity="1"/><path id="SvgjsPath22012" d="M107.1 32.5c-1.8-.4-12.3-.4-14.1 0-17.5 4.1-22.1 9.9-28.8 17.3-7.1 7.8-9.5 29-9.5 29 0 9.6 1.3 32.3 13.3 47.2 17.8 22.2 32.1 22.3 32.1 22.3s14.2 0 32.1-22.3c12-14.9 13.3-37.6 13.3-47.2 0 0-2.4-21.2-9.5-29-6.9-7.4-11.5-13.2-28.9-17.3zM142 63.8c.7 2.5 1.1 5 1.6 7.5.4 2.5.7 5 1 7.5-.2 7.4-1.3 14.8-3 22-.9 3.6-1.9 7.1-3.3 10.5-.7 1.7-1.4 3.4-2.2 5s-1.7 3.2-2.7 4.7l-1.5 2.2c-.3.4-3.4 4.2-3.4 4.2l-3.7 4.1-6.1 5.7c-2.8 2.3-5.8 4.5-9 6.2l-1.2.6-1.2.6c-.8.4-1.6.7-2.5 1l-1.3.4c-.4.1-.8.2-1.3.3-.4.1-1.71.43-2.9.4 0 0-1.4-.2-1.9-.3-.4-.1-.9-.2-1.3-.3l-1.3-.4c-.8-.3-1.7-.6-2.5-1l-1.2-.5-1.2-.6c-3.2-1.6-6.3-3.7-9.1-6l-4.1-3.6-3.9-3.9-1-1-.9-1-1.8-2.1c-1.2-1.4-2.3-2.8-3.3-4.4-1-1.5-2-3.1-2.8-4.8-.8-1.6-1.6-3.3-2.3-5.1-.7-1.7-1.3-3.5-1.8-5.3s-1-3.6-1.4-5.4-.8-3.6-1-5.5c-.3-1.8-.5-3.7-.7-5.5-.4-3.7-.5-7.4-.5-11.1.3-2.3.8-4.6 1.2-6.9.5-2.3 1.1-4.6 1.7-6.8.7-2.2 1.4-4.5 2.3-6.6.4-1.1.9-2.1 1.4-3.1s2.59-4.47 6.3-8.1c1.6-1.7 3.3-3.3 5-4.7 3.5-2.8 7.7-4.9 12-6.5l1.6-.6c6.69-2.31 10.6-2.2 11.8-2.3 2.3-.1 4.71-.26 7-.1 3.16.22 6.8 1.4 6.8 1.4 2.3.6 4.5 1.3 6.7 2.3.3.1 1.6.7 1.6.7.5.3 2.6 1.3 3.1 1.7.5.3 5.3 3.7 6.9 5.4 1.7 1.7 3.3 3.4 4.9 5.2 1.7 1.9 2.9 4.2 3.9 6.6 1.1 2.4 1.9 4.8 2.5 7.3z" fill="#be7d53" stroke-width="none" opacity="1"/></g></g><g id="svga-group-mouth-single-move" transform="matrix(1,0,0,1,0.5,0)"><g id="svga-group-mouth-single" transform="matrix(0.6499986000000004,0,0,0.6499986000000004,35.01589075727763,44.16274283526225)"><path id="SvgjsPath22246" d="M86.3 122.77s3.78 5.21 6.46 6.76c2.69 1.54 6.74 2.85 11.37 1.48s9.37-6.41 9.37-6.41-5.48-2.85-7.85-3.27c-2.37-.42-6 1.66-6 1.66s-2.47-1.96-3.95-2.2-9.4 1.98-9.4 1.98z" fill="#da7c87" stroke-width="none" opacity="1"/><path id="SvgjsPath22247" d="M84.89 122.33c2.54.48 5.06 1.07 7.57 1.72 1.26.32 2.5.67 3.76 1.04.65.2 1.19.39 1.81.47.61.09 1.23.12 1.86.11 1.25.01 2.52-.11 3.77-.31.31-.05.62-.1.94-.16.32-.06.65-.12.97-.16.64-.1 1.29-.17 1.93-.24 1.29-.13 2.58-.21 3.87-.25 1.29.02 2.55-.09 3.83-.34-1.21.49-2.52.76-3.79.89-1.27.17-2.54.36-3.81.57l-1.89.34c-.31.06-.62.13-.93.2l-.96.21c-1.29.24-2.59.37-3.91.38-.66-.01-1.32-.04-1.99-.15-.66-.09-1.36-.32-1.94-.53l-3.69-1.21c-2.49-.82-4.95-1.65-7.4-2.58z" fill="#cb5f6c" stroke-width="none" opacity="1"/></g></g><g id="svga-group-eyes-left-move" transform="matrix(1,0,0,1,1,0)"><g id="svga-group-eyes-left" transform="matrix(0.8999996000000001,0,0,0.8999996000000001,8.020031774822982,9.030035662234482)"><g id="svga-group-eyesback-left"><path id="SvgjsPath22087" d="M80.2 77.2c7.5 0 13.5 5.8 13.5 13s-6 13-13.5 13-13.5-5.8-13.5-13 6-13 13.5-13z" fill="#ffffff" stroke-width="none" opacity="1"/></g><g id="svga-group-eyesiriswrapper-left" transform="matrix(1,0,0,1,0,0)"><g id="svga-group-eyesiriscontrol-left" transform="matrix(1,0,0,1,0,0)"><g id="svga-group-eyesiris-left"><path id="SvgjsPath22049" d="M80.2 84.6c3.1 0 5.6 2.5 5.6 5.6s-2.5 5.6-5.6 5.6-5.6-2.5-5.6-5.6 2.5-5.6 5.6-5.6z" fill="#402e15" stroke-width="none" opacity="1"/><path id="SvgjsPath22050" d="M80.2 87.2c1.7 0 3 1.3 3 3s-1.3 3-3 3-3-1.3-3-3 1.3-3 3-3z" fill="#000000" stroke-width="none" opacity="1"/><path id="SvgjsPath22051" d="m79.5 87.8-.6-.6c-.2-.2-.5-.3-.8-.3s-.6.1-.8.3c-.2.2-.3.5-.3.8s.1.6.3.8l.6.6c.2.2.5.3.8.3s.6-.1.8-.3c.4-.6.4-1.2 0-1.6zm2.7 5.1c1 0 1-1.5 0-1.5-.9 0-.9 1.5 0 1.5z" fill="#ffffff" stroke-width="none" opacity="1"/></g></g></g><g id="svga-group-eyesfront-left"><path id="SvgjsPath22095" d="M80.2 76.7c-7.8 0-14.1 6.1-14.1 13.6s6.3 13.6 14.1 13.6 14.1-6.1 14.1-13.6S88 76.7 80.2 76.7zm-4 19.2c-4.4-1.5-5.8-6.1-6.6-9.2-.8-3.2 12.5-3.2 16-.4s4.8 6.7 5 8.7c0 0-10 2.5-14.4.9z" fill="#ecc6ae" stroke-width="none" opacity="1"/><path id="SvgjsPath22096" d="M90.7 95v-.2c0-.5-.1-1-.3-1.4-.1-.3-.2-.6-.2-.9-.5-1.8-1.3-4.1-2.7-5.6-1.1-1.2-3.7-4-8.2-4s-7.9 1.6-8.4 1.8c-.9.4-2.5 2.3-2.5 2.3s.4-.1 1.1-.3c0 .1 0 .2.1.3.1.3.2.6.2.8.2.5.3 1.1.5 1.6.4 1.1.9 2.1 1.5 3.1.6.9 1.4 1.8 2.3 2.5s2 1.2 3.1 1.4c2.3.4 4.6.2 6.8 0 2.2-.3 4.4-.7 6.7-1.4-.1 0-.1 0 0 0 0-.1 0 0 0 0zm-.1 0c-2.2.4-4.4.8-6.7 1-1.1.1-2.2.2-3.3.2-1.1 0-2.2 0-3.3-.2-2.2-.4-4.1-1.8-5.3-3.7-.6-.9-1.1-2-1.4-3-.2-.5-.3-1.1-.5-1.6-.1-.3-.1-.5-.2-.8 0-.1-.1-.2-.1-.3 2.2-.6 6.6-1.8 9.6-1.8 4.1.1 7.2 3.3 8.4 4.6 1.1 1.1 2.4 4.4 2.8 5.3v.3z" fill="#4d2c21" stroke-width="none" opacity="1"/></g></g></g><g id="svga-group-eyes-right-move" transform="matrix(1,0,0,1,-1,0)"><g id="svga-group-eyes-right" transform="matrix(0.8999996000000001,0,0,0.8999996000000001,11.98004860664824,9.030035662234482)"><g id="svga-group-eyesback-right"><path id="SvgjsPath22088" d="M119.8 77.2c7.5 0 13.5 5.8 13.5 13s-6 13-13.5 13-13.5-5.8-13.5-13 6-13 13.5-13z" fill="#ffffff" stroke-width="none" opacity="1"/></g><g id="svga-group-eyesiriswrapper-right" transform="matrix(1,0,0,1,0,0)"><g id="svga-group-eyesiriscontrol-right" transform="matrix(1,0,0,1,0,0)"><g id="svga-group-eyesiris-right"><path id="SvgjsPath22052" d="M119.8 85.3c2.7 0 4.9 2.2 4.9 4.9s-2.2 4.9-4.9 4.9-4.9-2.2-4.9-4.9 2.2-4.9 4.9-4.9z" fill="#402e15" stroke-width="none" opacity="1"/><path id="SvgjsPath22053" d="M119.8 87.5c1.5 0 2.7 1.2 2.7 2.7s-1.2 2.7-2.7 2.7-2.7-1.2-2.7-2.7 1.2-2.7 2.7-2.7z" fill="#000000" stroke-width="none" opacity="1"/><path id="SvgjsPath22054" d="M119.2 88.1c-.2-.2-.3-.4-.5-.5s-.4-.3-.7-.3c-.2 0-.5.1-.7.3-.2.2-.3.4-.3.7 0 .2.1.5.3.7.2.2.4.3.5.5s.4.3.7.3c.2 0 .5-.1.7-.3.3-.5.3-1.1 0-1.4zm2.4 4.5c.8 0 .8-1.3 0-1.3s-.8 1.3 0 1.3z" fill="#ffffff" stroke-width="none" opacity="1"/></g></g></g><g id="svga-group-eyesfront-right"><path id="SvgjsPath22097" d="M119.8 76.7c-7.8 0-14.1 6.1-14.1 13.6s6.3 13.6 14.1 13.6 14.1-6.1 14.1-13.6-6.3-13.6-14.1-13.6zm4.4 18.2c-4 1.6-13.7.1-13.7.1.1-1.8 1.2-5.3 4.3-7.9s15.7-3.4 15.1-.6c-.5 2.8-1.7 6.8-5.7 8.4z" fill="#ecc6ae" stroke-width="none" opacity="1"/><path id="SvgjsPath22100" d="M130.2 86.6s0-1.2-.8-1.5c-.6-.2-4-.9-8.3-.7-2.4.1-4.2 1-5.5 1.9-.3.1-.5.3-.8.5-.8.7-1.6 1.5-2.2 2.3-1 1.4-1.7 2.9-2 4.6-.3 1.1-.3 1.9-.3 1.9s.1-.2.2-.6c2.1.4 4.1.6 6.2.8 1 .1 2.1.1 3.1 0 1.1 0 2.1-.1 3.1-.4 1-.2 2-.7 2.9-1.3.9-.6 1.6-1.4 2.2-2.3.6-.9 1-1.8 1.3-2.8.2-.5.3-1 .4-1.5l.2-.8v-.2c.2.1.3.1.3.1zm-.4.1-.2.8c-.1.5-.2 1-.4 1.5-.3 1-.7 1.9-1.3 2.8-1.1 1.7-3 2.9-5 3.3-.5.1-1 .2-1.5.2s-1 .1-1.6.1c-1 .1-2.1 0-3.1 0-2.1-.1-4.1-.2-6.2-.4.5-1.3 1.5-4.1 2.4-5.1 1.1-1.3 3.8-4.1 7.7-4.4 3.3-.2 7.8.8 9.1 1.1.1-.1.1 0 .1.1z" fill="#4d2c21" stroke-width="none" opacity="1"/></g></g></g><g id="svga-group-facehighlight-single"/><g id="svga-group-eyebrows-left-move" transform="matrix(1,0,0,1,0,0)"><g id="svga-group-eyebrows-left-rotate" transform="matrix(1,1.7453292144864463e-9,-1.7453292144864463e-9,1,1.2995914744351467e-7,-1.3809916765694652e-7)"><g id="svga-group-eyebrows-left"><path id="SvgjsPath22137" d="M64.55 76.13s7.64-5.4 8.86-5.62 19.49 3.09 19.95 4.12c.46 1.03-.07 3.12-1.4 3.76-1.33.64-12.63-3.98-17.91-5.17-2-.45-9.5 2.91-9.5 2.91z" fill="#2a232b" stroke-width="none" opacity="1"/><path id="SvgjsPath22138" d="M64.52 76.15c.01.02.08.01.08 0l.03-.01.06-.02.12-.05.23-.09.47-.18.94-.35c.63-.23 1.26-.45 1.89-.67 1.26-.44 2.54-.84 3.83-1.12.32-.07.64-.12.96-.16.32-.03.63-.04.89.02.64.16 1.28.34 1.92.54 1.27.39 2.55.8 3.81 1.23 2.54.85 5.07 1.71 7.65 2.49.64.19 1.29.39 1.95.55.66.16 1.32.33 2.04.38.19 0 .37.02.62-.06l.09-.03.06-.04.12-.07c.08-.04.15-.1.23-.16.29-.23.51-.51.69-.8.34-.59.52-1.24.53-1.9 0-.33-.03-.67-.16-.99-.02-.05-.02-.07-.06-.13-.04-.07-.09-.09-.13-.13-.08-.06-.16-.1-.24-.14-.16-.08-.32-.13-.48-.19-.65-.22-1.3-.39-1.95-.55-1.31-.33-2.62-.61-3.94-.9-2.63-.58-5.25-1.18-7.9-1.68-1.33-.24-2.66-.47-4.01-.63-.34-.04-.68-.08-1.03-.09-.09 0-.18-.01-.28-.01-.05 0-.1 0-.17.01-.06.01-.1.03-.15.04-.21.06-.36.14-.52.22-.62.32-1.18.67-1.74 1.02-1.12.71-2.19 1.48-3.27 2.24-.54.38-1.07.77-1.59 1.17l-.79.59-.39.3-.19.15-.1.08c-.05.01-.1.08-.12.12zm.92-.49-.34.16.32-.2.83-.53 1.67-1.06c1.11-.71 2.23-1.41 3.36-2.09.56-.34 1.14-.67 1.71-.95l.21-.1c.07-.04.13-.04.19-.07l.09-.03h.08c.07 0 .15 0 .23.01.32.02.65.06.98.1 1.32.18 2.65.38 3.98.59 1.33.2 2.66.4 3.99.62 1.33.22 2.65.45 3.97.72 1.32.27 2.63.57 3.92.92.65.17 1.29.36 1.9.6.15.06.3.12.44.19.07.04.13.07.18.11.02.02.05.04.04.04.01 0 .02.06.03.08.09.27.11.57.09.87a3.7 3.7 0 0 1-.57 1.69c-.17.25-.37.47-.6.64-.06.04-.12.09-.18.12l-.09.05-.05.03h-.03c-.07.03-.24.02-.38.01-.62-.06-1.27-.24-1.91-.42-.64-.18-1.28-.38-1.91-.58-2.54-.82-5.05-1.74-7.61-2.57-1.28-.41-2.56-.82-3.86-1.17-.65-.18-1.31-.35-1.98-.49-.4-.09-.77-.05-1.12 0-.35.05-.69.12-1.02.2-1.33.34-2.58.82-3.83 1.32-.62.25-1.23.52-1.84.79l-.89.4z" fill="#1b141c" stroke-width="none" opacity="1"/></g></g></g><g id="svga-group-eyebrows-right-move" transform="matrix(1,0,0,1,0,0)"><g id="svga-group-eyebrows-right-rotate" transform="matrix(1,1.7453292144864463e-9,-1.7453292144864463e-9,1,1.3655456143624178e-7,-2.1299837271726574e-7)"><g id="svga-group-eyebrows-right"><path id="SvgjsPath22139" d="M135.56 80.74s-6.82-5.75-7.95-6.03c-1.13-.28-18.27 2.16-18.75 3.17-.48 1.01-.1 3.12 1.11 3.82s11.94-3.37 16.91-4.31c1.88-.36 8.68 3.35 8.68 3.35z" fill="#2a232b" stroke-width="none" opacity="1"/><path id="SvgjsPath22140" d="m135.5 80.64-.09-.08-.17-.16-.35-.32-.7-.63c-.47-.42-.94-.84-1.42-1.24-.96-.81-1.92-1.62-2.93-2.39-.5-.38-1.01-.76-1.56-1.1-.14-.08-.28-.17-.47-.24-.05-.02-.09-.04-.14-.05-.06-.01-.12-.02-.16-.02-.09-.01-.18-.01-.26-.01-.33 0-.64.02-.96.05-1.26.1-2.51.26-3.76.44-2.49.37-4.96.85-7.43 1.3-1.24.23-2.47.45-3.7.72-.61.14-1.23.28-1.84.46-.15.05-.31.1-.46.17-.08.03-.15.07-.23.13-.04.04-.08.06-.13.12-.04.06-.04.09-.06.13-.13.32-.18.65-.2.98-.02.66.12 1.32.4 1.93.15.3.34.59.6.83.06.06.13.12.2.17l.11.08.06.04.08.04c.23.09.39.08.57.09.68-.02 1.29-.15 1.92-.28.62-.13 1.23-.3 1.84-.46 2.43-.66 4.83-1.4 7.24-2.13 1.2-.37 2.4-.72 3.6-1.05.6-.16 1.21-.32 1.81-.44.24-.06.54-.03.83.02.29.05.59.12.89.21 1.18.35 2.35.81 3.5 1.3.57.25 1.15.5 1.72.76l.85.4.43.2.21.1.11.05.05.03.03.01c-.01 0 .06.02.07 0a.339.339 0 0 0-.1-.16zm-1.56-.86c-.55-.3-1.11-.6-1.67-.88-1.13-.55-2.27-1.1-3.49-1.5-.31-.1-.62-.18-.94-.25-.32-.06-.67-.11-1.04-.05-.63.11-1.25.25-1.86.39-1.23.29-2.44.64-3.65.99-2.41.71-4.8 1.5-7.2 2.21-.6.17-1.2.34-1.81.49-.6.15-1.21.29-1.79.33-.13.01-.29 0-.36-.03l-.03-.01-.04-.03-.08-.06a.653.653 0 0 1-.16-.13c-.21-.18-.39-.41-.53-.67a3.91 3.91 0 0 1-.44-1.71c0-.3.03-.6.13-.86.01-.03.03-.08.03-.08l.04-.04c.05-.04.11-.07.18-.1.13-.07.28-.12.42-.17.58-.21 1.19-.36 1.8-.5 1.22-.29 2.45-.53 3.69-.73 1.24-.21 2.48-.37 3.73-.53 1.25-.16 2.49-.3 3.74-.43 1.25-.14 2.49-.28 3.73-.4.31-.03.62-.05.92-.06h.21c.03 0 .06.01.07.01.02.01.05.02.08.03.06.03.11.04.17.08l.19.11c.52.31 1.04.66 1.54 1.03 1.01.73 2.02 1.48 3.02 2.24l1.5 1.14.75.57.28.22-.31-.18-.82-.44z" fill="#1b141c" stroke-width="none" opacity="1"/></g></g></g><g id="svga-group-nose-single-move" transform="matrix(1,0,0,1,0,2)"><g id="svga-group-nose-single"><path id="SvgjsPath22127" d="M109.52 109.12c-.37-.88-.94-1.63-1.59-2.29.5.77.95 1.58 1.22 2.42.13.42.21.86.14 1.25-.04.2-.1.36-.23.53-.12.17-.25.34-.41.47-.61.58-1.49.8-2.35.68-.43-.05-.87-.17-1.28-.35-.39-.14-.76-.35-1.13-.54.33-.49.63-1.01.89-1.55-.86.8-1.66 1.61-2.52 2.32-.43.35-.86.7-1.32.96-.45.27-.94.48-1.33.46-.1.01-.18-.02-.27-.03-.08-.05-.15-.05-.26-.14-.21-.13-.43-.31-.65-.48-.44-.34-.87-.72-1.31-1.08-.87-.74-1.75-1.48-2.69-2.17.44.7.95 1.34 1.47 1.97-.44.2-.89.36-1.34.46-.56.11-1.15.13-1.62-.09-.95-.47-1.51-1.61-1.35-2.58.04-.25.12-.44.26-.65.15-.23.32-.46.49-.69.35-.45.72-.9 1.11-1.33l.58-.65c.23-.25.4-.49.58-.74.36-.5.68-1.03.94-1.61.26-.57.42-1.23.52-1.81.1-.59.2-1.18.26-1.77.13-1.18.24-2.36.27-3.55.08-2.37.02-4.76-.45-7.08.05 2.36-.12 4.7-.35 7.03-.13 1.16-.26 2.33-.44 3.48-.09.58-.18 1.15-.28 1.72-.11.58-.23 1.07-.47 1.57-.22.5-.5.99-.82 1.45-.16.23-.33.47-.5.65-.2.23-.39.45-.58.68-.38.46-.74.94-1.09 1.43-.17.25-.35.5-.5.77-.18.29-.3.67-.32 1-.11 1.38.74 2.67 1.98 3.12.64.2 1.29.1 1.86-.1.47-.16.9-.4 1.31-.67.21.25.41.5.63.74.39.44.8.84 1.24 1.25.22.2.45.39.72.57.11.09.32.19.5.27.19.05.39.1.58.1.77 0 1.36-.33 1.88-.66.51-.36.96-.75 1.36-1.2.39-.42.74-.87 1.06-1.34.66.58 1.44 1.09 2.36 1.27.47.1.98.11 1.46 0 .48-.12.94-.36 1.31-.7.19-.17.34-.37.48-.57.15-.2.26-.48.28-.73.03-.54-.1-1.03-.29-1.47z" fill="#be7d53" stroke-width="none" opacity="1"/></g></g><g id="svga-group-hair-front" transform="matrix(0.9799998000000001,0,0,0.9998998000000001,1.9557746387275614,0.012349648279936787)"><path id="SvgjsPath22176" d="m125.2 36.6-2.9-3.2s-7.5-5.8-12.1-5.3-37.8-.5-42.2 4.4c-4.4 4.8-21.3 26.4-21.1 32.2.2 5.8 1.7 16.2 2.2 18.4s6.1 1.4 6.3 2.9c.2 1.4.7 7 .7 10.2s-4.8 4.8-5.3 6.1 2.7 13.1 3.2 16c.5 2.9 6.8 2.7 6.8 5.6 0 2.9-4.1 2.9-4.1 2.9l3.2 8s0-3.1.5-4.6 6.3-.7 6.1-3.2c-.2-2.4.5-6.3 0-9.2-.5-2.9-5.8-1.9-7.3-2.2s-.7-6.8.2-9.7c1-2.9 6.8-5.3 6.8-5.3s1.7-8.7 1.4-10.2c-.2-1.4-8.2-10.2-7.8-12.1.5-1.9 6.5-15.5 9-15.8 2.4-.2 37.3-2.4 42.4-5.3 5.1-2.9 12.8-14.3 12.8-14.3l1.2-6.3m-.5 0 7.5.8s6.8 5.8 8 8.2c1.2 2.4 8.7 15.5 8.7 19.6 0 4.1-1 17.5-1 17.5s-2.4 12.6-2.7 13.8-5.6 7.3-5.6 9.7 1.9 9.4 1.9 9.4l-4.6-5.3s-.7-5.8-.7-7.8 3.1-6.3 3.9-6.5.5-16 .5-16-8.2-12.6-10.2-16.2-6.3-14.1-6.3-14.1l-.9-6.6 1.5-6.5zM82.9 143.8s-8.7-.7-11.1-.2c-2.4.5-6.4 2.8-6.4 2.8-1.5-2.6-5.4-6.5-6.8-7.4-1.5-.9-2.5-.3-2.5-.3s-5.2 10.3-5.2 11.1 2.3 8.4 2.3 8.4l-5.8 7.4 3.3 6.2c-1.5 1.8-4 5-4.2 5.3-.4.4 1.3 10.7 2.3 12.6.9 1.9 12.8 9.3 12.8 9.3l.8 5.4s2.1-5.2 2.1-6.9-1.1-4.8-1.1-4.8 3.4 4.7 3.6 5.5c.2.9-.9 11.1-.9 11.1l3.2 4.1s-1.1-3.5-.6-5.5 9-19.6 9-19.6-3.2-13.1-7.2-15.9l-3.9-1.4c2-1.1 3.8-2.2 4.5-2.9 1.7-1.6 4.3-7.4 4.3-7.4 3.9-1.6 7.1-6.3 7.1-6.3 1.6-3.3.4-10.6.4-10.6z" fill="#2a232b" stroke-width="none" opacity="1"/><path id="SvgjsPath22177" d="M109.6 47.9c-.9.7-1.8 1.3-2.7 1.9-.5.3-.9.4-1.5.5-.6.1-1.1.2-1.7.3-2.2.3-4.5.5-6.7.8-9 .9-17.9 1.9-26.9 2.9-1.1.1-2.2.3-3.4.4-.3 0-.6.1-.9.2-.3.1-.5.3-.7.6-.4.4-.7.9-1.1 1.3-1.3 1.9-2.4 3.8-3.6 5.8-2.3 3.9-4.5 7.8-6.5 11.9l-.8 1.5c-.1.3-.2.5-.4.9v.4c0 .1 0 .2.1.3.1.2.1.3.2.4.6 1.1 1.3 1.9 2 2.8 1.4 1.8 2.9 3.4 4.4 5.2.7.9 1.4 1.7 2.1 2.6.3.4.7.9.9 1.4.3.4.5.9.6 1.3.3 2 .1 4.2-.3 6.3-1.8.9-3.5 1.8-5.2 2.8-.9.5-1.8 1.1-2.6 1.8-.4.3-.8.7-1.2 1.2-.2.2-.4.5-.4 1l.1.8c.7 4.1 1.3 8.1 2.1 12.2v.2l.2.1c1.7.6 3.4 1.2 5.1 1.9l1.2.6c.1.1.2.1.2.2s.1.2.1.3c.1.2.1.4.2.7.2.9.2 1.8.3 2.7h.1c0-.9-.1-1.8-.2-2.7 0-.2-.1-.4-.1-.7 0-.1-.1-.2-.1-.3l-.3-.3c-.4-.3-.8-.5-1.2-.7-1.6-.8-3.2-1.4-4.9-2-.5-4-1.1-8-1.7-12l-.1-.8.2-.4 1-1c.8-.6 1.7-1.1 2.5-1.7 1.8-1 3.6-2 5.4-2.9l.2-.1v-.2c.4-2.3.7-4.6.4-6.9-.2-.7-.5-1.2-.8-1.7-.3-.5-.7-1-1-1.4-.7-.9-1.4-1.8-2.2-2.6-1.5-1.7-3-3.4-4.4-5.1-.7-.9-1.4-1.7-2-2.6-.1-.2-.2-.5-.2-.5 0-.1.2-.5.3-.7l.7-1.5c2-4 4-8.1 6.2-12 1.1-2 2.2-3.9 3.5-5.8.3-.5.7-.9 1-1.3.2-.2.4-.4.6-.5.3 0 .5-.1.8-.2 1.1-.2 2.2-.3 3.3-.4 9-.9 18-1.3 26.9-2.3 2.2-.3 4.5-.5 6.7-.8.6-.1 1.1-.2 1.7-.3.6-.1 1.2-.3 1.7-.6 1-.6 1.9-1.3 2.8-2 3.5-2.8 6.9-5.8 10.2-8.9l-.1-.1c-3.1 2.2-6.6 5.1-10.1 7.8zm40 15.7c-.5-2.2-1.4-4.1-2.3-6.1-1.8-3.9-3.9-7.6-5.9-11.2-.3-.5-.5-.9-.8-1.4-.3-.5-.7-.9-1-1.3-.7-.8-1.5-1.6-2.3-2.3-1.6-1.5-3.1-2.9-4.8-4.2l-.1-.1h-.1l-7-.4-2.8-3.2c-1.4-1.1-2.9-2.1-4.4-3-1.6-.9-3.2-1.7-4.9-2.2-.9-.2-1.8-.4-2.8-.4-.9.1-1.8.1-2.6.1h-5.3c-7.1 0-14.2 0-21.4.7-1.8.2-3.6.4-5.3.6-1.8.3-3.6.6-5.3 1.2-.9.3-1.8.7-2.6 1.4l-.5.5-.4.5-.9 1c-1.2 1.4-2.3 2.8-3.4 4.2-4.7 5.6-9 11.3-12.7 17.5-.9 1.5-1.8 3.1-2.5 4.8-.4.8-.7 1.7-1 2.6-.1.5-.2.9-.3 1.4v1.4c.3 3.6.7 7.1 1.2 10.6.3 1.8.5 3.5.8 5.3.1.4.2.9.3 1.3 0 .1 0 .2.1.3 0 .1.1.3.2.4.2.2.3.5.6.6.9.6 1.8.7 2.7.9.9.2 1.8.3 2.5.6l.2.1c0 .1.1.1.1.1s.1.3.1.5l.2 1.3c.2 1.8.3 3.5.4 5.3 0 .9.1 1.8.1 2.7 0 .9-.2 1.6-.7 2.3-1 1.4-2.6 2.2-4 3.3-.2.2-.4.3-.5.6-.1.1-.1.3-.1.4v.4c0 .5.1.9.1 1.4.1.9.3 1.8.5 2.6.3 1.8.8 3.5 1.1 5.2.4 1.7.8 3.5 1.1 5.2.1.4.1.8.3 1.3l.1.4.2.3c.1.2.3.4.5.6.8.7 1.6 1 2.4 1.4.8.3 1.7.7 2.3 1.1.4.2.6.5.8.7.2.3.2.6.2.9-.1 1.5-2 2.1-3.6 2.1h-.8l.4 1.1 3 8 1.3 3.3.1-3.6c0-1 .1-2 .2-2.9.1-.5.2-.9.3-1.4v-.1s.1 0 .1-.1l.2-.1.3-.1c.9-.2 1.9-.4 2.9-.6.5-.1 1.1-.3 1.7-.7.1-.1.3-.2.4-.4.1-.1.3-.3.3-.5.1-.2.2-.4.2-.6v-.5c-.1-1.8.2-3.9.2-5.9 0-1 0-2.1-.1-3.2-.1-.6-.4-1.4-1-1.8-.5-.4-1.1-.7-1.7-.8-1.1-.3-2.2-.3-3.2-.3h-1.9c-.1-.3-.2-.7-.2-1.2v-1.4c0-1 .2-1.9.3-2.9s.4-1.9.6-2.8c.2-.8.8-1.4 1.4-2 1.4-1.2 3.2-2.2 4.9-2.9l.5-.2.1-.5c.4-2.2.8-4.3 1.2-6.5.2-1.1.3-2.2.4-3.4v-.6c0-.1-.1-.3-.1-.4l-.1-.3c-.2-.3-.3-.6-.5-.8-.3-.5-.7-.9-1-1.4-1.3-1.8-2.7-3.5-4-5.2-.6-.9-1.2-1.8-1.7-2.6l-.3-.6c-.1-.2-.1-.4-.1-.3 0 0 0 .1 0 0v-.2l.1-.3.3-.7c.8-2 1.7-4 2.7-5.9 1-1.9 2-3.9 3.1-5.6.3-.4.6-.9.9-1.2.3-.4.7-.8.9-.9.1 0 0 0 0 0h.4l.8-.1 1.6-.1 6.6-.6c4.4-.4 8.8-.8 13.1-1.3 4.4-.5 8.7-1 13.1-1.8 2.2-.4 4.3-.8 6.5-1.7 1.1-.5 1.9-1.2 2.8-2 .8-.8 1.6-1.5 2.4-2.4 2.6-2.8 4.8-5.9 7-9 .2 1.7.3 3.5.5 5.2v.2c1.1 2.7 2.1 5.4 3.2 8 1.2 2.6 2.2 5.3 3.7 7.9 1.4 2.5 2.9 5 4.5 7.4 1.5 2.3 3 4.7 4.5 7l.1 7.6v3.9c0 .7 0 1.3-.1 1.9l-.1.9c0 .2-.1.5-.1.6-.2.2-.3.3-.5.4-.3.3-.5.6-.7.8-.4.6-.8 1.1-1.2 1.7s-.7 1.2-1 1.8c-.3.7-.6 1.3-.6 2.2 0 .8.1 1.4.1 2.1l.2 2c.2 1.3.3 2.6.5 3.9v.2l.1.2 4.7 5.2 1.8 2-.8-2.6c-.8-2.8-1.6-5.6-2.1-8.4 0-.3-.1-.7-.1-1 0-.3.1-.6.2-.9.2-.7.6-1.3.9-1.9.7-1.2 1.6-2.4 2.4-3.6l1.2-1.8c.2-.3.4-.6.6-1 .1-.4.1-.7.2-1.1l.9-4.3c.6-2.9 1.2-5.7 1.8-8.6.4-4.2.8-8.4 1.1-12.6l.2-3.2c0-.5.1-1.1.1-1.6.6-.7.5-1.3.4-1.8zM123 43v.1c0 .2.1.5.1.7-2.4 3.2-4.9 6.3-7.6 9.1-.8.8-1.5 1.5-2.4 2.2-.8.7-1.7 1.4-2.6 1.8-1.9.8-4.1 1.1-6.2 1.4-8.6 1.2-17.4 2-26.1 2.6l-6.6.5-1.6.1-.8.1h-.4c-.2 0-.6.1-.7.2-.8.4-1.1.9-1.5 1.4-.4.5-.7.9-1 1.4-1.3 1.9-2.3 3.9-3.3 5.8-1 2-1.9 4-2.8 6.1l-.5.8-.2.4v.3c0 .1 0 .2-.1.4 0 .6.1.9.2 1.3.1.3.3.6.4.9.6 1.1 1.2 2 1.8 2.9 1.3 1.8 2.7 3.5 4 5.3.3.4.6.9.9 1.3.1.2.3.4.4.6V91c0 .9-.2 2.1-.3 3.1-.3 2-.6 4-1 5.9-1.7.8-3.4 1.8-4.9 3.1l-1.2 1.2c-.2.2-.3.5-.5.8-.1.3-.3.6-.3.9-.3 1-.5 2.1-.7 3.1-.2 1-.3 2.1-.3 3.1v1.6c0 .6.1 1.1.3 1.8l.3.6c.2.2.4.4.8.5.5.1.7.1 1 .1h1.5c1 0 1.9 0 2.8.2.4.1.8.3 1 .5.2.2.3.4.4.8.2.9.2 1.9.2 2.8 0 2-.3 3.9-.1 6.1V127.5s0 .1-.1.1c0 0-.1.1-.2.1-.2.2-.7.3-1.1.5-.9.2-1.9.4-3 .7l-.4.1-.5.2c-.2.1-.3.2-.5.4s-.3.5-.3.6c-.2.5-.2 1-.3 1.5l-1.8-4.3c.7-.1 1.3-.3 2-.6.9-.4 1.8-1.4 1.8-2.5.1-.5-.1-1.1-.4-1.6-.3-.4-.7-.8-1.2-1-.8-.5-1.7-.8-2.5-1.1s-1.6-.7-2.2-1.2l-.4-.4-.2-.2-.1-.2c-.1-.3-.2-.9-.3-1.3l-1.2-5.2c-.4-1.7-.8-3.5-1.2-5.2-.2-.9-.4-1.7-.5-2.6-.1-.4-.1-.9-.1-1.3v-.3c0-.1 0-.2.1-.2.1-.1.2-.3.4-.4 1.3-1.1 3-1.9 4.1-3.5.3-.4.5-.8.6-1.3.2-.5.2-1 .2-1.4 0-.9 0-1.8-.1-2.7-.1-1.8-.2-3.6-.4-5.3l-.2-1.3c0-.2 0-.4-.2-.8l-.3-.3-.3-.2c-.9-.4-1.8-.4-2.7-.6-.8-.2-1.8-.3-2.3-.8-.2-.1-.2-.2-.3-.4 0-.1 0-.1-.1-.2 0-.1 0-.2-.1-.3-.1-.4-.2-.9-.2-1.3-.3-1.8-.5-3.5-.7-5.3-.4-3.5-.8-7.1-.9-10.6-.1-.9 0-1.6.2-2.4.2-.8.6-1.6 1-2.4.8-1.6 1.6-3.1 2.6-4.6 3.8-6 8-11.7 12.4-17.2 1.1-1.4 2.2-2.8 3.3-4.1l.8-1 .4-.5c.1-.2.3-.3.4-.4.5-.4 1.2-.8 2-1.1 1.6-.6 3.3-.9 5-1.2 1.7-.3 3.5-.5 5.2-.7 7-.6 14.2-.9 21.2-1.1l5.3-.1c.9 0 1.8-.1 2.7-.2.8-.1 1.7.1 2.5.2 3.3.9 6.4 2.8 9.3 4.8l2.5 2.9L123 43zm25 23.9-.1 3.1c-.1 4.2-.3 8.4-.5 12.6-.5 2.9-1 5.7-1.5 8.6l-.8 4.3c-.1.3-.1.8-.2 1s-.3.6-.5.9l-1.2 1.8c-.9 1.2-1.7 2.4-2.5 3.6-.4.6-.8 1.3-1.1 2-.1.4-.3.7-.3 1.2-.1.4 0 .8 0 1.2.2 2.1.6 4.1 1.1 6l-2.6-3.2c-.1-1.2-.2-2.5-.4-3.7l-.1-1.9c0-.6-.1-1.3-.1-1.9 0-.4.2-1 .5-1.5.3-.6.6-1.1.9-1.6.3-.5.7-1 1.1-1.5.2-.2.4-.5.6-.7l.2-.2c.1-.1-.1.1 0 0s.3-.2.4-.3c.1-.1.1-.2.1-.2v-.1c0-.1.1-.2.1-.3.1-.5.1-.8.2-1.2l.1-1c.1-.7.1-1.3.1-2 .1-1.3.1-2.7.1-4 .1-2.6 0-5.3 0-7.9v-.3l-.2-.3-4.7-7.2c-1.6-2.4-3.1-4.8-4.6-7.3-1.5-2.4-2.7-5-3.9-7.6l-3.6-7.8c-.3-2-.6-4-1-5.9.1-.2.3-.4.4-.6l1.1-6.2 6.8 1c1.5 1.4 3 2.8 4.4 4.3.7.8 1.4 1.5 2.1 2.3l.9 1.2c.2.3.5.9.7 1.4 1.9 3.8 3.9 7.5 5.6 11.3.8 1.9 1.7 3.8 2.1 5.7.1.5.2.9.2 1.4l.1 1.5zM75.5 179.5c-.6-1.4-1.2-2.7-1.9-4.1-.7-1.3-1.6-2.6-2.9-3.6h-.2l-5.3-1.8H65c-4.5.1-9 .2-13.4.4l13.3.4 5.1 2c1 .8 1.8 2.1 2.4 3.3.7 1.3 1.2 2.6 1.7 4 1 2.6 1.8 5.4 2.4 8.1-2 4-3.9 8-5.8 12-1 2.1-1.9 4.1-2.8 6.2-.2.5-.5 1.1-.6 1.8-.1.5-.1.9-.1 1.4l-.5-.6c.3-2.8.6-5.6.8-8.4l.1-1.1V198.2c0-.1-.1-.3-.2-.5l-.2-.3c-.1-.2-.2-.4-.3-.5-.2-.3-.4-.7-.6-1-.8-1.3-1.7-2.5-2.6-3.7l-4-5.5 2.3 6.4c.3.9.6 1.9.8 2.8.1.5.2.9.2 1.4v.6c0 .2-.1.4-.1.7-.2.8-.4 1.6-.7 2.5l-.3-1.9-.1-.4-.3-.2c-2.6-1.6-5.2-3.3-7.8-5-1.3-.9-2.5-1.8-3.7-2.7-.3-.2-.6-.5-.8-.7-.2-.1-.2-.2-.3-.4-.1-.1-.2-.2-.2-.4-.3-.7-.5-1.4-.6-2.2-.7-3-1.4-6-1.7-9.1v-.7l.2-.2.7-.9 1.4-1.9 2.8-3.8-3 3.6L47 176l-.8.9-.2.2c0 .1-.1.1-.1.2v.9c.2 3.1.7 6.2 1.3 9.3.2.8.3 1.5.6 2.3.1.4.5.9.7 1.2l.9.9c1.2 1.1 2.5 2 3.7 2.9 2.4 1.8 4.9 3.4 7.4 5.1l.7 5 .4 3.3 1.2-3.1c.4-1 .8-1.9 1.1-2.9.3-1 .7-2 .9-3 .1-.3.1-.6.2-.8v-.6c.1.1.2.3.2.4.1.1.2.3.2.4l.1.2v.9l-.1 1.1c-.2 2.9-.6 5.9-.9 8.8v.4l.2.3 3.2 4.1 3.3 4.3L70 213c-.3-1-.6-2.1-.7-3.1-.1-.5-.1-1 0-1.5.1-.4.2-.9.4-1.4.8-2 1.8-4.1 2.7-6.2l5.7-12.3.1-.3-.1-.3c-.6-2.8-1.5-5.6-2.6-8.4zm-13.9-36.2c.2.3.3.8.4 1.2l.4 1.3c.5 1.8 1 3.6 1.6 5.3-.2-1.9-.5-3.7-.9-5.5l-.3-1.4-.1-.7c0-.2-.1-.5-.2-.8-.5-.9-1.1-1.6-1.7-2.4-2.5-2.8-5.2-5.4-8.1-7.6 1.2 1.4 2.4 2.8 3.7 4.2 1.2 1.4 2.5 2.7 3.7 4.1.5.9 1.1 1.6 1.5 2.3zm.3 17.4-.1-.1c-.8-.7-1.5-1.4-2.3-1.9-.4-.3-.8-.6-1.3-.9-.4-.3-.9-.5-1.4-.7.8.7 1.4 1.4 2.1 2.1.7.7 1.4 1.3 2.1 2 .5 1.8 1.1 3.5 2 5.1-.2-1.9-.6-3.7-1.1-5.6zm15.9-13c-.7 1-1.3 1.9-2 2.8-.3.5-.7.9-1.1 1.3-.2.2-.4.4-.5.6l-.3.2c-.1 0-.2.1-.2.1-1.8.6-3.7 1.2-5.5 1.8l-2.8 1c-.9.4-1.8.7-2.7 1.1.9-.2 1.9-.4 2.8-.6l2.8-.7c1.8-.5 3.7-1 5.5-1.6.2-.1.3-.1.4-.2l.3-.3.6-.6c.4-.4.7-.9 1.1-1.4.7-1 1.3-2 1.9-3 1.2-2.1 2.4-4.2 3.5-6.4l-1.9 3c-.6.9-1.2 1.9-1.9 2.9zm-13.2 22.8 6-3.4 3.3-7.7s6.6-4.8 7.1-5.4c.6-.7 1.1-3.1 1.1-4.1s.2-7.7.2-7.7.4 1.8.7 3.3.7 3.8-.1 7.6-7.6 7.4-7.6 7.4-2 5.3-4.3 7.4l-4.5 2.9-1.9-.3z" fill="#0c080c" stroke-width="none" opacity="1"/></g><g id="svga-group-glasses-single-move" transform="matrix(1,0,0,1,0,0)"><g id="svga-group-glasses-single"/></g></g></g></g><rect id="svga-credit-rect" width="200" height="15" x="0" y="185" fill="#ecf0f1" opacity="0.5" style="display: none;"/><text id="svga-credit-text" font-family="Avenir Next, Roboto, Helvetica, Arial, sans-serif" font-size="10px" text-anchor="start" font-weight="400" size="10px" anchor="start" weight="400" fill="#333333" x="33.311859130859375" y="182.60824728012085" style="display: none;"><tspan id="SvgjsTspan21956" dy="13" x="33.311859130859375">Created on AvatarMaker.com</tspan></text></g><defs id="SvgjsDefs21908"/></svg>