<?xml version="1.0" standalone="no"?>
<!DOCTYPE svg PUBLIC "-//W3C//DTD SVG 20010904//EN"
 "http://www.w3.org/TR/2001/REC-SVG-20010904/DTD/svg10.dtd">
<svg version="1.0" xmlns="http://www.w3.org/2000/svg"
 width="500.000000pt" height="500.000000pt" viewBox="0 0 500.000000 500.000000"
 preserveAspectRatio="xMidYMid meet">

<g transform="translate(0.000000,500.000000) scale(0.100000,-0.100000)"
fill="#000000" stroke="none">
<path d="M3222 4549 c-59 -73 -85 -95 -195 -165 -260 -164 -409 -265 -453
-306 -26 -24 -86 -89 -135 -145 -93 -108 -105 -131 -221 -398 -33 -77 -66
-146 -73 -154 -22 -23 -41 -6 -65 61 -13 34 -50 124 -82 198 -93 213 -109 280
-134 572 -12 149 -44 138 -255 -89 -90 -97 -190 -203 -221 -235 -32 -32 -67
-77 -78 -99 -12 -22 -36 -57 -54 -77 -18 -20 -43 -56 -55 -79 -12 -24 -35 -64
-51 -90 -34 -54 -38 -93 -11 -117 10 -9 36 -58 57 -109 48 -115 58 -88 14 42
-34 102 -39 183 -14 219 33 48 62 18 100 -105 14 -45 29 -85 35 -88 13 -9 12
2 -15 95 -42 144 -48 179 -36 215 6 18 17 36 25 38 34 14 60 -56 135 -358 52
-211 68 -351 43 -376 -18 -18 -33 16 -78 177 -24 86 -49 162 -56 168 -15 15
-8 -21 53 -239 56 -202 78 -329 61 -346 -7 -7 -17 0 -33 26 -12 20 -24 34 -26
32 -2 -2 10 -52 26 -113 30 -108 39 -194 21 -194 -6 0 -13 5 -16 10 -9 14 -35
12 -35 -2 0 -7 16 -56 35 -108 41 -107 63 -236 45 -254 -15 -15 -17 -12 -116
233 -93 232 -159 377 -176 387 -19 12 1 -45 83 -234 123 -284 166 -420 140
-437 -19 -11 -53 42 -147 225 -52 102 -116 226 -143 276 -26 50 -58 125 -71
168 -25 80 -40 84 -40 11 1 -67 55 -264 104 -375 89 -200 183 -319 309 -390
81 -46 91 -62 111 -187 10 -59 26 -139 36 -178 28 -101 34 -166 22 -222 -13
-58 -171 -442 -243 -590 -52 -106 -58 -138 -24 -138 13 0 23 12 34 40 8 22 63
155 123 296 122 288 133 302 253 363 112 56 331 136 373 136 22 0 65 -9 98
-20 104 -36 168 -49 287 -60 193 -17 448 18 637 86 100 36 391 159 460 195 30
15 107 53 171 83 105 50 507 304 567 359 25 23 29 62 7 71 -8 3 -28 0 -43 -6
-42 -19 -295 -12 -453 11 -74 11 -229 40 -345 65 -265 57 -351 68 -494 66
-197 -2 -223 -5 -290 -32 -36 -14 -91 -31 -122 -38 -41 -8 -68 -21 -100 -49
-24 -21 -63 -51 -88 -66 -67 -42 -162 -114 -188 -144 -56 -62 -191 -250 -197
-274 -4 -14 2 -57 14 -101 26 -95 26 -108 0 -124 -39 -24 -297 -122 -322 -122
-14 0 -28 7 -31 16 -10 26 74 225 251 589 90 187 171 350 179 362 10 16 24 23
48 23 39 0 300 54 371 77 174 56 364 207 498 395 62 87 149 239 223 391 90
185 126 346 125 563 -1 140 -12 236 -47 387 -14 63 -26 149 -28 206 -1 53 -6
103 -10 109 -11 19 -45 14 -64 -9z m13 -160 c13 -20 65 -254 81 -363 24 -160
15 -368 -20 -501 -35 -130 -140 -347 -251 -515 -96 -146 -229 -290 -332 -359
-122 -81 -278 -129 -439 -133 -78 -3 -89 -1 -92 15 -4 20 192 426 266 550 78
130 255 483 295 587 20 52 67 147 105 210 38 63 86 147 107 185 21 39 72 115
113 170 115 153 149 185 167 154z m-135 -26 c0 -4 -18 -37 -40 -75 -62 -103
-99 -113 -85 -22 5 37 13 50 47 74 38 28 78 39 78 23z m-195 -130 c3 -10 9
-45 12 -78 4 -46 1 -69 -11 -93 -29 -56 -56 -37 -56 38 0 73 -16 86 -58 48
l-24 -23 4 30 c2 23 14 38 52 63 55 36 71 39 81 15z m-1080 -173 c25 -197 62
-321 159 -537 64 -142 80 -195 121 -394 33 -155 36 -185 32 -279 -5 -110 -36
-237 -81 -335 -39 -86 -183 -291 -237 -338 -76 -66 -138 -97 -201 -100 l-53
-2 -18 54 c-10 30 -23 106 -29 170 -13 150 -5 643 12 691 7 19 12 72 11 117
-2 59 3 92 15 120 14 29 18 69 20 168 1 89 8 161 23 229 25 119 26 154 4 178
-13 15 -18 43 -21 118 -5 122 -1 140 44 190 74 82 83 34 29 -141 -20 -63 -35
-127 -33 -144 2 -24 9 -11 32 60 92 291 114 341 142 313 7 -7 20 -69 29 -138z
m974 38 c5 -13 12 -61 15 -108 7 -79 6 -88 -15 -113 -12 -16 -25 -25 -30 -20
-5 5 -11 47 -15 93 -9 121 20 215 45 148z m-93 -16 c7 -14 10 -89 10 -200 -1
-156 -4 -182 -20 -207 -29 -43 -35 -18 -47 187 -11 167 -10 187 5 217 19 35
35 36 52 3z m-116 -77 c8 -10 18 -96 27 -242 12 -190 12 -235 1 -267 -13 -40
-41 -66 -55 -53 -4 4 -10 81 -14 170 -4 89 -10 210 -13 269 -5 89 -4 109 10
122 19 20 28 20 44 1z m-1044 -102 c13 -56 18 -156 16 -265 -3 -95 -24 -92
-47 5 -18 75 -32 274 -21 302 13 34 40 11 52 -42z m956 -58 c3 -33 9 -166 13
-295 7 -234 7 -235 -15 -263 -14 -18 -26 -25 -32 -19 -5 5 -14 70 -19 143 -5
74 -16 194 -25 267 -17 144 -14 174 19 210 34 37 51 25 59 -43z m-1065 13 c13
-17 58 -223 78 -355 19 -127 19 -203 1 -228 -13 -18 -14 -18 -25 3 -6 12 -23
72 -37 134 -14 61 -38 159 -55 217 -33 120 -36 171 -12 212 19 31 35 36 50 17z
m943 -172 c11 -30 27 -179 40 -376 l9 -145 -40 -82 c-22 -46 -45 -86 -50 -89
-30 -18 -42 32 -68 291 -26 255 -22 315 21 323 18 3 25 -17 48 -132 16 -80 30
-52 19 39 -14 121 -11 195 8 195 2 0 8 -11 13 -24z m-156 -353 c13 -64 36
-236 36 -273 0 -22 -4 -40 -10 -40 -22 0 -76 259 -65 311 8 37 32 38 39 2z m1
-436 c4 -13 5 -48 3 -78 -2 -40 -7 -54 -18 -54 -11 0 -16 13 -18 45 -6 83 18
147 33 87z m65 13 c0 -5 -4 -10 -10 -10 -5 0 -10 5 -10 10 0 6 5 10 10 10 6 0
10 -4 10 -10z m-1090 -533 c-1 -21 -2 -21 -25 6 -14 15 -25 38 -25 50 1 21 2
21 25 -6 14 -15 25 -38 25 -50z m1708 -40 c5 -24 -41 -74 -187 -202 -125 -109
-389 -385 -438 -458 -31 -45 -69 -67 -117 -67 -43 0 -66 22 -66 62 0 34 63
145 137 243 55 72 272 295 327 336 39 29 86 39 86 17 0 -6 -67 -79 -148 -162
-183 -186 -358 -398 -346 -417 11 -18 24 -7 97 89 223 290 551 591 631 580 12
-2 22 -11 24 -21z m150 -6 c4 -28 -122 -159 -333 -346 -82 -73 -159 -142 -169
-154 -19 -21 -19 -21 1 -21 11 0 30 12 44 26 13 15 67 63 119 107 52 44 169
148 258 231 90 83 175 158 188 166 21 13 26 13 41 -3 16 -16 15 -18 -8 -43
-13 -15 -131 -118 -261 -230 -240 -206 -268 -234 -268 -266 0 -22 -65 -56
-189 -97 -182 -60 -186 -38 -22 137 146 157 209 217 381 363 207 176 211 178
218 130z m-1838 -1 c0 -5 -2 -10 -4 -10 -3 0 -8 5 -11 10 -3 6 -1 10 4 10 6 0
11 -4 11 -10z m2117 -27 c8 -21 -50 -75 -257 -242 -85 -69 -185 -155 -221
-193 -54 -55 -73 -68 -97 -68 -34 0 -45 10 -36 34 10 27 426 378 533 450 60
41 69 43 78 19z m139 -24 c8 -13 -76 -93 -249 -237 -151 -125 -199 -159 -246
-172 -42 -11 -61 1 -45 28 10 17 254 216 407 332 76 58 118 73 133 49z m218
-28 c36 -14 33 -38 -13 -96 -62 -78 -80 -93 -121 -100 -78 -13 -75 16 7 72 54
37 81 69 68 81 -9 9 -43 -14 -159 -111 -58 -49 -125 -97 -149 -107 -51 -23
-127 -37 -127 -23 0 14 53 62 210 188 l145 116 56 -5 c31 -3 68 -10 83 -15z
m146 -81 c7 0 25 9 41 21 36 25 122 24 127 -2 2 -12 -19 -22 -85 -42 -171 -51
-213 -58 -213 -35 0 7 19 32 43 56 42 42 42 43 59 22 9 -11 22 -20 28 -20z
m-1900 9 c0 -12 -37 -94 -83 -183 -46 -88 -100 -204 -120 -256 -60 -155 -83
-173 -119 -93 -20 46 -58 239 -58 299 0 41 24 60 85 69 74 10 125 39 206 115
41 38 77 69 82 70 4 0 7 -9 7 -21z m2170 -58 c0 -36 -255 -209 -438 -297 -487
-235 -687 -303 -954 -323 -209 -16 -453 17 -471 63 -9 23 11 33 174 86 85 27
327 108 539 180 399 135 548 178 785 229 77 17 172 39 210 50 75 21 155 27
155 12z m-1760 -16 c0 -9 -28 -46 -62 -83 -35 -37 -85 -96 -111 -130 -43 -57
-67 -71 -67 -38 0 24 99 162 153 214 56 52 87 65 87 37z"/>
<path d="M2351 3368 c0 -7 4 -22 9 -33 7 -17 9 -15 9 13 1 17 -3 32 -9 32 -5
0 -10 -6 -9 -12z"/>
<path d="M1076 3348 c-27 -41 -66 -257 -66 -366 0 -96 6 -108 25 -49 5 18 17
32 25 32 8 0 31 -30 51 -68 19 -37 43 -75 53 -85 16 -16 16 -15 3 24 -8 22
-29 68 -46 101 -67 133 -87 224 -61 274 19 35 40 21 76 -56 56 -118 75 -110
28 12 -15 38 -36 99 -48 138 l-22 70 -18 -27z"/>
<path d="M1250 3194 c-1 -35 88 -253 90 -222 1 18 -61 195 -74 213 -9 11 -16
15 -16 9z"/>
<path d="M1196 3025 c24 -100 162 -421 171 -398 6 16 -143 393 -163 413 -14
13 -15 12 -8 -15z"/>
<path d="M1350 2930 c6 -11 12 -20 14 -20 2 0 2 9 -1 20 -3 11 -9 20 -15 20
-5 0 -4 -9 2 -20z"/>
<path d="M1370 2883 c0 -4 5 -15 10 -23 8 -13 10 -13 10 2 0 9 -4 20 -10 23
-5 3 -10 3 -10 -2z"/>
</g>
</svg>
